<svg xmlns="http://www.w3.org/2000/svg" width="142.824" height="107.393" viewBox="0 0 142.824 107.393">
  <g id="application" transform="translate(-67.742 -145.516)">
    <g id="组_3076" data-name="组 3076" transform="translate(172.393 177.369)">
      <path id="路径_5541" data-name="路径 5541" d="M412.638,294.4l-2.6-20.112a8.1,8.1,0,0,0-3.117-5.4l-12.687-9.682-6.876,21.843,15.775,17.6Z" transform="translate(-387.357 -259.207)" fill="#f6b381"/>
      <path id="路径_5542" data-name="路径 5542" d="M403.572,278.024l8.9,7.387a1.021,1.021,0,0,1,.341,1.044l-3.165,12.327a1.022,1.022,0,0,1-1.8.377l-6.351-8.1a1.023,1.023,0,0,1-.044-1.2l.615-11.617A1.022,1.022,0,0,1,403.572,278.024Z" transform="translate(-396.392 -271.263)" fill="#f6906b"/>
    </g>
    <path id="矩形_1801" data-name="矩形 1801" d="M13.128,0h89.085a13.129,13.129,0,0,1,13.129,13.129V64.543a13.128,13.128,0,0,1-13.128,13.128H13.128A13.128,13.128,0,0,1,0,64.543V13.128A13.128,13.128,0,0,1,13.128,0Z" transform="translate(71.454 145.516)" fill="#2f2d4f"/>
    <rect id="矩形_1802" data-name="矩形 1802" width="103.41" height="66.792" transform="translate(77.825 150.821)" fill="#7498ff"/>
    <path id="路径_5543" data-name="路径 5543" d="M279.423,183.5c3.677,4.634,9.414,7.087,15.032,8.938s11.49,3.339,16.36,6.7c1.757,1.211,3.357,2.648,5.033,3.97V160.617H276.761C274.478,168.38,274.36,177.122,279.423,183.5Z" transform="translate(-139.675 -9.796)" fill="#547dec"/>
    <g id="组_3078" data-name="组 3078" transform="translate(77.825 150.821)">
      <rect id="矩形_1803" data-name="矩形 1803" width="103.41" height="6.656" transform="translate(0)" fill="#cfe3ff"/>
      <g id="组_3077" data-name="组 3077" transform="translate(81.135 2.005)">
        <path id="路径_5544" data-name="路径 5544" d="M330.438,167.84a1.517,1.517,0,1,1-1.517-1.517A1.517,1.517,0,0,1,330.438,167.84Z" transform="translate(-327.404 -166.323)" fill="#7498ff"/>
        <path id="路径_5545" data-name="路径 5545" d="M349.245,167.84a1.517,1.517,0,1,1-1.517-1.517A1.517,1.517,0,0,1,349.245,167.84Z" transform="translate(-339.604 -166.323)" fill="#7498ff"/>
        <path id="路径_5546" data-name="路径 5546" d="M368.052,167.84a1.517,1.517,0,1,1-1.517-1.517A1.517,1.517,0,0,1,368.052,167.84Z" transform="translate(-351.804 -166.323)" fill="#7498ff"/>
      </g>
      <path id="路径_5547" data-name="路径 5547" d="M150.826,169.357h-38.09a1.517,1.517,0,0,1-1.517-1.517h0a1.517,1.517,0,0,1,1.517-1.517h38.09a1.517,1.517,0,0,1,1.517,1.517h0A1.517,1.517,0,0,1,150.826,169.357Z" transform="translate(-106.028 -164.318)" fill="#fff"/>
    </g>
    <path id="路径_5548" data-name="路径 5548" d="M151.361,271.871c-3.14-3.658-8.106-5.057-12.771-6.274l-7.668-2a32.791,32.791,0,0,1-7.1-2.447c-4.654-2.453-7.833-6.964-10.536-11.478s-5.189-9.289-9.07-12.84a17.553,17.553,0,0,0-7.769-4.2v41.495H152.9A13.136,13.136,0,0,0,151.361,271.871Z" transform="translate(-18.618 -62.859)" fill="#547dec"/>
    <g id="组_3086" data-name="组 3086" transform="translate(92.841 161.139)">
      <rect id="矩形_1804" data-name="矩形 1804" width="72.27" height="42.877" rx="8.06" transform="translate(0 0)" fill="#fff"/>
      <g id="组_3084" data-name="组 3084" transform="translate(7.968 10.184)">
        <g id="组_3080" data-name="组 3080">
          <circle id="椭圆_30" data-name="椭圆 30" cx="6.929" cy="6.929" r="6.929" fill="#f072b9"/>
          <g id="组_3079" data-name="组 3079" transform="translate(2.767 2.39)">
            <path id="路径_5549" data-name="路径 5549" d="M187.576,240.248A2.573,2.573,0,1,1,185,237.674,2.573,2.573,0,0,1,187.576,240.248Z" transform="translate(-180.687 -237.674)" fill="#fff"/>
            <path id="路径_5550" data-name="路径 5550" d="M177.471,258.492a4.219,4.219,0,1,1,8.438,0,7.676,7.676,0,0,1-4.276,1.686A6.612,6.612,0,0,1,177.471,258.492Z" transform="translate(-177.471 -248.442)" fill="#fff"/>
          </g>
        </g>
        <g id="组_3083" data-name="组 3083" transform="translate(17.301 0.05)">
          <g id="组_3081" data-name="组 3081">
            <rect id="矩形_1805" data-name="矩形 1805" width="39.034" height="5.461" rx="2.73" transform="translate(0 0.081)" fill="#cfe3ff"/>
            <text id="NAME" transform="translate(2.635 2)" fill="#606565" font-size="2" font-family="SegoeUI, Segoe UI" letter-spacing="0.04em"><tspan x="0" y="0">NAME</tspan></text>
          </g>
          <g id="组_3082" data-name="组 3082" transform="translate(0 7.767)">
            <rect id="矩形_1806" data-name="矩形 1806" width="39.034" height="5.461" rx="2.73" fill="#cfe3ff"/>
            <text id="_" data-name="**********" transform="translate(2.635 3.627)" fill="#606565" font-size="3" font-family="SegoeUI, Segoe UI" letter-spacing="0.04em"><tspan x="0" y="0">**********</tspan></text>
          </g>
        </g>
      </g>
      <g id="组_3085" data-name="组 3085" transform="translate(10.247 30.742)">
        <rect id="矩形_1807" data-name="矩形 1807" width="16.584" height="5.393" rx="2.697" fill="#f072b9"/>
        <rect id="矩形_1808" data-name="矩形 1808" width="16.584" height="5.393" rx="2.697" transform="translate(35.191)" fill="#547dec"/>
      </g>
    </g>
    <path id="路径_5551" data-name="路径 5551" d="M353.462,306.628s-1.82,4.449.91,7.686a15.282,15.282,0,0,0,6.978,4.348s-.809,6.978,2.225,8.9h6.674l.607-14.663Z" transform="translate(-190.73 -113.929)" fill="#2f2d4f" opacity="0.22" style="mix-blend-mode: multiply;isolation: isolate"/>
    <g id="组_3089" data-name="组 3089" transform="translate(160.262 182.799)">
      <g id="组_3087" data-name="组 3087">
        <path id="路径_5552" data-name="路径 5552" d="M376,334.22l-1.549-4.906a.835.835,0,0,0-.486-.523l-5.808-2.323c-5.335-2.134-5.139-10.489-4.987-12.724a.829.829,0,0,0-.467-.8l-6.1-2.969a7.374,7.374,0,0,1-3.781-6.048v-.012A2.9,2.9,0,0,1,356.967,301l15.539,5.6a.833.833,0,0,1,.434.358l8.149,13.679a.835.835,0,0,0,.979.365l6.888-2.28a.835.835,0,0,1,1.077.611l3.214,14.449a.835.835,0,0,1-.815,1.016H376.795A.835.835,0,0,1,376,334.22Z" transform="translate(-352.825 -300.756)" fill="#f6b381"/>
        <path id="路径_5553" data-name="路径 5553" d="M375.94,333.178c-11.326-2.023-8.494-13.753-8.494-13.753l-14.212-6.235a7.476,7.476,0,0,0,3.637,4.847l6.1,2.969h0l.514.25s-.026.238-.052.644c0,.034,0,.066-.006.1,0,.059-.007.123-.01.187,0,.031,0,.06,0,.093q-.007.148-.012.313c0,.028,0,.059,0,.088,0,.085,0,.172-.007.263,0,.044,0,.09,0,.135,0,.082,0,.164,0,.249,0,.052,0,.105,0,.158,0,.083,0,.168,0,.255q0,.086,0,.174c0,.09,0,.181.007.274,0,.058,0,.115.005.174,0,.1.008.207.013.313,0,.053,0,.1.008.158q.013.239.031.485l0,.024q.018.236.042.478c.005.053.012.108.017.162.012.117.025.234.039.352.008.066.017.132.026.2q.022.163.046.328.016.105.033.211c.018.11.037.22.056.33.012.069.025.138.038.207.022.117.046.234.071.351.013.063.026.126.04.189.032.145.067.29.1.435.008.034.016.068.025.1q.07.267.15.532c.015.049.031.1.046.146.04.128.081.255.125.381.022.064.046.128.07.191.04.11.082.22.125.329.027.067.055.134.084.2q.066.156.138.311c.03.066.061.132.093.2.051.1.1.207.158.309.032.06.063.12.1.18.064.115.132.227.2.338.027.044.052.088.08.131q.148.228.31.445c.021.029.045.056.067.085.088.114.178.227.273.335.041.047.085.093.128.139.08.086.161.172.245.255.05.049.1.1.154.144q.124.114.254.222c.055.046.112.091.17.135.09.069.183.136.278.2.058.04.116.08.176.119.106.067.215.129.326.19.054.03.106.061.162.09.169.086.342.167.523.24l1.9.759.2.082,1.1.441.717.287,2.253.9,1.668,5.283a.835.835,0,0,0,.8.583h3.714l-2.2-9.287Z" transform="translate(-353.09 -308.822)" fill="#f6906b"/>
        <path id="路径_5554" data-name="路径 5554" d="M355.612,307.723l.591-1.149a1.3,1.3,0,0,1,1.6-.63l2.946,1.066a1.3,1.3,0,0,1,.717,1.82l-.846,1.656a1.3,1.3,0,0,1-1.82.532l-2.691-1.574A1.3,1.3,0,0,1,355.612,307.723Z" transform="translate(-354.539 -304.071)" fill="#e3e3e6"/>
      </g>
      <g id="组_3088" data-name="组 3088" transform="translate(18.097 29.238)">
        <rect id="矩形_1809" data-name="矩形 1809" width="23.056" height="6.674" rx="3.337" transform="translate(1.2 3.621) rotate(-9.034)" fill="#f1e8e1"/>
        <rect id="矩形_1810" data-name="矩形 1810" width="13.82" height="6.674" rx="3.337" transform="translate(1.2 3.621) rotate(-9.035)" fill="#ddd3d2"/>
        <path id="路径_5555" data-name="路径 5555" d="M436.548,432.892l-5.975-36.521-26.233,4.171,5.321,32.35Z" transform="translate(-404.34 -392.02)" fill="#393c63"/>
        <path id="路径_5556" data-name="路径 5556" d="M425.7,437.26l-4.97-30.177a4.719,4.719,0,0,0-5.4-3.92l-10.986,1.747,5.321,32.35Z" transform="translate(-404.34 -396.388)" fill="#2f2d4f"/>
      </g>
    </g>
    <path id="路径_5557" data-name="路径 5557" d="M155.634,290.544l-14.607,26.724h9.266c2.243-6.838,6.065-18.47,7.094-21.465C158.871,291.488,155.634,290.544,155.634,290.544Z" transform="translate(-49.009 -103.056)" fill="#2f2d4f" opacity="0.22" style="mix-blend-mode: multiply;isolation: isolate"/>
    <g id="组_3092" data-name="组 3092" transform="translate(67.742 176.92)">
      <g id="组_3090" data-name="组 3090" transform="translate(8.052 0)">
        <path id="路径_5558" data-name="路径 5558" d="M91.952,326.979l.713-4.993a3.3,3.3,0,0,0-.424-2.132,10.059,10.059,0,0,1-1.565-5.336c.216-3.025,4.779-12.9,4.779-12.9a4.242,4.242,0,0,1,3.673-2.377c1.646,0,5.469,1.045,8.042,1.808a3.274,3.274,0,0,0,3.82-1.595l7.038-13.7a3.276,3.276,0,0,1,4.539-1.284h0a3.276,3.276,0,0,1,1.478,3.8L116.55,312.4a3.276,3.276,0,0,0,.613,3.069,5.509,5.509,0,0,1,1.388,4.239c-.319,2.394-4.527,4.905-6.706,6.055a3.266,3.266,0,0,0-1.648,2.119l-.795,3.268a3.276,3.276,0,0,1-4.024,2.392l-11.024-2.93A3.276,3.276,0,0,1,91.952,326.979Z" transform="translate(-90.662 -284.019)" fill="#f6b381"/>
        <path id="路径_5559" data-name="路径 5559" d="M169.641,291.785l3.025.937s1.657-2.809.216-4.034S170.145,290.344,169.641,291.785Z" transform="translate(-141.896 -286.856)" fill="#e3e3e6"/>
        <path id="路径_5560" data-name="路径 5560" d="M140.443,380.037a5.017,5.017,0,0,0-.567-3.013c-3.672,6.375-13.262,6.9-13.262,6.9l-1.945,8.211-.26.973,2.86.761a3.276,3.276,0,0,0,4.024-2.392l.795-3.268a3.265,3.265,0,0,1,1.648-2.119C135.916,384.942,140.124,382.431,140.443,380.037Z" transform="translate(-112.554 -344.352)" fill="#f6906b"/>
      </g>
      <g id="组_3091" data-name="组 3091" transform="translate(0 42.938)">
        <rect id="矩形_1811" data-name="矩形 1811" width="23.056" height="6.674" rx="3.337" transform="translate(28.68 10.212) rotate(-170.966)" fill="#f1e8e1"/>
        <rect id="矩形_1812" data-name="矩形 1812" width="13.82" height="6.674" rx="3.337" transform="translate(28.68 10.212) rotate(-170.966)" fill="#ddd3d2"/>
        <path id="路径_5561" data-name="路径 5561" d="M94.636,447.333l4.035-24.53-26.233-4.171-4.7,28.7Z" transform="translate(-67.742 -414.282)" fill="#393c63"/>
        <path id="路径_5562" data-name="路径 5562" d="M114.688,451.7l4.035-24.53-10.986-1.747a4.72,4.72,0,0,0-5.4,3.92L98.654,451.7Z" transform="translate(-87.795 -418.649)" fill="#2f2d4f"/>
      </g>
    </g>
  </g>
</svg>
