<svg xmlns="http://www.w3.org/2000/svg" width="163.389" height="91.106" viewBox="0 0 163.389 91.106">
  <g id="Certification2" transform="translate(-1306.817 -616.139)">
    <g id="组_3106" data-name="组 3106" transform="translate(1306.489 603.724)">
      <g id="组_3105" data-name="组 3105" transform="translate(0.328 102.626)">
        <path id="路径_5619" data-name="路径 5619" d="M1472.782,1685.343H1310.467a.49.49,0,0,0-.521.431v.009a.485.485,0,0,0,.521.454h162.315a.457.457,0,1,0,0-.894Z" transform="translate(-1309.945 -1685.343)" fill="#2da981"/>
      </g>
    </g>
    <g id="组_3112" data-name="组 3112" transform="translate(1376.297 616.139)">
      <g id="组_3107" data-name="组 3107" transform="translate(0)">
        <rect id="矩形_1852" data-name="矩形 1852" width="61.459" height="71.18" rx="25.303" fill="#2da981"/>
        <rect id="矩形_1853" data-name="矩形 1853" width="59.233" height="55.73" transform="translate(1.113 12.96)" fill="#f5fff5"/>
      </g>
      <rect id="矩形_1854" data-name="矩形 1854" width="69.001" height="59.233" rx="14.057" transform="translate(60.346 1.023) rotate(90)" fill="#91deaa"/>
      <path id="路径_5620" data-name="路径 5620" d="M2111.8,745.342h-56.45a1.34,1.34,0,0,0-1.392,1.279v4.756h59.233v-4.756A1.34,1.34,0,0,0,2111.8,745.342Z" transform="translate(-2052.849 -744.319)" fill="#1e2b5f"/>
      <path id="路径_5621" data-name="路径 5621" d="M2073.57,757.242l2.533,1.344V755.9Z" transform="translate(-2070.597 -753.874)" fill="#ff8b88"/>
      <rect id="矩形_1855" data-name="矩形 1855" width="59.233" height="6.857" transform="translate(1.113 5.66)" fill="#f5fff5"/>
      <path id="路径_5622" data-name="路径 5622" d="M2149.555,828.16h-48.637a.931.931,0,0,1-.931-.931h0a.931.931,0,0,1,.931-.931h48.637a.931.931,0,0,1,.931.931h0A.931.931,0,0,1,2149.555,828.16Z" transform="translate(-2094.506 -817.594)" fill="#54c295"/>
      <g id="组_3109" data-name="组 3109" transform="translate(1.447 13.267)">
        <g id="组_3108" data-name="组 3108">
          <rect id="矩形_1856" data-name="矩形 1856" width="9.685" height="5.599" transform="translate(8.683 32.955)" fill="#f5fff5"/>
          <rect id="矩形_1857" data-name="矩形 1857" width="9.685" height="5.599" transform="translate(8.683 26.472)" fill="#f5fff5"/>
          <rect id="矩形_1858" data-name="矩形 1858" width="9.685" height="5.599" transform="translate(8.683 45.921)" fill="#f5fff5"/>
          <rect id="矩形_1859" data-name="矩形 1859" width="9.685" height="5.599" transform="translate(8.683 39.438)" fill="#f5fff5"/>
          <rect id="矩形_1860" data-name="矩形 1860" width="9.685" height="4.445" transform="translate(8.683 8.963)" fill="#f5fff5"/>
          <rect id="矩形_1861" data-name="矩形 1861" width="9.685" height="4.813" transform="translate(8.683 14.292)" fill="#f5fff5"/>
          <rect id="矩形_1862" data-name="矩形 1862" width="9.017" height="3.929" transform="translate(9.017 14.734)" fill="#f5fff5"/>
          <rect id="矩形_1863" data-name="矩形 1863" width="9.685" height="5.599" transform="translate(8.683 19.989)" fill="#f5fff5"/>
          <rect id="矩形_1864" data-name="矩形 1864" width="9.685" height="5.599" transform="translate(39.74 39.438)" fill="#f5fff5"/>
          <rect id="矩形_1865" data-name="矩形 1865" width="9.685" height="5.599" transform="translate(19.035 45.921)" fill="#f5fff5"/>
          <rect id="矩形_1866" data-name="矩形 1866" width="9.685" height="5.599" transform="translate(39.74 32.955)" fill="#f5fff5"/>
          <rect id="矩形_1867" data-name="矩形 1867" width="9.685" height="5.599" transform="translate(39.74 19.989)" fill="#f5fff5"/>
          <rect id="矩形_1868" data-name="矩形 1868" width="9.685" height="5.599" transform="translate(39.74 26.472)" fill="#f5fff5"/>
          <rect id="矩形_1869" data-name="矩形 1869" width="9.685" height="5.599" transform="translate(29.388 45.921)" fill="#f5fff5"/>
          <rect id="矩形_1870" data-name="矩形 1870" width="9.685" height="5.599" transform="translate(39.74 45.921)" fill="#f5fff5"/>
          <rect id="矩形_1871" data-name="矩形 1871" width="9.685" height="4.445" transform="translate(8.683 3.634)" fill="#f5fff5"/>
          <rect id="矩形_1872" data-name="矩形 1872" width="9.685" height="5.599" transform="translate(19.035 39.438)" fill="#f5fff5"/>
          <rect id="矩形_1873" data-name="矩形 1873" width="9.685" height="5.599" transform="translate(19.035 32.955)" fill="#f5fff5"/>
          <rect id="矩形_1874" data-name="矩形 1874" width="9.685" height="4.813" transform="translate(39.74 14.292)" fill="#f5fff5"/>
          <rect id="矩形_1875" data-name="矩形 1875" width="9.685" height="4.445" transform="translate(19.035 3.634)" fill="#f5fff5"/>
          <rect id="矩形_1876" data-name="矩形 1876" width="9.685" height="4.445" transform="translate(19.035 8.963)" fill="#f5fff5"/>
          <rect id="矩形_1877" data-name="矩形 1877" width="9.685" height="5.599" transform="translate(19.035 19.989)" fill="#f5fff5"/>
          <rect id="矩形_1878" data-name="矩形 1878" width="9.685" height="5.599" transform="translate(29.388 39.438)" fill="#f5fff5"/>
          <rect id="矩形_1879" data-name="矩形 1879" width="9.685" height="4.813" transform="translate(19.035 14.292)" fill="#f5fff5"/>
          <rect id="矩形_1880" data-name="矩形 1880" width="9.685" height="5.599" transform="translate(19.035 26.472)" fill="#f5fff5"/>
          <rect id="矩形_1881" data-name="矩形 1881" width="9.685" height="4.445" transform="translate(29.388 8.963)" fill="#f5fff5"/>
          <rect id="矩形_1882" data-name="矩形 1882" width="9.685" height="4.813" transform="translate(29.388 14.292)" fill="#f5fff5"/>
          <rect id="矩形_1883" data-name="矩形 1883" width="9.685" height="5.599" transform="translate(29.388 32.955)" fill="#f5fff5"/>
          <rect id="矩形_1884" data-name="矩形 1884" width="9.685" height="4.445" transform="translate(29.388 3.634)" fill="#f5fff5"/>
          <rect id="矩形_1885" data-name="矩形 1885" width="9.685" height="5.599" transform="translate(29.388 19.989)" fill="#f5fff5"/>
          <rect id="矩形_1886" data-name="矩形 1886" width="9.685" height="5.599" transform="translate(29.388 26.472)" fill="#f5fff5"/>
          <rect id="矩形_1887" data-name="矩形 1887" width="8.473" height="5.599" transform="translate(50.093 45.921)" fill="#f5fff5"/>
          <rect id="矩形_1888" data-name="矩形 1888" width="9.685" height="2.599" transform="translate(19.035 52.404)" fill="#f5fff5"/>
          <rect id="矩形_1889" data-name="矩形 1889" width="9.685" height="2.599" transform="translate(29.388 52.404)" fill="#f5fff5"/>
          <rect id="矩形_1890" data-name="矩形 1890" width="9.685" height="2.599" transform="translate(39.74 52.404)" fill="#f5fff5"/>
          <rect id="矩形_1891" data-name="矩形 1891" width="8.015" height="2.599" transform="translate(0 52.404)" fill="#f5fff5"/>
          <rect id="矩形_1892" data-name="矩形 1892" width="8.015" height="5.599" transform="translate(0 45.921)" fill="#f5fff5"/>
          <rect id="矩形_1893" data-name="矩形 1893" width="9.685" height="2.599" transform="translate(8.683 52.404)" fill="#f5fff5"/>
          <rect id="矩形_1894" data-name="矩形 1894" width="8.473" height="2.599" transform="translate(50.093 52.404)" fill="#f5fff5"/>
          <rect id="矩形_1895" data-name="矩形 1895" width="8.473" height="5.599" transform="translate(50.093 39.438)" fill="#f5fff5"/>
          <rect id="矩形_1896" data-name="矩形 1896" width="8.473" height="4.813" transform="translate(50.093 14.292)" fill="#f5fff5"/>
          <rect id="矩形_1897" data-name="矩形 1897" width="9.685" height="4.445" transform="translate(39.74 8.963)" fill="#f5fff5"/>
          <rect id="矩形_1898" data-name="矩形 1898" width="9.017" height="3.561" transform="translate(40.074 9.405)" fill="#f5fff5"/>
          <rect id="矩形_1899" data-name="矩形 1899" width="8.473" height="5.599" transform="translate(50.093 19.989)" fill="#f5fff5"/>
          <rect id="矩形_1900" data-name="矩形 1900" width="8.473" height="4.445" transform="translate(50.093 8.963)" fill="#f5fff5"/>
          <rect id="矩形_1901" data-name="矩形 1901" width="8.473" height="5.599" transform="translate(50.093 26.472)" fill="#f5fff5"/>
          <rect id="矩形_1902" data-name="矩形 1902" width="8.473" height="5.599" transform="translate(50.093 32.955)" fill="#f5fff5"/>
          <rect id="矩形_1903" data-name="矩形 1903" width="8.015" height="5.599" transform="translate(0 39.438)" fill="#f5fff5"/>
          <rect id="矩形_1904" data-name="矩形 1904" width="8.473" height="4.445" transform="translate(50.093 3.634)" fill="#f5fff5"/>
          <rect id="矩形_1905" data-name="矩形 1905" width="9.685" height="4.445" transform="translate(39.74 3.634)" fill="#f5fff5"/>
          <rect id="矩形_1906" data-name="矩形 1906" width="8.015" height="4.813" transform="translate(0 14.292)" fill="#f5fff5"/>
          <rect id="矩形_1907" data-name="矩形 1907" width="58.899" height="2.75" fill="#f5fff5"/>
          <rect id="矩形_1908" data-name="矩形 1908" width="8.015" height="5.599" transform="translate(0 32.955)" fill="#f5fff5"/>
          <rect id="矩形_1909" data-name="矩形 1909" width="8.015" height="5.599" transform="translate(0 26.472)" fill="#f5fff5"/>
          <rect id="矩形_1910" data-name="矩形 1910" width="8.015" height="5.599" transform="translate(0 19.989)" fill="#f5fff5"/>
          <rect id="矩形_1911" data-name="矩形 1911" width="8.015" height="4.445" transform="translate(0 3.634)" fill="#f5fff5"/>
          <rect id="矩形_1912" data-name="矩形 1912" width="8.015" height="4.445" transform="translate(0 8.963)" fill="#f5fff5"/>
        </g>
      </g>
      <path id="路径_5623" data-name="路径 5623" d="M2564.482,782.563h-1.908a.225.225,0,0,1-.225-.225h0a.225.225,0,0,1,.225-.225h1.908a.225.225,0,0,1,.225.225h0A.225.225,0,0,1,2564.482,782.563Z" transform="translate(-2512.999 -777.6)" fill="#f5fff5"/>
      <g id="组_3110" data-name="组 3110" transform="translate(53.094 3.275)">
        <rect id="矩形_1913" data-name="矩形 1913" width="2.183" height="1.687" fill="#f5fff5"/>
        <rect id="矩形_1914" data-name="矩形 1914" width="1.271" height="1.767" transform="translate(1.975 0.208) rotate(90)" fill="#1e2b5f"/>
      </g>
      <g id="组_3111" data-name="组 3111" transform="translate(56.501 3.293)">
        <path id="路径_5624" data-name="路径 5624" d="M2639.24,770.937l-.6-.7h-.007c-.045.063-.553.691-.56.7h-.363l.748-.845-.719-.825h.367c.393.476.464.558.549.674h.011c.128-.183.225-.283.556-.674h.363l-.745.812.763.857Z" transform="translate(-2637.714 -769.268)" fill="#f5fff5"/>
      </g>
    </g>
    <path id="路径_5625" data-name="路径 5625" d="M2507.3,1268.008a6.329,6.329,0,0,1,1.866,1.18,31.513,31.513,0,0,1,3.808-4.005,19.193,19.193,0,0,0-3.719,5.513A6.229,6.229,0,0,0,2507.3,1268.008Z" transform="translate(-1086.878 -598.698)" fill="#fc716e"/>
    <path id="路径_5626" data-name="路径 5626" d="M2176.576,940.276a6.329,6.329,0,0,1,1.866,1.18,31.513,31.513,0,0,1,3.808-4.005,19.2,19.2,0,0,0-3.719,5.513A6.228,6.228,0,0,0,2176.576,940.276Z" transform="translate(-787.532 -302.062)" fill="#fc716e"/>
    <path id="路径_5627" data-name="路径 5627" d="M2398.273,1137.8a6.33,6.33,0,0,1,1.866,1.18,31.513,31.513,0,0,1,3.808-4.005,19.193,19.193,0,0,0-3.719,5.513A6.23,6.23,0,0,0,2398.273,1137.8Z" transform="translate(-988.193 -480.842)" fill="#fc716e"/>
    <path id="路径_5628" data-name="路径 5628" d="M2069.457,1137.8a6.33,6.33,0,0,1,1.866,1.18,31.513,31.513,0,0,1,3.808-4.005,19.188,19.188,0,0,0-3.719,5.513A6.228,6.228,0,0,0,2069.457,1137.8Z" transform="translate(-690.576 -480.842)" fill="#fc716e"/>
    <path id="路径_5629" data-name="路径 5629" d="M2497.454,1001.941a6.326,6.326,0,0,1,1.866,1.18,31.5,31.5,0,0,1,3.808-4.005,19.187,19.187,0,0,0-3.719,5.513A6.23,6.23,0,0,0,2497.454,1001.941Z" transform="translate(-1077.964 -357.876)" fill="#fc716e"/>
    <path id="路径_5630" data-name="路径 5630" d="M2176.576,1343.107a6.33,6.33,0,0,1,1.866,1.18,31.522,31.522,0,0,1,3.808-4.006,19.2,19.2,0,0,0-3.719,5.513A6.229,6.229,0,0,0,2176.576,1343.107Z" transform="translate(-787.532 -666.672)" fill="#fc716e"/>
    <path id="路径_5631" data-name="路径 5631" d="M2291.672,1343.107a6.325,6.325,0,0,1,1.866,1.18,31.522,31.522,0,0,1,3.808-4.006,19.188,19.188,0,0,0-3.719,5.513A6.229,6.229,0,0,0,2291.672,1343.107Z" transform="translate(-891.707 -666.672)" fill="#fc716e"/>
    <g id="组_3115" data-name="组 3115" transform="translate(1423.513 632.093)">
      <g id="组_3114" data-name="组 3114" transform="translate(0)">
        <path id="路径_5632" data-name="路径 5632" d="M2617.921,1015.679c.057-.531,1.527-.96,1.959-1.087s.152-.024.631.13c.058.019,1.51,2.232,1.51,2.232.458.721,4.658,7.139,6.072,8.114,1.445,1,7.2,2.731,7.2,2.731l.263,3.676s-7.949-2.725-9.651-4.186c-1.409-1.21-4.218-7.035-5.557-9.182h0C2620,1017.659,2617.864,1016.21,2617.921,1015.679Z" transform="translate(-2610.513 -1003.925)" fill="#f7a491"/>
        <path id="路径_5633" data-name="路径 5633" d="M2539.9,903.045l9.758,12.354.008.011a.532.532,0,1,0,.835-.659l-.014-.017-10.27-11.943,0,0a.2.2,0,0,0-.314.259Z" transform="translate(-2539.854 -902.715)" fill="#1e2b5f"/>
        <path id="路径_5634" data-name="路径 5634" d="M2626.863,1018.371l1.351,1.71.008.011a.532.532,0,0,0,.7.118.532.532,0,0,1-.865.043l-.009-.011-1.406-1.78C2626.718,1018.43,2626.791,1018.4,2626.863,1018.371Z" transform="translate(-2618.412 -1007.397)" fill="#f47458"/>
        <path id="路径_5635" data-name="路径 5635" d="M2618.566,1010.345s-1.443,1.279-1.08,1.814c.4.591.913.91.941.732a5.039,5.039,0,0,0-.31-1.04,3.984,3.984,0,0,0,.546-.891C2618.752,1010.649,2618.819,1010.326,2618.566,1010.345Z" transform="translate(-2610.067 -1000.133)" fill="#f7a491"/>
        <path id="路径_5636" data-name="路径 5636" d="M2632.294,1010.246s.908.391.959.279-.135-.377-.135-.377-1.222-.928-1.267-.6S2632.294,1010.246,2632.294,1010.246Z" transform="translate(-2623.12 -999.351)" fill="#f7a491"/>
        <path id="路径_5637" data-name="路径 5637" d="M2616.278,1008.906s.784-.89.815-.593c.037.358-.617,1.4-.938,1.4S2615.833,1009.4,2616.278,1008.906Z" transform="translate(-2608.709 -998.238)" fill="#f7a491"/>
        <path id="路径_5638" data-name="路径 5638" d="M2658.742,1053.121s-6.544-2.1-7.718-2.666-5.919-7.552-5.919-7.552l-2.6,1.327s5.8,9.44,6.059,9.848l8.046,3.894Z" transform="translate(-2632.763 -1029.602)" fill="#54c295"/>
        <path id="路径_5639" data-name="路径 5639" d="M2805.019,1632.654a17.2,17.2,0,0,0,.516,2.279c.179.318-1.31,2.064-2.122,1.781-.458-.16-.535-1.6-.535-1.6l.332-.408-.458-1.716Z" transform="translate(-2777.807 -1563.396)" fill="#f7a491"/>
        <path id="路径_5640" data-name="路径 5640" d="M2771.72,1655.823a13.179,13.179,0,0,1-1.4.209,10.982,10.982,0,0,1-1.234-.036s-1.185.445-1.564.631a6.844,6.844,0,0,0-2.114,1.332c-.086.13-.077.57.239.654a20.426,20.426,0,0,0,6.3-.066C2772.861,1658.175,2771.72,1655.823,2771.72,1655.823Z" transform="translate(-2743.97 -1584.367)" fill="#1e2b5f"/>
        <path id="路径_5641" data-name="路径 5641" d="M2884.476,1632.654a17.2,17.2,0,0,0,.516,2.279c.179.318-1.31,2.064-2.122,1.781-.458-.16-.535-1.6-.535-1.6l.332-.408-.458-1.716Z" transform="translate(-2849.725 -1563.396)" fill="#f7a491"/>
        <path id="路径_5642" data-name="路径 5642" d="M2851.156,1655.823a13.179,13.179,0,0,1-1.4.209,10.985,10.985,0,0,1-1.234-.036s-1.185.445-1.563.631a6.84,6.84,0,0,0-2.114,1.332c-.086.13-.087.629.239.654,1.358.1,5.594.119,6.382-.2C2852.38,1658.037,2851.156,1655.823,2851.156,1655.823Z" transform="translate(-2815.866 -1584.367)" fill="#1e2b5f"/>
        <g id="组_3113" data-name="组 3113" transform="translate(19.8 38.866)">
          <path id="路径_5643" data-name="路径 5643" d="M2750.6,1312.339l-1.483,3.841s-.968,9.167-.4,14.654c.236,2.295,4.853,13.719,4.853,13.719a3.748,3.748,0,0,0,1.454.077c.347-.049,1.384-.23,1.384-.23l-3.214-13.9,1.249-5.563,1.768-11Z" transform="translate(-2748.531 -1312.339)" fill="#1e2b5f"/>
          <path id="路径_5644" data-name="路径 5644" d="M2782.591,1314.45l1.272,4.277.548,13.68,4.631,13.1a7.191,7.191,0,0,1-3.482.689l-5.128-12.463-4.453-15.757.177-3.395Z" transform="translate(-2773.375 -1314.25)" fill="#1e3877"/>
        </g>
        <path id="路径_5645" data-name="路径 5645" d="M2764.393,1148.286a8.832,8.832,0,0,1,2.415.635,31.829,31.829,0,0,1,2.322,2.357s-3.653,10.463-3.511,12.325.542,4.619.542,4.619-7.093.448-9.78-.613c0,0,.848-4.218.848-5.326s1.247-12.026,1.586-12.606a5.779,5.779,0,0,1,2.52-1.461A25.723,25.723,0,0,1,2764.393,1148.286Z" transform="translate(-2735.837 -1124.902)" fill="#f5fff5"/>
        <path id="路径_5646" data-name="路径 5646" d="M2735.621,1176.618c-.045-.223,1.822-10.686,1.852-11.06.3-3.718,1.333-15.115,2.64-16.685a2,2,0,0,1,.974-.32c.717-.088,1.46-.148,1.46-.148a9.642,9.642,0,0,0-1.1,1.03,10.043,10.043,0,0,0-1.587,4.681c-.624,4.941-1.191,22.961-1.412,23.041C2738.2,1177.246,2735.722,1177.112,2735.621,1176.618Z" transform="translate(-2717.046 -1125.093)" fill="#54c295"/>
        <path id="路径_5647" data-name="路径 5647" d="M2797.727,1045.77a1.16,1.16,0,0,1,1.847.66,2.846,2.846,0,0,1,.521.014,4.214,4.214,0,0,1,.763.521,3.194,3.194,0,0,1,1.285,2.565,3.818,3.818,0,0,1-1.2,2.883,2.992,2.992,0,0,1-.769.654c-.36.193-.644.04-.982.122-.285.069-.385.37-.72.261-.471-.152-.965-.741-1.548-.654a5.882,5.882,0,0,1-1.932-.439c-1.729-.674-.562-4.021-.23-5.208A2.422,2.422,0,0,1,2797.727,1045.77Z" transform="translate(-2769.945 -1031.971)" fill="#1e2b5f"/>
        <path id="路径_5648" data-name="路径 5648" d="M2809.609,1110.35l-.449,1.225-.242.685s-.017,1.226.269,1.543c.492.547,2.515-1.479,2.515-1.479l.641-3.855Z" transform="translate(-2783.389 -1088.948)" fill="#f7a491"/>
        <path id="路径_5649" data-name="路径 5649" d="M2814.406,1109.719a4.426,4.426,0,0,1-2.979,1.868l.454-1.237,2.734-1.88Z" transform="translate(-2785.659 -1088.948)" fill="#f47458"/>
        <path id="路径_5650" data-name="路径 5650" d="M2806.1,1064.063a1.936,1.936,0,0,0-2.806.96,14.644,14.644,0,0,0-.554,1.781c-.395,1.645.105,3.442.855,3.608a3.625,3.625,0,0,0,3.653-2.775A3.2,3.2,0,0,0,2806.1,1064.063Z" transform="translate(-2777.673 -1048.5)" fill="#f7a491"/>
        <path id="路径_5651" data-name="路径 5651" d="M2845.131,1099.814a.564.564,0,1,0,.685-.541A.623.623,0,0,0,2845.131,1099.814Z" transform="translate(-2816.148 -1080.614)" fill="#f7a491"/>
        <path id="路径_5652" data-name="路径 5652" d="M2812.955,1148.975s3.134.322,3.935.848c.509.335.111,4.067.111,4.067a73.586,73.586,0,0,0-.621,8.486q.015.413.041.812c.28,4.286,2.571,14.549,2.371,14.73-1.29.72-8.332.691-8.413.121C2809.691,1173.217,2812.955,1148.975,2812.955,1148.975Z" transform="translate(-2784.625 -1125.609)" fill="#54c295"/>
        <path id="路径_5653" data-name="路径 5653" d="M2834.008,1278.541q0,.118.006.23c.009.271.023.537.04.8l-4.288-2Z" transform="translate(-2802.259 -1242.005)" fill="#2da981"/>
        <path id="路径_5654" data-name="路径 5654" d="M2777.835,1230.8a4.44,4.44,0,0,1,.545.292,3.668,3.668,0,0,0,.527.244,4.766,4.766,0,0,0,.544.249c0-.021.082-.034-.076-.143-.19-.131-.653-.323-.917-.536-.15-.121-.479-.355-.479-.355a3.864,3.864,0,0,1-.415-.477c.093-.178.472.045.655.235a2.973,2.973,0,0,1,.517.32s.8.37.85.26a10.015,10.015,0,0,0-.854-.678c-.383-.323-.719-.709-.667-.792.086-.14.549.174.549.174s.313.237.422.308c.129.083.533.3.533.3a7.413,7.413,0,0,0,1.48.6.746.746,0,0,0-.046-.5,2.67,2.67,0,0,0-.356-.214c-.115-.074-.294-.261-.211-.356s.762.158.762.158a1.778,1.778,0,0,1,.583.431,2.29,2.29,0,0,1,.542,1.027,21.708,21.708,0,0,0,2.12.865s6.07,1.506,6.395,1.614l-.807,2.448c-.374-.052-7.167-2.773-7.856-3.1,0,0-.958-.089-1.558-.165a5.271,5.271,0,0,1-1.309-.457,5.557,5.557,0,0,1-1.185-.6c-.53-.35.128-.253.128-.253s1.094.478,1.115.387c.016-.07-.6-.3-1.186-.677-.152-.1-.3-.2-.437-.286C2777.383,1230.894,2777.422,1230.613,2777.835,1230.8Z" transform="translate(-2754.949 -1198.391)" fill="#f8a492"/>
        <path id="路径_5655" data-name="路径 5655" d="M2834.256,1156.572a3.106,3.106,0,0,1,1.9,1.4c.88,1.263,2.821,6.708,3.427,8.792.612,2.1.3,3.274-1.076,3.618s-8.742-2.333-8.742-2.333l.689-2.526s4.879,1.079,5.052,1l-1.531-2.641S2832.777,1159.608,2834.256,1156.572Z" transform="translate(-2802.259 -1132.486)" fill="#54c295"/>
      </g>
      <path id="路径_5656" data-name="路径 5656" d="M2805.585,1111.44s.989.323,1.069.686a1.35,1.35,0,0,1-.525,1.291,1.825,1.825,0,0,1-1.8-.067,1.711,1.711,0,0,1-.215-1.688C2804.395,1111.138,2805.585,1111.44,2805.585,1111.44Z" transform="translate(-2778.919 -1091.557)" fill="#1e2b5f"/>
      <path id="路径_5657" data-name="路径 5657" d="M2811.406,1117.044s-.006.4-.141.478a1.253,1.253,0,0,1-.451.145.646.646,0,0,1-.6-.274.489.489,0,0,1-.035-.058,1.8,1.8,0,0,1-.121-.558,2.189,2.189,0,0,1,.659-.061A2.766,2.766,0,0,1,2811.406,1117.044Z" transform="translate(-2784.417 -1096.401)" fill="#f7a491"/>
    </g>
    <g id="组_3120" data-name="组 3120" transform="translate(1352.953 637.357)">
      <path id="路径_5658" data-name="路径 5658" d="M1850.319,1608.047H1799.8a3.324,3.324,0,0,1-3.494-3.123v-1.857a3.324,3.324,0,0,1,3.494-3.123h50.52a5.536,5.536,0,0,0-.093,8.008Z" transform="translate(-1796.294 -1539.053)" fill="#91deaa"/>
      <path id="路径_5659" data-name="路径 5659" d="M2021.737,1609.225a3.07,3.07,0,0,0-3.124,3.012h0a3.07,3.07,0,0,0,3.124,3.012h28.844a6.214,6.214,0,0,1,.209-6.024Z" transform="translate(-1997.509 -1547.454)" fill="#f5fff5"/>
      <g id="组_3116" data-name="组 3116" transform="translate(12.638 45.65)">
        <rect id="矩形_1915" data-name="矩形 1915" width="18.707" height="3.099" rx="1.549" transform="translate(10.073 5.194)" fill="#f5fff5"/>
        <path id="路径_5660" data-name="路径 5660" d="M1953.984,1527.471l.145-.212-10-.326v5.056l10.206-.462-.437-.464A2.617,2.617,0,0,1,1953.984,1527.471Z" transform="translate(-1942.733 -1518.619)" fill="#1e2b5f"/>
        <path id="矩形_1916" data-name="矩形 1916" d="M.969,0H27.016A2.883,2.883,0,0,1,29.9,2.883v0a0,0,0,0,1,0,0H0a0,0,0,0,1,0,0V.969A.969.969,0,0,1,.969,0Z" transform="translate(1.037 12.418)" fill="#1e3877"/>
        <path id="路径_5661" data-name="路径 5661" d="M1956.328,1439.369l-24.941,6.042c-3.012.83-1.875,4.07-1.345,4.07l29.635-3.917C1959.678,1444.263,1960.118,1438.693,1956.328,1439.369Z" transform="translate(-1929.386 -1439.312)" fill="#1e3877"/>
      </g>
      <path id="路径_5662" data-name="路径 5662" d="M2034.392,1443.926s-.172,2.038-.173,2.042c-.05.258-.235.894-.241,1.129-.024.885,3.959-.642,3.087-1.059-.079-.038-.49-.318-.508-.62-.028-.465-.1-1.407-.1-1.407Z" transform="translate(-2011.416 -1397.839)" fill="#f7a491"/>
      <path id="路径_5663" data-name="路径 5663" d="M2035.408,1465.038a14.248,14.248,0,0,1-1.407.3c-.475.054-1.084-.533-1.423-.388-.373.159-.42,2.216-.42,2.216s4.8-.808,6.209-1.219C2038.925,1465.784,2037.77,1465.277,2035.408,1465.038Z" transform="translate(-2009.769 -1416.847)" fill="#fc716e"/>
      <path id="路径_5664" data-name="路径 5664" d="M1883.264,1564.314s-.116,2.042-.116,2.046c-.042.259-.21.9-.21,1.135,0,.885,3.94-.752,3.057-1.144-.08-.036-.623-.5-.649-.806-.041-.464-.019-1.2-.019-1.2Z" transform="translate(-1874.707 -1506.804)" fill="#f7a491"/>
      <path id="路径_5665" data-name="路径 5665" d="M1884.377,1585.356a14.252,14.252,0,0,1-1.4.339c-.474.068-1.1-.5-1.433-.348-.369.169-.384,1.7-.384,1.7s5.643.315,6.884-.045C1888.6,1586.835,1886.267,1585.987,1884.377,1585.356Z" transform="translate(-1873.099 -1525.816)" fill="#fc716e"/>
      <path id="路径_5666" data-name="路径 5666" d="M1893.942,1229.208l3.179,1.22s11.131,1.271,11.894,2.474c1.264,1.995-1.881,17.264-1.881,17.264H1904.4l.26-10.808.589-2.446c-.844-.239-14.422.58-14.422.58Z" transform="translate(-1881.851 -1203.494)" fill="#2da981"/>
      <path id="路径_5667" data-name="路径 5667" d="M1880.6,1237.993l-.794,16.367-3.039,15.257-2.8-.016a69.652,69.652,0,0,1,.226-9.16c.259-3.081.725-3.351.7-6.833-.028-3.87-1.565-8.363-1.673-9.927-.027-.387-.653-4.4-.409-4.648C1874.659,1237.125,1880.6,1237.993,1880.6,1237.993Z" transform="translate(-1865.494 -1211.266)" fill="#54c295"/>
      <path id="路径_5668" data-name="路径 5668" d="M1914.611,1044.771c-.024-.332-3.245.54-3.6.565a3.088,3.088,0,0,0-1.231.853c-.583.092-6.758,1-7.057,1.024l-8.926-.243.224,3.354s7.646-.313,7.977-.27c.3.04,6.487-1.564,8.017-1.943h0s2.312-.4,2.494-.86-.2-1.243-.036-1.444S1914.635,1045.1,1914.611,1044.771Z" transform="translate(-1884.54 -1036.488)" fill="#f7a491"/>
      <path id="路径_5669" data-name="路径 5669" d="M1896.548,1065.517l-6.458-.109.819,3.848s3.649-.109,5.958-.152A10.144,10.144,0,0,1,1896.548,1065.517Z" transform="translate(-1881.181 -1055.235)" fill="#ffd19d"/>
      <path id="路径_5670" data-name="路径 5670" d="M1821.22,1065.521a7.363,7.363,0,0,1,2.016-.053c.691.18,3.494,2.793,5.057,12.805a33.262,33.262,0,0,0,1.027,3.9s-5.068,1.75-8,1.76a25.759,25.759,0,0,0-.737-4.243c-.417-1.046-4.8-10.893-4.654-11.63.055-.273,1.633-1.082,2.081-1.384A10.769,10.769,0,0,1,1821.22,1065.521Z" transform="translate(-1814.049 -1055.235)" fill="#f5fff5"/>
      <path id="路径_5671" data-name="路径 5671" d="M1832.481,1033.792l1.1,2.977s.4,1.537-.685,1.689a4.609,4.609,0,0,1-2.31-.554,30.939,30.939,0,0,0-.67-3.879C1829.606,1033.178,1832.481,1033.792,1832.481,1033.792Z" transform="translate(-1826.695 -1026.424)" fill="#f7a491"/>
      <path id="路径_5672" data-name="路径 5672" d="M1833.089,1035.433l-.609-1.647s-2.876-.616-2.564.233c.026.071.172.558.174.565A2.849,2.849,0,0,0,1833.089,1035.433Z" transform="translate(-1826.694 -1026.418)" fill="#f47458"/>
      <g id="组_3117" data-name="组 3117" transform="translate(0.827 0.536)">
        <path id="路径_5673" data-name="路径 5673" d="M1824.828,981.378s1.644-1.584,3.029-.482c.9.716,1.137,2.6.983,4.063a.8.8,0,0,0-.151-.01.638.638,0,0,0-.671.594.618.618,0,0,0,.591.557,1.692,1.692,0,0,1-.317.6c-.693.745-2.482.317-3.354-.727S1824.76,981.349,1824.828,981.378Z" transform="translate(-1822.642 -978.924)" fill="#f7a491"/>
        <path id="路径_5674" data-name="路径 5674" d="M1809.677,963.85a4.019,4.019,0,0,0-2.171,1.072,2.625,2.625,0,0,0-1.99,1.4,2.966,2.966,0,0,0,.239,3.91,18.293,18.293,0,0,1,1.837,1.879s-.147-1.353-.219-1.743a3.59,3.59,0,0,0-.127-.67c-.215-.536.715-1.3.956-1.722a4.69,4.69,0,0,0,.2-1.389,3.677,3.677,0,0,1,1.972-.5C1811.076,966.283,1811.124,963.641,1809.677,963.85Z" transform="translate(-1804.902 -963.838)" fill="#1e2b5f"/>
        <path id="路径_5675" data-name="路径 5675" d="M1825.421,1011.886c-.018.44-.239.789-.5.779s-.449-.375-.431-.816.239-.789.5-.779S1825.439,1011.446,1825.421,1011.886Z" transform="translate(-1822.634 -1006.589)" fill="#f7a491"/>
      </g>
      <g id="组_3119" data-name="组 3119">
        <path id="路径_5676" data-name="路径 5676" d="M1821.561,1053.637s5.169,2,5.288,1.962c.174-.056.662-3.494.008-4.741a7.492,7.492,0,0,1-.589-2.5s2.279.284,2.5,1.641a3,3,0,0,1-.13,1.39,33.7,33.7,0,0,1,1.135,6.854c-.015,2.472-10.191-.939-10.191-.939Z" transform="translate(-1817.358 -1039.799)" fill="#f7a491"/>
        <path id="路径_5677" data-name="路径 5677" d="M1797.406,1094.857a2.926,2.926,0,0,1-.915-3.6c.431-.92,1.9-.967,2.562-.837,1.362.267,3.366,1.243,5.19,1.817-.315.645-1.679,4.24-2.064,4.684A10.428,10.428,0,0,1,1797.406,1094.857Z" transform="translate(-1796.191 -1077.821)" fill="#ffd19d"/>
        <g id="组_3118" data-name="组 3118" transform="translate(6.886)">
          <path id="路径_5678" data-name="路径 5678" d="M1869.428,1015.745l-.375.214a.572.572,0,0,0-.272.627l.1.436a.571.571,0,0,0,.6.438l.444-.037Z" transform="translate(-1868.766 -1010.284)" fill="#fc716e"/>
          <path id="路径_5679" data-name="路径 5679" d="M1887.509,1031.026l.557.26.172.431a20.941,20.941,0,0,0,1.669,2.959c.4.341,1.329-.13,1.348-.35a9.634,9.634,0,0,0-1.016-1.664l-.193-1.43.406-.575Z" transform="translate(-1885.731 -1023.782)" fill="#1e2b5f"/>
          <path id="路径_5680" data-name="路径 5680" d="M1878.445,996.381l-3.575,1.327a.679.679,0,0,0-.419.815l.362,1.328a.679.679,0,0,0,.749.494l3.707-.516Z" transform="translate(-1873.889 -992.758)" fill="#fc716e"/>
          <path id="路径_5681" data-name="路径 5681" d="M1916.056,961.694l.824,3.631a.568.568,0,0,0,.588.441l6.949-.249-1.187-7.325-6.839,2.852A.568.568,0,0,0,1916.056,961.694Z" transform="translate(-1911.556 -958.192)" fill="#fc716e"/>
          <path id="路径_5682" data-name="路径 5682" d="M1984.894,962.076c.362,2.008.078,3.74-.634,3.869s-1.583-1.4-1.945-3.4-.078-3.74.634-3.869S1984.532,960.068,1984.894,962.076Z" transform="translate(-1971.398 -958.62)" fill="#1e2b5f"/>
          <path id="路径_5683" data-name="路径 5683" d="M1988.78,970.106a5.173,5.173,0,0,1-1.293-2.97c-.356-1.977.006-3.207.24-3.3h0a.283.283,0,0,1,.079.037,5.173,5.173,0,0,1,1.293,2.97c.356,1.977-.006,3.207-.24,3.3h0A.279.279,0,0,1,1988.78,970.106Z" transform="translate(-1976.086 -963.302)" fill="#f5fff5"/>
        </g>
        <path id="路径_5684" data-name="路径 5684" d="M1890.09,1040.086a1.685,1.685,0,0,1,1.334-.866c.868,0,1.09-.04,1.312.606s.637.8.444.989l-.193.193s-1.328.082-1.328.732v.65l.058.383Z" transform="translate(-1881.181 -1031.532)" fill="#f7a491"/>
      </g>
    </g>
    <g id="组_3127" data-name="组 3127" transform="translate(1318.848 640.895)">
      <g id="组_3123" data-name="组 3123" transform="translate(19.266)">
        <g id="组_3122" data-name="组 3122">
          <g id="组_3121" data-name="组 3121" transform="translate(0 1.45)">
            <path id="路径_5685" data-name="路径 5685" d="M1642.741,1646.478l-.146,2.242a1.362,1.362,0,0,1-1.456,1.261l-.077-.005a1.362,1.362,0,0,1-1.261-1.456l.146-2.242Z" transform="translate(-1639.798 -1585.979)" fill="#91deaa"/>
            <path id="路径_5686" data-name="路径 5686" d="M1646.3,1650.711a1.355,1.355,0,0,0,.648.219l.077.005a1.362,1.362,0,0,0,1.456-1.261l.146-2.242-1.4-.1-.146,2.242A1.36,1.36,0,0,1,1646.3,1650.711Z" transform="translate(-1645.685 -1586.933)" fill="#54c295" style="mix-blend-mode: multiply;isolation: isolate"/>
            <path id="路径_5687" data-name="路径 5687" d="M1647.873,1032.535l-3.705,57.2-2.794-.2,3.705-57.2,1.472-1.166Z" transform="translate(-1641.224 -1029.232)" fill="#ff8b88"/>
            <path id="路径_5688" data-name="路径 5688" d="M1659.8,1044.514l-3.705,57.2,1.4.1,3.705-57.2Z" transform="translate(-1654.55 -1041.311)" fill="#fc716e"/>
            <path id="路径_5689" data-name="路径 5689" d="M1682.478,1010.822l.739,3.241c-.239.886-1.074,1-1.6-.129-.315-.671-1.034,1.308-1.192-.071l1.193-3.1Z" transform="translate(-1676.568 -1010.76)" fill="#ffd19d"/>
            <rect id="矩形_1917" data-name="矩形 1917" width="0.795" height="3.061" rx="0.397" transform="translate(0 60.571) rotate(-85.906)" fill="#f5fff5"/>
          </g>
          <path id="路径_5690" data-name="路径 5690" d="M1693.665,995.611l.189,1.383q-.315.371-.863-.062l.384-1.342a.149.149,0,0,1,.154-.108h0A.149.149,0,0,1,1693.665,995.611Z" transform="translate(-1687.944 -995.482)" fill="#ff8b88"/>
        </g>
      </g>
      <g id="组_3126" data-name="组 3126" transform="translate(0 5.03)">
        <g id="组_3124" data-name="组 3124" transform="translate(2.96 13.555)">
          <path id="路径_5691" data-name="路径 5691" d="M1470.207,1209.384s-.072-.354-.087-.473c-.018-.14-.037-.563-.037-.563a6.619,6.619,0,0,1,.109-1.469c.109.009.251.262.283.354s.078.195.11.286a.188.188,0,0,0,.242.111c.116-.032.068-.423.024-.555a15.333,15.333,0,0,0-.78-1.547c-.068-.131.4-2.695.495-3.586h0c.193-1.454.465-2.939.486-3.093l2.59-5.724-1.729-1.765s-2.963,6.312-3.075,6.644c-.053.158-.241,3.563-.239,3.563.013,1.682.03,3.165.024,3.45,0,0-.244.848-.431,1.379a4.859,4.859,0,0,0-.176,1.252,3.628,3.628,0,0,0-.046,1.23c.078.578.271-.009.271-.009a4.517,4.517,0,0,1,.136-1.082c.067.014,0,.613.083,1.254.021.165.041.328.062.477.053.392.311.468.321.049a3.914,3.914,0,0,0-.022-.569,3.28,3.28,0,0,1,.011-.535,4.278,4.278,0,0,1,.015-.552c.017.009.063-.055.091.12.033.209,0,.671.075.975.041.172.1.538.1.538a3.709,3.709,0,0,0,.2.579c.192-.008.192-.459.105-.686a2.631,2.631,0,0,0-.058-.556s.018-.811.134-.812c.095,0,.428,1.946.62,1.924C1470.281,1209.974,1470.207,1209.384,1470.207,1209.384Z" transform="translate(-1467.939 -1191.359)" fill="#f7a491"/>
        </g>
        <path id="路径_5692" data-name="路径 5692" d="M1489.24,1167.623a12.294,12.294,0,0,1-1.645-.4c-.76-.283-1.26-.531-1.26-.531a35.149,35.149,0,0,1,1.876-5.74c.43-.9.865-1.329,1.472-1.433a3.3,3.3,0,0,1,1.229,2.865C1490.9,1162.862,1489.24,1167.623,1489.24,1167.623Z" transform="translate(-1481.63 -1148.986)" fill="#54c295"/>
        <g id="组_3125" data-name="组 3125">
          <path id="路径_5693" data-name="路径 5693" d="M1551.778,1371.4l1.393,12.814a19.2,19.2,0,0,0-.6,3.48c.082.77,1.514,10.869,1.514,10.869l-.06.567,0,1.673h5.315a23.744,23.744,0,0,1-2.706-1.548,1.124,1.124,0,0,1-.451-.8c-.421-3.113.412-13.5.412-13.5l.657-13.516Z" transform="translate(-1540.863 -1340.766)" fill="#f7a491"/>
          <path id="路径_5694" data-name="路径 5694" d="M1469.468,1399.813c-.3.078-.762,11.1-1.011,11.585-1.576,3.1-1.95,12.509-1.95,12.509l-.458,1.34-.49,1.644a4.023,4.023,0,0,0,2.4-.038l-.092-1.62-.084-1.482,3.976-11.727,2.176-11.961Z" transform="translate(-1462.824 -1366.479)" fill="#f7a491"/>
          <path id="路径_5695" data-name="路径 5695" d="M1515.682,1141.369a5.626,5.626,0,0,0-7.8-3.207l0,.616a33.142,33.142,0,0,0,1.058,8.158,22.2,22.2,0,0,1,.884,4.552l.013.013a3.817,3.817,0,0,0,5.683-.281h0a33.849,33.849,0,0,1,.223-3.774C1516.1,1144.625,1517.275,1143.611,1515.682,1141.369Z" transform="translate(-1501.131 -1129.379)" fill="#91deaa"/>
          <path id="路径_5696" data-name="路径 5696" d="M1541.325,1102.047a15.022,15.022,0,0,1-.086,2.532c-.16.7-.374.749,1,.961.54.083,1.061.207,1.061.207s-.141-1.022-.163-1.454c-.035-.711.159-2.905.159-2.905Z" transform="translate(-1531.218 -1096.369)" fill="#f7a491"/>
          <path id="路径_5697" data-name="路径 5697" d="M1545.18,1102.961a2.416,2.416,0,0,0,.791.289c.047-.867.135-1.862.135-1.862l-1.882.629A2.506,2.506,0,0,0,1545.18,1102.961Z" transform="translate(-1534.025 -1096.369)" fill="#f47458"/>
          <path id="路径_5698" data-name="路径 5698" d="M1533.477,1053.5a2.4,2.4,0,0,0-1.22,1.143c-.434.865-.6,3.3,1.114,4.249a2.155,2.155,0,0,0,2.282.146c.469-.423.412-1.362.365-2.143C1535.925,1055.351,1535.585,1053.009,1533.477,1053.5Z" transform="translate(-1522.933 -1052.966)" fill="#f7a491"/>
          <path id="路径_5699" data-name="路径 5699" d="M1525.41,1080.517c.1.406-.032.8-.289.875s-.544-.189-.641-.6.032-.8.289-.875S1525.313,1080.11,1525.41,1080.517Z" transform="translate(-1516.126 -1076.927)" fill="#f7a491"/>
          <path id="路径_5700" data-name="路径 5700" d="M1467.734,1667.642a2.547,2.547,0,0,1-1.817.021l-.5,1.65a3.955,3.955,0,0,0,2.41,0Z" transform="translate(-1462.693 -1608.896)" fill="#1e2b5f"/>
          <path id="路径_5701" data-name="路径 5701" d="M1497.14,1468.779s0,0,0,0Z" transform="translate(-1491.409 -1428.901)" fill="#f47458"/>
          <path id="路径_5702" data-name="路径 5702" d="M1574.272,1665.718h5.525c.2-.019.254-.191.183-.3a6.606,6.606,0,0,0-1.515-.726,8.664,8.664,0,0,1-4.138-1.069A6.565,6.565,0,0,0,1574.272,1665.718Z" transform="translate(-1561.166 -1605.261)" fill="#1e2b5f"/>
          <path id="路径_5703" data-name="路径 5703" d="M1572.4,1198.757c.107-.149.465-.877.465-.877a7.524,7.524,0,0,0,.294-1.23,1.388,1.388,0,0,0-.38.564c-.111.23-.232.634-.347.834-.2.35-.426.5-.371.361.041-.1.178-.179.3-.389.3-.51.556-1.345.443-1.328a7.636,7.636,0,0,0-.7,1.037,3.258,3.258,0,0,1-.775.594,1.065,1.065,0,0,1,.05-.274c.031-.1.47-.68.3-.753s-1.216,1.187-1.216,1.187l-.429.731-.038.028h0s-5.211,2.043-5.386,1.988c-.41-.13-1.81-4.189-1.81-4.189l-2.916.526c-.042-.023,3.065,6.042,3.645,6.339.509.261,5.926-2.561,6.943-3.165a4.381,4.381,0,0,0,2.176-1.509c.122-.177.592-.944.592-.944a5.021,5.021,0,0,0,.024-1.072c-.257-.031-.328.97-.328.97s-.348.473-.408.535C1572.375,1198.876,1572.4,1198.757,1572.4,1198.757Z" transform="translate(-1548.197 -1182.593)" fill="#f8a492"/>
          <path id="路径_5704" data-name="路径 5704" d="M1539.578,1147.776c-.4,1.687,1.724,5.447,1.724,5.447a20.354,20.354,0,0,0,3.555-2.1s-2.085-3.442-2.215-3.667c-.279-.485-1.259-1.489-1.919-1.3C1540.3,1146.268,1539.578,1147.776,1539.578,1147.776Z" transform="translate(-1529.776 -1136.864)" fill="#54c295"/>
          <path id="路径_5705" data-name="路径 5705" d="M1447.025,1055.247c.226-1.547,2.792-4.7,1.8-6.017-.8-1.066-2.2-.747-3.091-.441-4.04,1.39-3.808,6.469-5.083,7.263-2.312,1.44-3.734,2.337-3.9,5.581-.2,3.848,3.07,5.813,7,4.871,2.113-.506,2.673-1.2,3.521-3.193a13.372,13.372,0,0,0,.941-5.076C1448.023,1057.008,1446.843,1056.493,1447.025,1055.247Z" transform="translate(-1436.742 -1048.493)" fill="#1e2b5f"/>
          <path id="路径_5706" data-name="路径 5706" d="M1554.216,1081.868c0,.458-.166.83-.371.83s-.371-.371-.371-.83.166-.829.371-.829S1554.216,1081.41,1554.216,1081.868Z" transform="translate(-1542.397 -1077.951)" fill="#f7a491"/>
          <path id="路径_5707" data-name="路径 5707" d="M1508.257,1295.81l.189-7.6a15.046,15.046,0,0,0-1.245-6.234l-1.437-3.3a8.688,8.688,0,0,1-1.74.423,16.943,16.943,0,0,1-3.956-.155,1.027,1.027,0,0,1-.018.135c-.24,1.12-1.575,3.615-2.138,7.027a71.787,71.787,0,0,0-.8,10.119C1503.22,1296.5,1504.675,1296.722,1508.257,1295.81Z" transform="translate(-1491.373 -1256.836)" fill="#1e2b5f"/>
        </g>
      </g>
    </g>
  </g>
</svg>
