<svg xmlns="http://www.w3.org/2000/svg" width="17.321" height="17.321" viewBox="0 0 17.321 17.321">
  <g id="choice" transform="translate(-184.175 -719.735)">
    <path id="路径_72" data-name="路径 72" d="M249.035,745.656a.508.508,0,0,0,.765-.054l1.631-2.174a.508.508,0,0,0-.812-.609l-1.279,1.706-.673-.673a.508.508,0,0,0-.718.718Z" transform="translate(-56.83 -20.435)" fill="#fff" fill-rule="evenodd"/>
    <path id="路径_73" data-name="路径 73" d="M199.791,804.893a2.138,2.138,0,1,0-3.04,0,3.254,3.254,0,0,0-1.2,1.108,3.253,3.253,0,0,0-1.2-1.108,2.138,2.138,0,1,0-3.04,0,3.247,3.247,0,0,0-1.2,1.108,3.259,3.259,0,0,0-1.2-1.108,2.138,2.138,0,1,0-3.04,0,3.223,3.223,0,0,0-1.705,2.846v1.631a.507.507,0,0,0,.507.507h16.307a.507.507,0,0,0,.507-.507v-1.631a3.222,3.222,0,0,0-1.705-2.846Zm-2.643-1.5a1.123,1.123,0,1,1,1.123,1.123,1.124,1.124,0,0,1-1.123-1.123Zm-5.435,0a1.123,1.123,0,1,1,1.123,1.123,1.125,1.125,0,0,1-1.123-1.123Zm-5.436,0a1.123,1.123,0,1,1,1.123,1.123,1.125,1.125,0,0,1-1.123-1.123Zm-1.087,4.348a2.21,2.21,0,0,1,4.421,0v1.124H185.19v-1.124Zm5.435,0a2.21,2.21,0,0,1,4.421,0v1.124h-4.421v-1.124Zm9.856,1.124h-4.42v-1.124a2.21,2.21,0,0,1,4.42,0Z" transform="translate(0 -72.821)" fill="#fff" fill-rule="evenodd"/>
    <path id="路径_74" data-name="路径 74" d="M231.525,719.735a4.041,4.041,0,1,0,4.041,4.041,4.04,4.04,0,0,0-4.041-4.041Zm0,7.066a3.026,3.026,0,1,1,3.026-3.026A3.026,3.026,0,0,1,231.525,726.8Z" transform="translate(-38.689)" fill="#fff" fill-rule="evenodd"/>
  </g>
</svg>
