<svg xmlns="http://www.w3.org/2000/svg" width="187.856" height="112.118" viewBox="0 0 187.856 112.118">
  <g id="CourseApplication2" transform="translate(-27.122 -53.563)">
    <g id="组_5386" data-name="组 5386" transform="translate(70.654 59.053)">
      <g id="组_5362" data-name="组 5362" transform="translate(0 0)">
        <rect id="矩形_2540" data-name="矩形 2540" width="71.853" height="98.07" transform="translate(2.373 1.942)" fill="#a3a3a3" style="mix-blend-mode: multiply;isolation: isolate"/>
        <rect id="矩形_2541" data-name="矩形 2541" width="71.853" height="98.069" fill="#fff"/>
        <g id="组_5361" data-name="组 5361" transform="translate(5.069 8.251)">
          <rect id="矩形_2542" data-name="矩形 2542" width="61.715" height="1.51" fill="#bababa"/>
          <rect id="矩形_2543" data-name="矩形 2543" width="61.715" height="1.51" transform="translate(0 3.776)" fill="#bababa"/>
          <rect id="矩形_2544" data-name="矩形 2544" width="61.715" height="1.51" transform="translate(0 19.329)" fill="#bababa"/>
          <rect id="矩形_2545" data-name="矩形 2545" width="61.715" height="1.511" transform="translate(0 23.105)" fill="#bababa"/>
          <rect id="矩形_2546" data-name="矩形 2546" width="26.237" height="1.51" transform="translate(0 27.62)" fill="#bababa"/>
          <rect id="矩形_2547" data-name="矩形 2547" width="26.237" height="1.511" transform="translate(0 31.396)" fill="#bababa"/>
          <rect id="矩形_2548" data-name="矩形 2548" width="13.157" height="1.511" transform="translate(48.558 27.351)" fill="#bababa"/>
          <rect id="矩形_2549" data-name="矩形 2549" width="13.157" height="1.511" transform="translate(48.558 31.127)" fill="#bababa"/>
          <rect id="矩形_2550" data-name="矩形 2550" width="26.237" height="1.51" transform="translate(0 35.785)" fill="#bababa"/>
          <rect id="矩形_2551" data-name="矩形 2551" width="26.237" height="1.511" transform="translate(0 39.56)" fill="#bababa"/>
          <rect id="矩形_2552" data-name="矩形 2552" width="13.157" height="1.511" transform="translate(48.558 35.515)" fill="#bababa"/>
          <rect id="矩形_2553" data-name="矩形 2553" width="13.157" height="1.51" transform="translate(48.558 39.291)" fill="#bababa"/>
          <rect id="矩形_2554" data-name="矩形 2554" width="26.237" height="1.51" transform="translate(0 43.949)" fill="#bababa"/>
          <rect id="矩形_2555" data-name="矩形 2555" width="26.237" height="1.51" transform="translate(0 47.725)" fill="#bababa"/>
          <rect id="矩形_2556" data-name="矩形 2556" width="13.157" height="1.511" transform="translate(48.558 43.679)" fill="#bababa"/>
          <rect id="矩形_2557" data-name="矩形 2557" width="13.157" height="1.511" transform="translate(48.558 47.455)" fill="#bababa"/>
          <rect id="矩形_2558" data-name="矩形 2558" width="26.237" height="1.511" transform="translate(0 52.112)" fill="#bababa"/>
          <rect id="矩形_2559" data-name="矩形 2559" width="26.237" height="1.511" transform="translate(0 55.889)" fill="#bababa"/>
          <rect id="矩形_2560" data-name="矩形 2560" width="13.157" height="1.511" transform="translate(48.558 51.843)" fill="#bababa"/>
          <rect id="矩形_2561" data-name="矩形 2561" width="13.157" height="1.511" transform="translate(48.558 55.619)" fill="#bababa"/>
          <rect id="矩形_2562" data-name="矩形 2562" width="26.237" height="1.511" transform="translate(0 60.276)" fill="#bababa"/>
          <rect id="矩形_2563" data-name="矩形 2563" width="26.237" height="1.511" transform="translate(0 64.052)" fill="#bababa"/>
          <rect id="矩形_2564" data-name="矩形 2564" width="13.157" height="1.51" transform="translate(48.558 60.007)" fill="#bababa"/>
          <rect id="矩形_2565" data-name="矩形 2565" width="13.157" height="1.511" transform="translate(48.558 63.783)" fill="#bababa"/>
          <rect id="矩形_2566" data-name="矩形 2566" width="26.237" height="1.51" transform="translate(0 68.441)" fill="#bababa"/>
          <rect id="矩形_2567" data-name="矩形 2567" width="26.237" height="1.511" transform="translate(0 72.217)" fill="#bababa"/>
          <rect id="矩形_2568" data-name="矩形 2568" width="13.157" height="1.511" transform="translate(48.558 68.171)" fill="#bababa"/>
          <rect id="矩形_2569" data-name="矩形 2569" width="13.157" height="1.511" transform="translate(48.558 71.947)" fill="#bababa"/>
          <rect id="矩形_2570" data-name="矩形 2570" width="25.552" height="1.511" transform="translate(36.163 80.057)" fill="#bababa"/>
        </g>
      </g>
      <g id="组_5378" data-name="组 5378" transform="translate(51.925 25.318)">
        <rect id="矩形_2571" data-name="矩形 2571" width="83.879" height="41.067" transform="matrix(0.825, -0.566, 0.566, 0.825, 0, 47.444)" fill="#4c773f"/>
        <path id="路径_10748" data-name="路径 10748" d="M279.234,198.34l-45.943,81.31,69.172-47.444" transform="translate(-210.063 -198.34)" fill="#4c773f" opacity="0.4" style="mix-blend-mode: multiply;isolation: isolate"/>
        <path id="路径_10749" data-name="路径 10749" d="M278.76,244.361a3.406,3.406,0,0,1,.631-4.99l-13.991-20.4c-.06.046-.117.093-.181.138a3.382,3.382,0,0,1-4.848-.949l-54.886,37.646a3.379,3.379,0,0,1-.861,4.865c-.066.045-.133.082-.2.123l14.092,20.546a3.616,3.616,0,0,1,4.741,1.073l.007.009Z" transform="translate(-194.197 -209.235)" fill="#757474" style="mix-blend-mode: multiply;isolation: isolate"/>
        <path id="路径_10750" data-name="路径 10750" d="M275.076,243.675a3.406,3.406,0,0,1,.631-4.989l-13.99-20.4c-.061.046-.117.094-.181.138a3.382,3.382,0,0,1-4.849-.949L201.8,255.123a3.381,3.381,0,0,1-.861,4.864c-.066.045-.133.081-.2.123l14.092,20.547a3.615,3.615,0,0,1,4.741,1.072l.007.009Z" transform="translate(-192.172 -208.858)" fill="#b2d092"/>
        <g id="组_5367" data-name="组 5367" transform="translate(30.52 25.04)">
          <path id="路径_10751" data-name="路径 10751" d="M277.947,260.714a15.6,15.6,0,1,1-21.688-4.04A15.6,15.6,0,0,1,277.947,260.714Z" transform="translate(-249.482 -253.937)" fill="#4c773f"/>
          <path id="路径_10752" data-name="路径 10752" d="M278.529,263.347a14.125,14.125,0,1,1-19.637-3.659A14.125,14.125,0,0,1,278.529,263.347Z" transform="translate(-251.281 -255.736)" fill="#3f6335"/>
          <g id="组_5364" data-name="组 5364" transform="translate(6.924 3.798)" style="mix-blend-mode: multiply;isolation: isolate">
            <g id="组_5363" data-name="组 5363">
              <path id="路径_10753" data-name="路径 10753" d="M278.693,280.984l-5.372,3.685-1.72-2.508,5.371-3.685-2.222-3.24-.572.393-.513.352a13.45,13.45,0,0,1-2.174,1.232,4.506,4.506,0,0,1-2.086.306,3.807,3.807,0,0,1-1.916-.762,6.739,6.739,0,0,1-1.548-1.621,6.27,6.27,0,0,1-.965-2.294,3.576,3.576,0,0,1,.043-2.033,6.92,6.92,0,0,1,.585-1.18,6.131,6.131,0,0,1,.826-.956,12.1,12.1,0,0,1,1.575-1.239l.513-.352.435-.3-.868-1.264,1.106-.758.867,1.264,5.333-3.657,1.747,2.548-5.332,3.658,2.33,3.4.829-.569q.671-.461,1.238-.82t1.237-.717a4.571,4.571,0,0,1,1.688-.461,3.31,3.31,0,0,1,1.986.439,6.1,6.1,0,0,1,1.915,1.924,7.008,7.008,0,0,1,.76,1.468,4.927,4.927,0,0,1,.337,1.613,4.349,4.349,0,0,1-.24,1.557,5.306,5.306,0,0,1-1.088,1.588,15.272,15.272,0,0,1-1.735,1.364l-.573.393-.691.474.948,1.383-1.106.758Zm-6.255-7.849.593-.406-2.33-3.4A7.262,7.262,0,0,0,268.8,271.1a1.678,1.678,0,0,0,.183,2.024,1.6,1.6,0,0,0,1.523.887A4.823,4.823,0,0,0,272.438,273.135Zm3.419,1.343,2.221,3.239.455-.311a5.837,5.837,0,0,0,1.781-1.7,1.7,1.7,0,0,0-.287-1.879,1.536,1.536,0,0,0-1.343-.836,3.509,3.509,0,0,0-1.662.689l-.533.366-.356.244Z" transform="translate(-264.855 -262.369)" fill="#757474"/>
            </g>
          </g>
          <g id="组_5366" data-name="组 5366" transform="translate(5.94 4.473)">
            <g id="组_5365" data-name="组 5365">
              <path id="路径_10754" data-name="路径 10754" d="M276.508,282.483l-5.372,3.685-1.72-2.508,5.372-3.684-2.221-3.24-.573.393-.514.352a13.412,13.412,0,0,1-2.174,1.233,4.5,4.5,0,0,1-2.084.3,3.808,3.808,0,0,1-1.916-.762,6.756,6.756,0,0,1-1.547-1.621,6.26,6.26,0,0,1-.964-2.295,3.573,3.573,0,0,1,.043-2.033,6.944,6.944,0,0,1,.586-1.179,6,6,0,0,1,.825-.956,12.17,12.17,0,0,1,1.574-1.239l.514-.352.434-.3-.867-1.264,1.107-.758.867,1.264,5.332-3.657,1.748,2.548-5.332,3.657,2.329,3.4.83-.568q.671-.461,1.239-.82t1.235-.717a4.566,4.566,0,0,1,1.688-.461,3.307,3.307,0,0,1,1.986.439,6.1,6.1,0,0,1,1.915,1.924,7.033,7.033,0,0,1,.76,1.468,4.894,4.894,0,0,1,.337,1.613,4.362,4.362,0,0,1-.239,1.557,5.3,5.3,0,0,1-1.089,1.588,15.328,15.328,0,0,1-1.736,1.365l-.572.392-.691.475.948,1.382-1.106.758Zm-6.254-7.849.592-.406-2.329-3.4a7.278,7.278,0,0,0-1.907,1.772,1.678,1.678,0,0,0,.183,2.024,1.6,1.6,0,0,0,1.523.887A4.83,4.83,0,0,0,270.254,274.634Zm3.418,1.343,2.222,3.239.454-.311a5.843,5.843,0,0,0,1.781-1.7,1.7,1.7,0,0,0-.287-1.879,1.535,1.535,0,0,0-1.342-.836,3.5,3.5,0,0,0-1.662.689l-.533.366-.355.244Z" transform="translate(-262.67 -263.868)" fill="#b2d092"/>
            </g>
          </g>
        </g>
        <g id="组_5372" data-name="组 5372" transform="translate(16.915 47.521)">
          <path id="路径_10755" data-name="路径 10755" d="M233.506,307.243a7.8,7.8,0,1,1-10.845-2.021A7.8,7.8,0,0,1,233.506,307.243Z" transform="translate(-219.273 -303.853)" fill="#4c773f"/>
          <path id="路径_10756" data-name="路径 10756" d="M233.8,308.56a7.063,7.063,0,1,1-9.819-1.83A7.062,7.062,0,0,1,233.8,308.56Z" transform="translate(-220.173 -304.753)" fill="#3f6335"/>
          <g id="组_5369" data-name="组 5369" transform="translate(3.462 1.899)" style="mix-blend-mode: multiply;isolation: isolate">
            <g id="组_5368" data-name="组 5368">
              <path id="路径_10757" data-name="路径 10757" d="M233.881,317.378l-2.686,1.842-.86-1.254,2.686-1.842-1.111-1.62-.286.2-.256.176a6.718,6.718,0,0,1-1.088.617,2.259,2.259,0,0,1-1.043.153,1.91,1.91,0,0,1-.958-.381,3.38,3.38,0,0,1-.774-.811,3.143,3.143,0,0,1-.482-1.147,1.786,1.786,0,0,1,.022-1.017,3.478,3.478,0,0,1,.292-.59,2.964,2.964,0,0,1,.413-.477,6.042,6.042,0,0,1,.787-.62l.257-.176.218-.15-.433-.632.552-.379.434.631,2.666-1.828.874,1.274-2.666,1.829,1.165,1.7.414-.285q.337-.23.619-.41c.189-.119.395-.24.618-.359a2.289,2.289,0,0,1,.844-.23,1.66,1.66,0,0,1,.992.219,3.05,3.05,0,0,1,.958.962,3.5,3.5,0,0,1,.379.734,2.41,2.41,0,0,1,.169.807,2.184,2.184,0,0,1-.119.778,2.672,2.672,0,0,1-.544.794,7.673,7.673,0,0,1-.868.683l-.287.2-.345.237.474.691-.553.379Zm-3.127-3.925.3-.2-1.165-1.7a3.626,3.626,0,0,0-.953.886.838.838,0,0,0,.091,1.012.8.8,0,0,0,.762.443A2.428,2.428,0,0,0,230.753,313.453Zm1.709.672,1.111,1.619.227-.155a2.922,2.922,0,0,0,.891-.85.853.853,0,0,0-.143-.94.771.771,0,0,0-.672-.418,1.749,1.749,0,0,0-.831.345l-.268.183-.178.122Z" transform="translate(-226.961 -308.07)" fill="#757474"/>
            </g>
          </g>
          <g id="组_5371" data-name="组 5371" transform="translate(2.971 2.236)">
            <g id="组_5370" data-name="组 5370">
              <path id="路径_10758" data-name="路径 10758" d="M232.787,318.127,230.1,319.97l-.861-1.254,2.686-1.842-1.111-1.62-.286.2-.257.176a6.743,6.743,0,0,1-1.087.617,2.26,2.26,0,0,1-1.042.153,1.9,1.9,0,0,1-.959-.381,3.387,3.387,0,0,1-.774-.81,3.121,3.121,0,0,1-.481-1.147,1.784,1.784,0,0,1,.021-1.017,3.454,3.454,0,0,1,.293-.59,2.992,2.992,0,0,1,.413-.477,6.089,6.089,0,0,1,.787-.62l.257-.176.218-.149-.434-.632.554-.379.432.632,2.667-1.829.874,1.274-2.666,1.829,1.165,1.7.414-.284c.224-.153.431-.291.619-.41s.395-.241.618-.359a2.293,2.293,0,0,1,.844-.231,1.653,1.653,0,0,1,.993.22,3.058,3.058,0,0,1,.958.962,3.543,3.543,0,0,1,.379.734,2.443,2.443,0,0,1,.169.807,2.161,2.161,0,0,1-.12.778,2.641,2.641,0,0,1-.544.795,7.641,7.641,0,0,1-.867.683l-.286.2-.346.237.474.691-.553.379Zm-3.127-3.925.3-.2-1.165-1.7a3.619,3.619,0,0,0-.953.886.839.839,0,0,0,.091,1.012.8.8,0,0,0,.762.443A2.418,2.418,0,0,0,229.661,314.2Zm1.709.672,1.111,1.62.227-.155a2.932,2.932,0,0,0,.89-.851.851.851,0,0,0-.143-.94.769.769,0,0,0-.672-.418,1.757,1.757,0,0,0-.831.345l-.267.183-.177.122Z" transform="translate(-225.869 -308.819)" fill="#b2d092"/>
            </g>
          </g>
        </g>
        <g id="组_5377" data-name="组 5377" transform="translate(59.279 18.465)">
          <path id="路径_10759" data-name="路径 10759" d="M327.568,242.727a7.8,7.8,0,1,1-10.844-2.021A7.8,7.8,0,0,1,327.568,242.727Z" transform="translate(-313.336 -239.338)" fill="#4c773f"/>
          <path id="路径_10760" data-name="路径 10760" d="M327.859,244.044a7.062,7.062,0,1,1-9.819-1.829A7.063,7.063,0,0,1,327.859,244.044Z" transform="translate(-314.235 -240.238)" fill="#3f6335"/>
          <g id="组_5374" data-name="组 5374" transform="translate(3.462 1.899)" style="mix-blend-mode: multiply;isolation: isolate">
            <g id="组_5373" data-name="组 5373">
              <path id="路径_10761" data-name="路径 10761" d="M327.942,252.863l-2.686,1.842-.861-1.255,2.686-1.842-1.111-1.62-.286.2-.257.176a6.74,6.74,0,0,1-1.087.617,2.258,2.258,0,0,1-1.043.152,1.9,1.9,0,0,1-.959-.381,3.408,3.408,0,0,1-.773-.81,3.142,3.142,0,0,1-.482-1.147,1.791,1.791,0,0,1,.021-1.017,3.539,3.539,0,0,1,.292-.59,3.012,3.012,0,0,1,.413-.477,6.115,6.115,0,0,1,.787-.62l.257-.177.217-.149-.434-.631.554-.38.433.632,2.666-1.829.874,1.274-2.666,1.828,1.164,1.7.414-.285q.337-.23.62-.41c.189-.12.395-.24.618-.359a2.277,2.277,0,0,1,.844-.23,1.645,1.645,0,0,1,.992.22,3.043,3.043,0,0,1,.959.962,3.571,3.571,0,0,1,.379.734,2.449,2.449,0,0,1,.169.808,2.147,2.147,0,0,1-.12.778,2.651,2.651,0,0,1-.544.794,7.662,7.662,0,0,1-.867.683l-.287.2-.346.237.474.691-.553.38Zm-3.127-3.925.3-.2-1.165-1.7a3.637,3.637,0,0,0-.953.886.839.839,0,0,0,.091,1.012.8.8,0,0,0,.762.443A2.422,2.422,0,0,0,324.815,248.938Zm1.709.672,1.111,1.62.227-.156a2.925,2.925,0,0,0,.891-.85.852.852,0,0,0-.144-.94.767.767,0,0,0-.671-.418,1.764,1.764,0,0,0-.832.344l-.266.183-.178.121Z" transform="translate(-321.023 -243.555)" fill="#757474"/>
            </g>
          </g>
          <g id="组_5376" data-name="组 5376" transform="translate(2.97 2.237)">
            <g id="组_5375" data-name="组 5375">
              <path id="路径_10762" data-name="路径 10762" d="M326.85,253.612l-2.686,1.842-.86-1.254,2.686-1.842-1.111-1.62-.287.2-.257.177a6.739,6.739,0,0,1-1.087.616,2.257,2.257,0,0,1-1.042.153,1.9,1.9,0,0,1-.958-.381,3.378,3.378,0,0,1-.774-.81,3.129,3.129,0,0,1-.482-1.147,1.785,1.785,0,0,1,.021-1.016,3.537,3.537,0,0,1,.293-.59,2.969,2.969,0,0,1,.413-.477,5.982,5.982,0,0,1,.787-.62l.257-.176.217-.149-.433-.632.553-.379.433.632L325.2,244.3l.873,1.274-2.666,1.828,1.165,1.7.414-.285q.335-.23.619-.41c.19-.12.4-.24.618-.359a2.272,2.272,0,0,1,.844-.23,1.654,1.654,0,0,1,.993.22,3.042,3.042,0,0,1,.957.962,3.54,3.54,0,0,1,.38.734,2.432,2.432,0,0,1,.168.807,2.156,2.156,0,0,1-.118.778,2.681,2.681,0,0,1-.544.794,7.7,7.7,0,0,1-.868.683l-.287.2-.345.237.473.691-.553.38Zm-3.128-3.925.3-.2-1.164-1.7a3.636,3.636,0,0,0-.954.886.839.839,0,0,0,.092,1.012.8.8,0,0,0,.761.444A2.416,2.416,0,0,0,323.721,249.688Zm1.71.671,1.111,1.62.226-.155a2.913,2.913,0,0,0,.892-.851.852.852,0,0,0-.144-.94.768.768,0,0,0-.672-.418,1.752,1.752,0,0,0-.831.344l-.267.183-.179.122Z" transform="translate(-319.93 -244.304)" fill="#b2d092"/>
            </g>
          </g>
        </g>
      </g>
      <g id="组_5385" data-name="组 5385" transform="translate(51.925 -5.49)">
        <path id="路径_10763" data-name="路径 10763" d="M291.508,89.789a22.845,22.845,0,1,1-31.762-5.918A22.847,22.847,0,0,1,291.508,89.789Z" transform="translate(-249.821 -79.864)" fill="#f4af23"/>
        <g id="组_5384" data-name="组 5384" transform="translate(2.725 2.725)">
          <path id="路径_10764" data-name="路径 10764" d="M292.487,94.556a20.12,20.12,0,1,1-27.973-5.212A20.12,20.12,0,0,1,292.487,94.556Z" transform="translate(-255.773 -85.815)" fill="#d86e19"/>
          <path id="路径_10765" data-name="路径 10765" d="M293.17,97.883a18.219,18.219,0,1,1-25.329-4.719A18.22,18.22,0,0,1,293.17,97.883Z" transform="translate(-258.024 -88.066)" fill="#f4af23"/>
          <path id="路径_10766" data-name="路径 10766" d="M293.17,97.883a18.219,18.219,0,1,1-25.329-4.719A18.22,18.22,0,0,1,293.17,97.883Z" transform="translate(-258.024 -88.066)" fill="#f4af23"/>
          <path id="路径_10767" data-name="路径 10767" d="M289.762,116.173a13.156,13.156,0,1,1,3.408-18.29,18.219,18.219,0,1,0-4.719,25.329,18.219,18.219,0,0,0,4.719-25.329A13.156,13.156,0,0,1,289.762,116.173Z" transform="translate(-258.024 -88.066)" fill="#ffd058" style="mix-blend-mode: multiply;isolation: isolate"/>
          <path id="路径_10768" data-name="路径 10768" d="M289.212,119.124a15.277,15.277,0,1,1,3.5-21.877,18.217,18.217,0,1,0,.89,1.3A15.279,15.279,0,0,1,289.212,119.124Z" transform="translate(-258.024 -88.067)" fill="#ffd058" style="mix-blend-mode: multiply;isolation: isolate"/>
          <path id="路径_10769" data-name="路径 10769" d="M313.014,105.53a7.566,7.566,0,1,1-10.518-1.96A7.566,7.566,0,0,1,313.014,105.53Z" transform="translate(-279.317 -94.72)" fill="#fff" style="mix-blend-mode: soft-light;isolation: isolate"/>
          <path id="路径_10770" data-name="路径 10770" d="M313.429,111.675a3.046,3.046,0,1,1-4.235-.788A3.045,3.045,0,0,1,313.429,111.675Z" transform="translate(-284.013 -99.115)" fill="#fff" style="mix-blend-mode: soft-light;isolation: isolate"/>
          <g id="组_5383" data-name="组 5383" transform="translate(9.614 8.255)">
            <g id="组_5380" data-name="组 5380" transform="translate(1.018)" style="mix-blend-mode: multiply;isolation: isolate">
              <g id="组_5379" data-name="组 5379">
                <path id="路径_10771" data-name="路径 10771" d="M293.312,123.108l-5.56,3.813-1.78-2.6,5.56-3.813-2.3-3.352-.594.407-.531.364a13.827,13.827,0,0,1-2.251,1.276,4.659,4.659,0,0,1-2.157.316,3.938,3.938,0,0,1-1.984-.789,7.021,7.021,0,0,1-1.6-1.678,6.479,6.479,0,0,1-1-2.374,3.7,3.7,0,0,1,.044-2.1,7.205,7.205,0,0,1,.605-1.221,6.28,6.28,0,0,1,.855-.989,12.647,12.647,0,0,1,1.629-1.282l.532-.365.45-.308-.9-1.308,1.144-.785.9,1.308,5.519-3.785,1.808,2.637-5.519,3.785,2.412,3.516.859-.589q.695-.477,1.281-.849t1.28-.742a4.716,4.716,0,0,1,1.746-.477,3.427,3.427,0,0,1,2.055.454,6.311,6.311,0,0,1,1.982,1.992,7.281,7.281,0,0,1,.786,1.519,5.073,5.073,0,0,1,.349,1.67,4.5,4.5,0,0,1-.247,1.612,5.492,5.492,0,0,1-1.127,1.645,15.827,15.827,0,0,1-1.8,1.412l-.593.407-.715.491.981,1.432-1.144.785Zm-6.473-8.123.613-.421-2.412-3.516a7.54,7.54,0,0,0-1.973,1.835,1.736,1.736,0,0,0,.19,2.094,1.652,1.652,0,0,0,1.575.918A5.009,5.009,0,0,0,286.839,114.985Zm3.538,1.39,2.3,3.352.47-.322a6.042,6.042,0,0,0,1.843-1.76,1.761,1.761,0,0,0-.3-1.945,1.587,1.587,0,0,0-1.389-.865,3.619,3.619,0,0,0-1.72.713l-.552.378-.368.252Z" transform="translate(-278.99 -103.841)" fill="#757474"/>
              </g>
            </g>
            <g id="组_5382" data-name="组 5382" transform="translate(0 0.698)">
              <g id="组_5381" data-name="组 5381">
                <path id="路径_10772" data-name="路径 10772" d="M291.088,124.633l-5.56,3.814-1.78-2.6,5.56-3.813-2.3-3.352-.592.406-.532.365a13.785,13.785,0,0,1-2.251,1.276,4.655,4.655,0,0,1-2.158.316,3.932,3.932,0,0,1-1.983-.788,7.021,7.021,0,0,1-1.6-1.678,6.473,6.473,0,0,1-1-2.375,3.7,3.7,0,0,1,.044-2.1,7.257,7.257,0,0,1,.606-1.221,6.27,6.27,0,0,1,.854-.989,12.61,12.61,0,0,1,1.631-1.283l.531-.364.449-.308-.9-1.309,1.145-.785.9,1.308,5.519-3.785L289.48,108l-5.519,3.786,2.412,3.515.859-.589q.695-.476,1.281-.848t1.279-.742a4.721,4.721,0,0,1,1.747-.477,3.417,3.417,0,0,1,2.055.454,6.306,6.306,0,0,1,1.982,1.991,7.365,7.365,0,0,1,.787,1.52,5.112,5.112,0,0,1,.349,1.67,4.5,4.5,0,0,1-.247,1.612,5.517,5.517,0,0,1-1.127,1.645,15.851,15.851,0,0,1-1.8,1.411l-.592.407-.715.491.982,1.432-1.145.784Zm-6.473-8.123.613-.42-2.412-3.516a7.508,7.508,0,0,0-1.971,1.835,1.734,1.734,0,0,0,.188,2.095,1.652,1.652,0,0,0,1.576.918A4.994,4.994,0,0,0,284.615,116.51Zm3.538,1.39,2.3,3.353.47-.322a6.049,6.049,0,0,0,1.844-1.76,1.763,1.763,0,0,0-.3-1.946,1.592,1.592,0,0,0-1.39-.865,3.624,3.624,0,0,0-1.72.714l-.551.378-.368.253Z" transform="translate(-276.766 -105.366)" fill="#ffd400"/>
              </g>
            </g>
          </g>
        </g>
      </g>
    </g>
    <g id="组_5387" data-name="组 5387" transform="translate(66.833 69.9) rotate(25)">
      <rect id="矩形_2572" data-name="矩形 2572" width="11.099" height="4.888" transform="translate(12.855 58.754) rotate(-72.201)" fill="#bababa"/>
      <rect id="矩形_2573" data-name="矩形 2573" width="11.099" height="2.186" transform="translate(12.855 58.754) rotate(-72.196)" fill="#bababa" style="mix-blend-mode: multiply;isolation: isolate"/>
      <path id="路径_10773" data-name="路径 10773" d="M110.227,186.623a26.269,26.269,0,1,1-16.981-33.042A26.268,26.268,0,0,1,110.227,186.623Z" transform="translate(-58.939 -152.317)" fill="#006b99"/>
      <path id="路径_10774" data-name="路径 10774" d="M110.745,190.037A21.79,21.79,0,1,1,96.659,162.63,21.789,21.789,0,0,1,110.745,190.037Z" transform="translate(-63.722 -157.1)" fill="#004a69"/>
      <path id="路径_10775" data-name="路径 10775" d="M110.934,191.278A20.16,20.16,0,1,1,97.9,165.92,20.159,20.159,0,0,1,110.934,191.278Z" transform="translate(-65.462 -158.839)" fill="#3aaeb0"/>
      <path id="路径_10776" data-name="路径 10776" d="M92.983,200.487a20.161,20.161,0,0,1-9.565-31.807,20.16,20.16,0,1,0,24.049,30.974A20.087,20.087,0,0,1,92.983,200.487Z" transform="translate(-65.462 -160.765)" fill="#308b8d"/>
      <path id="路径_10777" data-name="路径 10777" d="M120.506,178.82a4.684,4.684,0,1,1-3.028-5.891A4.683,4.683,0,0,1,120.506,178.82Z" transform="translate(-86.004 -162.842)" fill="#fff"/>
      <path id="路径_10778" data-name="路径 10778" d="M135.45,184.914a1.564,1.564,0,1,1-1.012-1.967A1.565,1.565,0,0,1,135.45,184.914Z" transform="translate(-96.865 -168.092)" fill="#fff"/>
      <path id="路径_10779" data-name="路径 10779" d="M131.14,194.691a2.138,2.138,0,1,1-1.382-2.69A2.139,2.139,0,0,1,131.14,194.691Z" transform="translate(-94.06 -172.753)" fill="#fff"/>
      <rect id="矩形_2574" data-name="矩形 2574" width="4.785" height="10.182" transform="translate(12.265 51.934) rotate(-72.201)" fill="#006b99"/>
      <path id="路径_10780" data-name="路径 10780" d="M59.827,302.549c-1.961,6.107,7.873,8.783,9.694,3.112,2.4-7.465,9.773-30.441,9.773-30.441l-9.7-3.113Z" transform="translate(-59.265 -214.164)" fill="#2f1912"/>
      <path id="路径_10781" data-name="路径 10781" d="M63.374,300.16l8.746-27.242-2.521-.809-9.772,30.441c-1.875,5.841,7.035,8.538,9.408,3.8C65.943,306.736,62.078,304.2,63.374,300.16Z" transform="translate(-59.265 -214.164)" fill="#22120b"/>
      <path id="路径_10782" data-name="路径 10782" d="M93.808,268.72c-.318.99-.837,1.709-1.158,1.606s-.323-.989-.006-1.979.836-1.71,1.157-1.607S94.126,267.73,93.808,268.72Z" transform="translate(-76.218 -211.387)" fill="#fff"/>
      <path id="路径_10783" data-name="路径 10783" d="M84.289,292.466c-2.007,6.252-3.894,11.237-4.216,11.133s1.046-5.254,3.053-11.506,3.893-11.234,4.215-11.131S86.3,286.216,84.289,292.466Z" transform="translate(-69.826 -218.734)" fill="#fff"/>
    </g>
  </g>
</svg>
