<svg xmlns="http://www.w3.org/2000/svg" width="857" height="745" viewBox="0 0 857 745">
  <g id="download_list1" transform="translate(0.333 0.985)">
    <rect id="bg" width="857" height="745" transform="translate(-0.333 -0.985)" fill="#f0eee9"/>
    <g id="woman_reading_a_book" data-name="woman reading a book" transform="translate(-0.333 29.706)">
      <g id="chair" transform="translate(232.693 432.879)">
        <g id="组_3178" data-name="组 3178">
          <g id="组_3176" data-name="组 3176">
            <path id="路径_5786" data-name="路径 5786" d="M1538.669,2432.815h-39.143c.295-58.34-5.91-118.926-31.042-183.167a10.726,10.726,0,0,1,11.446-14.563q14.594,2.056,29.187,3.58a10.747,10.747,0,0,1,9.269,7.954C1534.868,2308.938,1538.85,2372.964,1538.669,2432.815Z" transform="translate(-1467.728 -2234.975)" fill="#ba8e63"/>
            <path id="路径_5787" data-name="路径 5787" d="M1995.05,2432.815h-39.143c-.179-59.851,3.8-123.876,20.284-186.2a10.746,10.746,0,0,1,9.269-7.954q14.594-1.524,29.188-3.58a10.726,10.726,0,0,1,11.445,14.563C2000.961,2313.889,1994.753,2374.475,1995.05,2432.815Z" transform="translate(-1776.317 -2234.975)" fill="#ba8e63"/>
          </g>
          <g id="组_3177" data-name="组 3177" transform="translate(34.467 29.223)">
            <path id="路径_5788" data-name="路径 5788" d="M1731.828,2363.013q-79.607,2.248-159.215,0a486.4,486.4,0,0,0-11.191-48.6,1000.983,1000.983,0,0,0,181.6,0A487.1,487.1,0,0,0,1731.828,2363.013Z" transform="translate(-1561.422 -2314.414)" fill="#ba8e63"/>
            <path id="路径_5789" data-name="路径 5789" d="M1750.3,2520.158q-73.835-1.72-147.665,0-1.172-11.881-2.855-23.852,76.687.388,153.376,0Q1751.461,2508.278,1750.3,2520.158Z" transform="translate(-1585.669 -2429.393)" fill="#ba8e63"/>
            <path id="路径_5790" data-name="路径 5790" d="M1750.3,2638.876q-73.835-1.72-147.665,0-1.172-11.881-2.855-23.852,76.687.387,153.376,0Q1751.461,2627,1750.3,2638.876Z" transform="translate(-1585.669 -2504.438)" fill="#ba8e63"/>
          </g>
        </g>
        <rect id="矩形_1944" data-name="矩形 1944" width="244.813" height="31.338" transform="translate(2.859 179.377)" fill="#ba8e63"/>
      </g>
      <g id="组_3217" data-name="组 3217" transform="translate(244.77)">
        <g id="组_3180" data-name="组 3180" transform="translate(0 363.37)">
          <path id="路径_5791" data-name="路径 5791" d="M1565.974,2097.013c-15.209,30.1-54.065,100.988-64.25,133.253-5.8,18.375,11.167,30.6,25.9,33.692s27.253-24.264,28.031-29.506c15.842-31.705,43.284-59.287,51.252-93.974,4.791-20.859,4.437-65.707-6.211-68.852S1571.813,2085.455,1565.974,2097.013Z" transform="translate(-1500.557 -2061.967)" fill="#ffc4b3"/>
          <g id="组_3179" data-name="组 3179" transform="translate(7.09)">
            <path id="路径_5792" data-name="路径 5792" d="M1632.5,2058.843c10.039,25.588-14.463,94.544-14.463,94.544l-29.606,51.339c-21.414-.96-68.606-26.925-68.606-26.925s31.97-63.428,46-84.893c13.958-21.355,29.662-47.385,52.85-46.878C1621.57,2046.095,1630.981,2054.962,1632.5,2058.843Z" transform="translate(-1519.829 -2046.024)" fill="#f15a24"/>
          </g>
        </g>
        <g id="组_3182" data-name="组 3182" transform="translate(278.675 365.777)">
          <path id="路径_5793" data-name="路径 5793" d="M2337,2103.557c15.208,30.1,54.065,100.988,64.25,133.253,5.8,18.375-4.559,29.9-19.607,30.144-15.2.244-31.9-16.713-37.063-26.016-15.842-31.705-40.54-59.228-48.507-93.915-4.791-20.859-4.437-65.707,6.211-68.852S2331.156,2092,2337,2103.557Z" transform="translate(-2280.231 -2068.511)" fill="#ffc4b3"/>
          <g id="组_3181" data-name="组 3181">
            <path id="路径_5794" data-name="路径 5794" d="M2260.508,2065.387c-10.039,25.587,14.462,94.544,14.462,94.544l29.612,51.347c21.415-.96,68.6-26.932,68.6-26.932s-31.97-63.428-46-84.893c-13.959-21.355-29.663-47.385-52.85-46.878C2271.442,2052.638,2262.031,2061.506,2260.508,2065.387Z" transform="translate(-2258.093 -2052.568)" fill="#f15a24"/>
          </g>
        </g>
        <g id="组_3183" data-name="组 3183" transform="translate(23.941 29.691)">
          <path id="路径_5795" data-name="路径 5795" d="M1581.476,1209.115c-13.395,42.117-7.615,87.255-1.305,131s9.5,91.714-14.535,128.805c64.052,6.862,128.61,13.731,192.759,7.838,63.635-5.845,127.616-25.183,177.269-65.356-16.347-16.6-22.9-40.9-28.6-63.79-11.1-44.549-38.919-190.753-82.155-208.645l-225.75,41.215S1586.034,1194.783,1581.476,1209.115Z" transform="translate(-1565.636 -1138.967)" fill="#7a4b3b"/>
          <path id="路径_5796" data-name="路径 5796" d="M2474.229,1590.46q1.374-1.079,2.734-2.177c-16.348-16.6-22.9-40.9-28.6-63.79-5.193-20.839-14.044-63.921-26.419-105.709,1.4,23.533,2.2,47.179,4.406,70.252C2429.695,1526.687,2441.973,1568.678,2474.229,1590.46Z" transform="translate(-2106.935 -1315.848)" fill="#694033"/>
          <path id="路径_5797" data-name="路径 5797" d="M1852.863,1716.843c-4.779-8.7-10.176-17.288-14.956-25.988-1.171,11.063.858,22.18-.93,33.356-35.316,5.809-70.466,9.036-105.782,14.845-.225-1.235-9.558-17.4-13.269-23.743-4.205,8.426-3.916,20.5-12.337,23.312-13.641,5.681-28.635,3.952-43.8,4.8-4.672-15.1-9.231-29.586-13.9-44.688-1.9,10.558-12.439,36.733-12.493,39.934-16.847-1.392-45.889-17.15-45.889-17.15.151-23.64,3.5-47.227,1.8-70.53-3-29.153-7.583-57.681-16.581-85.065,1.3,14.739,3.337,29.487,5.441,44.08,6.31,43.743,9.5,91.714-14.535,128.806,64.052,6.862,128.61,13.731,192.759,7.838,55.359-5.085,110.975-20.389,157.2-50.731C1909.093,1698.613,1876.511,1711.8,1852.863,1716.843Z" transform="translate(-1565.636 -1408.864)" fill="#694033"/>
        </g>
        <path id="路径_5798" data-name="路径 5798" d="M1937.211,2250.931s-8.694-79.1,1.548-113.567c25.95-21.092,29.384-33.3,25.089-56.011-3.169-16.756-9.946-75.847-9.946-75.847l-65.417-29.054h-66.909l-65.417,29.054s-6.777,59.091-9.947,75.848c-4.3,22.706-.861,34.919,25.089,56.011,10.243,34.47,1.549,113.567,1.549,113.567s27.962,8.449,82.181,8.449S1937.211,2250.931,1937.211,2250.931Z" transform="translate(-1654.858 -1638.676)" fill="#b3cfe3"/>
        <g id="组_3185" data-name="组 3185" transform="translate(158.133 283.271)">
          <g id="组_3184" data-name="组 3184" transform="translate(6.492)">
            <rect id="矩形_1945" data-name="矩形 1945" width="71.093" height="80.132" fill="#ffc4b3"/>
            <path id="路径_5799" data-name="路径 5799" d="M1948.067,1828.289v41.3c22.625,8.985,48.3,9.733,71.093.671v-41.972Z" transform="translate(-1948.067 -1828.289)" fill="#c26e61"/>
          </g>
          <path id="路径_5800" data-name="路径 5800" d="M2014.5,1981.429c0,17.135-29.155,36.7-42.31,36.7s-41.767-19.561-41.767-36.7c0-8.475,42.038-16.19,42.038-16.19S2014.5,1972.768,2014.5,1981.429Z" transform="translate(-1930.419 -1914.859)" fill="#ffc4b3"/>
        </g>
        <g id="组_3186" data-name="组 3186" transform="translate(88.508 341.231)">
          <path id="路径_5801" data-name="路径 5801" d="M1852.817,2266.574c-53.782,0-82.264-8.418-82.545-8.5l-1-.3.114-1.038c.086-.785,8.489-78.672-1.4-112.7-26.849-21.9-29.428-34.766-25.228-56.973,3.125-16.52,9.865-75.166,9.932-75.757l.082-.713,53.48-24.259s.909,94.642,46.47,94.642,45.532-95.125,45.532-95.125l54.594,24.742.082.713c.067.591,6.807,59.238,9.932,75.757,4.2,22.207,1.622,35.069-25.227,56.973-4.068,14.013-5.609,37.827-4.456,68.919.881,23.764,3.039,43.585,3.061,43.782l.114,1.038-1,.3C1935.079,2258.156,1906.6,2266.574,1852.817,2266.574Z" transform="translate(-1741.153 -1985.845)" fill="#f15a24"/>
          <path id="路径_5802" data-name="路径 5802" d="M1938.412,2103.93c16.951-1.883,30.875-4.931,41.466-25.669,14.842-29.063,16.476-55.082,16.626-84.568l-17.319-7.85s.028,95.126-45.532,95.126-46.47-94.643-46.47-94.643l-18.011,8.17c1.559,23.14,7.016,45.974,13.365,69.253C1888.815,2088.863,1911.416,2107.7,1938.412,2103.93Z" transform="translate(-1822.078 -1985.844)" fill="#cc4c1e"/>
          <path id="路径_5803" data-name="路径 5803" d="M2218.869,2218.568c-.974-5.147-2.3-14.384-3.663-24.679-2.389,16.672,2.714,33.009-.64,50.342-6.279,31.39-42.063,35.785-68.432,39.552,10.673,5.023,21.346-5.022,32.019-.628,5.022,2.512,5.65,9.417,6.278,15.067,4.332,30.865,1.665,61.262,6.085,91.6.535-.145.819-.229.846-.237l1-.3-.114-1.037c-.022-.2-2.18-20.018-3.061-43.782-1.152-31.092.389-54.906,4.457-68.919C2220.491,2253.637,2223.07,2240.775,2218.869,2218.568Z" transform="translate(-1997.154 -2117.355)" fill="#cc4c1e"/>
          <path id="路径_5804" data-name="路径 5804" d="M1790.94,2327.7c8.162,0,16.323,2.511,23.857,0-2.511-4.395-7.534-4.395-11.3-5.65-20.09-5.022-41.436-10.045-52.108-28.879-5.89-10.42-6.549-21.821-8.583-32.788-.014.072-.027.148-.041.219-4.2,22.207-1.621,35.07,25.228,56.973,4.43,15.25,5.186,39.308,4.664,61.288a279.241,279.241,0,0,1,9.495-49.907C1783.406,2325.815,1787.8,2327.7,1790.94,2327.7Z" transform="translate(-1741.153 -2159.387)" fill="#cc4c1e"/>
        </g>
        <g id="组_3187" data-name="组 3187" transform="translate(140.011 333.651)">
          <path id="路径_5805" data-name="路径 5805" d="M2099.681,1975.283v-10.044s12.09,6.838,14.033,11.091,10.572,68.9,10.572,68.9-12.151-24.8-17.012-27.1-31.826-3.066-31.826-3.066S2099.681,1982.985,2099.681,1975.283Z" transform="translate(-2003.974 -1965.239)" fill="#d1e2ee"/>
          <path id="路径_5806" data-name="路径 5806" d="M1905.76,1975.5v-10.044s-12.09,6.838-14.034,11.091-10.572,68.9-10.572,68.9,12.151-24.8,17.012-27.1,31.826-2.942,31.826-2.942S1905.76,1983.2,1905.76,1975.5Z" transform="translate(-1881.155 -1965.377)" fill="#d1e2ee"/>
        </g>
        <g id="组_3203" data-name="组 3203" transform="translate(27.862)">
          <g id="组_3188" data-name="组 3188" transform="translate(280.268 173.504)">
            <path id="路径_5807" data-name="路径 5807" d="M2344.051,1579.175s35.04,23.26,48.119-8.785-16.316-49.15-37.5-36.062S2335.965,1574.947,2344.051,1579.175Z" transform="translate(-2338.163 -1529.903)" fill="#ffc4b3"/>
            <path id="路径_5808" data-name="路径 5808" d="M2411.985,1549.876a20.4,20.4,0,0,1,13.3,11.852,20.17,20.17,0,0,1-2.039,18.438c-1.285,1.935,1.68,3.991,2.968,2.052a23.429,23.429,0,0,0-13-35.733c-2.224-.64-3.466,2.749-1.231,3.392Z" transform="translate(-2384.083 -1540.334)" fill="#f7ab94"/>
          </g>
          <g id="组_3189" data-name="组 3189" transform="translate(0 225.611)">
            <path id="路径_5809" data-name="路径 5809" d="M1634.6,1710.311s-24.56,34.141-48.119,8.785-2.1-51.745,22.341-46.987S1640.673,1703.5,1634.6,1710.311Z" transform="translate(-1576.297 -1671.549)" fill="#ffc4b3"/>
            <path id="路径_5810" data-name="路径 5810" d="M1620.28,1691.674a20.4,20.4,0,0,0-8.253,15.787,20.17,20.17,0,0,0,8.422,16.528c1.886,1.356-.162,4.327-2.052,2.968a23.429,23.429,0,0,1-.469-38.021c1.855-1.384,4.214,1.348,2.351,2.738Z" transform="translate(-1596.607 -1682.299)" fill="#f7ab94"/>
          </g>
          <g id="组_3190" data-name="组 3190" transform="translate(13.438 34.63)">
            <path id="路径_5811" data-name="路径 5811" d="M1784.087,1441.728c28.744-5.439,45.937-16.025,62.567-27.072,17.159-11.4,32.445-27.378,40.51-48.148,10.87-27.994,5.553-143.012-7.114-163.822-13.974-22.96-30.821-39.243-57.12-45.037-28.739-6.332-46.09-7.55-88.082-.278s-57.924,14.252-82.861,29.877c-22.82,14.3-33.265,35.154-38.68,61.459-4.908,23.843,28.761,134.128,48.411,156.837,14.579,16.849,34.348,26.759,54.34,31.724C1735.433,1442.082,1755.186,1446.27,1784.087,1441.728Z" transform="translate(-1612.824 -1152.393)" fill="#ffc4b3"/>
            <path id="路径_5812" data-name="路径 5812" d="M1691.715,1469.333c-40.246-27.515-69.052-103.257-64-166.661,2.167-27.193,30.711-66.279,30.711-66.279-2.093,1.255-4.23,2.569-6.44,3.954-22.82,14.3-33.265,35.154-38.68,61.459-4.908,23.843,28.761,134.128,48.411,156.837,14.579,16.849,34.348,26.758,54.34,31.724,19.375,4.813,39.128,9,68.029,4.459,28.744-5.439,45.937-16.025,62.567-27.072,17.159-11.4,32.445-27.379,40.51-48.148q.259-.668.506-1.4c-3.009,3.752-6.739,6.97-9.547,11C1839.907,1484.1,1744.21,1505.222,1691.715,1469.333Z" transform="translate(-1612.824 -1205.493)" fill="#f7ab94"/>
          </g>
          <path id="路径_5813" data-name="路径 5813" d="M2043.59,1639.068c-.352-.606-1.3-2.065-2.318-2.037s-1.054,3.7-1.488,5.578-1.555,3.91-3.664,4.512c-2.622.748-5.24-1.073-7.974-.964a5.28,5.28,0,0,0-.555.052c-2.193,1.391-1.407,3.445.119,4.423a8.642,8.642,0,0,0,3.541,1.07,18.144,18.144,0,0,0,8.248-.593c2.614-.91,4.907-2.8,5.6-5.15S2044.856,1641.249,2043.59,1639.068Z" transform="translate(-1860.717 -1424.118)" fill="#c26e61"/>
          <g id="组_3195" data-name="组 3195" transform="translate(68.027 144.188)">
            <ellipse id="椭圆_33" data-name="椭圆 33" cx="19.559" cy="13.543" rx="19.559" ry="13.543" transform="translate(153.988 72.104) rotate(-8.883)" fill="#d26c85"/>
            <ellipse id="椭圆_34" data-name="椭圆 34" cx="19.559" cy="13.543" rx="19.559" ry="13.543" transform="matrix(0.988, -0.154, 0.154, 0.988, 10.178, 98.359)" fill="#d26c85"/>
            <g id="组_3192" data-name="组 3192" transform="translate(3.021 34.654)">
              <path id="路径_5814" data-name="路径 5814" d="M1802.6,1600.955c14.06-2.833,22.617-16.832,19.481-31.871s-16.606-24.6-30.667-21.77-22.618,16.833-19.482,31.872S1788.537,1603.788,1802.6,1600.955Z" transform="translate(-1770.602 -1545.933)" fill="#fff"/>
              <ellipse id="椭圆_35" data-name="椭圆 35" cx="21.451" cy="23.879" rx="21.451" ry="23.879" transform="translate(0 9.946) rotate(-13.404)" fill="#271713"/>
              <g id="组_3191" data-name="组 3191" transform="translate(14.279 18.394)">
                <path id="路径_5815" data-name="路径 5815" d="M1808.55,1613.753c-1.785-8.561,4.441-17.047,13.908-18.954,8.377-1.687,16.48,2.345,19.472,9.228.5,8.744-3.342,16.728-10.019,20.916a19.306,19.306,0,0,1-2.987.86C1819.457,1627.709,1810.335,1622.315,1808.55,1613.753Z" transform="translate(-1808.245 -1594.416)" fill="#523127"/>
              </g>
              <ellipse id="椭圆_36" data-name="椭圆 36" cx="7.221" cy="6.164" rx="7.221" ry="6.164" transform="translate(25.383 32.559) rotate(-10.347)" fill="#fffefd"/>
            </g>
            <g id="组_3194" data-name="组 3194" transform="translate(135.839 10.406)">
              <path id="路径_5816" data-name="路径 5816" d="M2163.643,1535.04c14.06-2.833,22.617-16.832,19.481-31.871s-16.606-24.6-30.667-21.77-22.618,16.832-19.481,31.872S2149.583,1537.873,2163.643,1535.04Z" transform="translate(-2131.648 -1480.018)" fill="#fff"/>
              <ellipse id="椭圆_37" data-name="椭圆 37" cx="21.451" cy="23.879" rx="21.451" ry="23.879" transform="translate(0 9.946) rotate(-13.404)" fill="#271713"/>
              <g id="组_3193" data-name="组 3193" transform="translate(14.278 18.394)">
                <path id="路径_5817" data-name="路径 5817" d="M2169.6,1547.838c-1.785-8.561,4.442-17.047,13.908-18.954,8.377-1.688,16.48,2.345,19.471,9.228.5,8.744-3.342,16.727-10.019,20.916a19.277,19.277,0,0,1-2.987.86C2180.5,1561.794,2171.381,1556.4,2169.6,1547.838Z" transform="translate(-2169.291 -1528.5)" fill="#523127"/>
              </g>
              <path id="路径_5818" data-name="路径 5818" d="M2203.62,1568.954c1.073,3.24,5.042,4.967,8.865,3.858s6.052-4.635,4.978-7.874-5.042-4.967-8.865-3.858S2202.547,1565.714,2203.62,1568.954Z" transform="translate(-2176.542 -1530.488)" fill="#fffefd"/>
            </g>
            <path id="路径_5819" data-name="路径 5819" d="M1765.194,1533.865a3.37,3.37,0,0,1-3.269-5.382,44.174,44.174,0,0,1,40.028-16.428,3.37,3.37,0,1,1-.886,6.682,37.326,37.326,0,0,0-33.818,13.879A3.362,3.362,0,0,1,1765.194,1533.865Z" transform="translate(-1761.218 -1489.078)" fill="#523127"/>
            <path id="路径_5820" data-name="路径 5820" d="M2177.706,1462.688a3.37,3.37,0,0,0,1.156-6.189,44.174,44.174,0,0,0-43.251-1.224,3.37,3.37,0,1,0,3.19,5.938,37.327,37.327,0,0,1,36.541,1.034A3.356,3.356,0,0,0,2177.706,1462.688Z" transform="translate(-1996.76 -1450.211)" fill="#523127"/>
          </g>
          <path id="路径_5821" data-name="路径 5821" d="M2002.158,1715.933a81.335,81.335,0,0,1-36.516-2.533,2.209,2.209,0,1,1,1.306-4.221,77.987,77.987,0,0,0,70.431-13.125,2.209,2.209,0,0,1,2.738,3.468A81.727,81.727,0,0,1,2002.158,1715.933Z" transform="translate(-1821.429 -1461.127)" fill="#ad403d"/>
          <g id="组_3199" data-name="组 3199" transform="translate(25.526 144.805)">
            <g id="组_3198" data-name="组 3198">
              <g id="组_3196" data-name="组 3196" transform="translate(5.612 26.119)">
                <path id="路径_5822" data-name="路径 5822" d="M1713.489,1525.917c-32.521,5.937-58.089,15.107-51.51,51.148,7.943,43.505,38.278,60.444,70.8,54.507s56.048-26.288,46.97-76.008C1773.168,1519.524,1746.01,1519.98,1713.489,1525.917Zm18.19,99.634c-15.725,2.871-30.074.124-41.495-7.943-12.182-8.607-20.105-22.533-23.548-41.392-5.276-28.9,12.783-37.857,47.952-44.278s55.228-4.422,60.5,24.477C1782.368,1596.274,1768.168,1618.889,1731.679,1625.551Z" transform="translate(-1660.94 -1522.89)" fill="#2b2b2b"/>
              </g>
              <g id="组_3197" data-name="组 3197" transform="translate(152.124)">
                <path id="路径_5823" data-name="路径 5823" d="M2060.289,1505.428c9.078,49.72,37.2,60.641,68.393,54.946s52.507-32.063,44.564-75.568c-6.58-36.041-32.662-35.781-63.854-30.086S2053.709,1469.387,2060.289,1505.428Zm4.467-.815c-5.276-28.9,12-37.714,45.736-43.873s53.013-4.017,58.288,24.882c3.443,18.859,1.165,34.647-6.77,46.927-7.44,11.51-19.344,19.051-34.427,21.8C2092.583,1560.743,2072.033,1544.472,2064.756,1504.613Z" transform="translate(-2059.213 -1451.889)" fill="#2b2b2b"/>
              </g>
              <path id="路径_5824" data-name="路径 5824" d="M1975.206,1591.969a28.623,28.623,0,0,1,28.849-5.261,2.623,2.623,0,0,0,3.642-2.025c.425-1.706-.382-4.264-1.934-4.834a33.686,33.686,0,0,0-34.578,6.308c-1.245,1.076-1.109,3.75-.1,5.206a2.609,2.609,0,0,0,4.122.607Z" transform="translate(-1850.877 -1531.357)" fill="#2b2b2b"/>
              <path id="路径_5825" data-name="路径 5825" d="M2361.04,1532.648l6.526-3.635c.643-.358-1.357-7.6-2.8-6.8l-6.526,3.635a3.215,3.215,0,0,0-1.388,2,4.8,4.8,0,0,0,.23,2.879c.827,1.823,2.515,2.729,3.958,1.925Z" transform="translate(-2095.158 -1496.303)" fill="#2b2b2b"/>
              <path id="路径_5826" data-name="路径 5826" d="M1653.86,1661.972l-7.389-1.094c-.728-.108-1.417-7.593.217-7.351l7.389,1.094a3.212,3.212,0,0,1,2,1.376,4.8,4.8,0,0,1,.8,2.775c-.13,2-1.389,3.442-3.023,3.2Z" transform="translate(-1645.685 -1579.347)" fill="#2b2b2b"/>
            </g>
          </g>
          <g id="组_3202" data-name="组 3202" transform="translate(6.925)">
            <g id="组_3200" data-name="组 3200">
              <path id="路径_5827" data-name="路径 5827" d="M1659.552,1147.618c3.531,6.722-11.812,61.575-33.032,85.21,52.818-4.6,117.558-15.456,162.525-35.956-5.146-28.191-10.888-43.213-11.241-73.475,15.879,25.531,18.6,40.423,25.646,72.42,26.093-2.211,61.567-3.476,87.66-5.687,0,0-5.344-39.393-26.69-81.071-23.545-45.972-100.071-58.9-151.091-46.175-56.876,14.18-98.748,38.059-113.055,94.4-10.905,42.946-1.117,76.582-1.117,76.582l21.01-1.813S1656.021,1140.9,1659.552,1147.618Z" transform="translate(-1595.12 -1058.258)" fill="#7a4b3b"/>
              <path id="路径_5828" data-name="路径 5828" d="M1804.763,1227.229c-4.744.784,2.143,46.608,1.677,73.589-43.114,15.53-88.312,23.143-133.4,31.374,17.444-26.8,23.3-86.1,15.823-89.177s-19.578,40.786-32.74,69.929c-4.345,9.621-9.454,18.974-16.771,26.671l8.774-.757s35.854-91.156,39.385-84.434-11.812,61.575-33.032,85.21c52.818-4.6,117.558-15.456,162.525-35.956-5.147-28.191-10.888-43.213-11.241-73.475,15.879,25.531,18.6,40.423,25.647,72.42,3.519-.3,7.213-.579,11.027-.847q-3.547.066-7.081.146C1824.735,1261.936,1808.811,1226.56,1804.763,1227.229Z" transform="translate(-1623.083 -1165.064)" fill="#694033"/>
              <path id="路径_5829" data-name="路径 5829" d="M2339.939,1246.988c4.376,20.778,5.143,42.216,6.071,63.624,3.331-.22,6.586-.448,9.736-.687C2353.267,1288.522,2345.272,1267.565,2339.939,1246.988Z" transform="translate(-2065.942 -1177.56)" fill="#694033"/>
            </g>
            <g id="组_3201" data-name="组 3201" transform="translate(53.649 20.057)">
              <path id="路径_5830" data-name="路径 5830" d="M2091.4,1125.876c-1.578-3.773-6.976-2.7-7.443.442a27.3,27.3,0,0,0-7.412-4.219,3.772,3.772,0,0,0-4.579,1.132c-.86-1.269-1.77-2.512-2.742-3.719-1.816-2.255-6.474-2.332-6.859,1.292a46.6,46.6,0,0,0,.006,9.4q-4.556-8.068-9.8-15.741a3.8,3.8,0,0,0-6.928,2.253,95.692,95.692,0,0,1-.836,14.077c-1.9-2.063-4.105-3.655-6.749-3.495a8.312,8.312,0,0,0-5.768,3.23c-1.486,1.8-1.832,4.228-3.271,6.014-3.03,3.762,2.569,8.8,5.618,5.02a15.884,15.884,0,0,0,1.934-2.979c.326-.666.95-3.129,1.627-3.381.419-.156,1.255,1.208,1.852,1.925l3.318,3.987c1.589,1.91,5.458,2.668,6.542-.368a52.994,52.994,0,0,0,2.683-12.336,210.173,210.173,0,0,1,15.878,31.994c1.47,3.733,8.023,3.1,7.346-1.37-1.123-7.417-3.627-14.818-5.109-22.293.367.894.7,1.8,1.018,2.714a63.737,63.737,0,0,0,2.309,9.646c1.275,3.945,7.993,2.97,7.346-1.37a62.063,62.063,0,0,0-2.222-9.622,56.4,56.4,0,0,1-.615-6.434,20.075,20.075,0,0,1,6.722,7.952c1.5,3.237,6.4,3.584,7.276-.41A22,22,0,0,0,2091.4,1125.876Z" transform="translate(-1922.497 -1112.781)" fill="#8a5543"/>
              <path id="路径_5831" data-name="路径 5831" d="M1823.079,1146.272a4.449,4.449,0,0,0-1.221,0,75.782,75.782,0,0,0-10.532-16.456c-1.815-2.157-6.527-2.4-6.859,1.292q-.654,7.275-1.233,14.556a213.575,213.575,0,0,0-6.3-22.27c-1.467-4.278-7.125-2.74-7.346,1.37q-.656,12.181-1.311,24.362c-.126-.353-.248-.707-.377-1.059-1.259-3.427-6.566-3.431-7.277.409l-.539,2.909a3.547,3.547,0,0,0-4.888,1.62l-1.39-2.646c-1.3-2.467-5.516-2.189-6.542.368a25.817,25.817,0,0,1-3.228,5.821c-6.866-4.483-17.077-3.151-22.234,3.461-2.966,3.8,2.63,8.851,5.618,5.02a9.467,9.467,0,0,1,14.519-.362c1.4,1.571,4.022,1.018,5.319-.3a31.706,31.706,0,0,0,3.33-4l1.886,3.589a3.639,3.639,0,0,0,4.224,1.555c.255.724.525,1.444.831,2.154,1.4,3.25,6.537,3.582,7.277-.409q.214-1.159.429-2.317,1.106,4.369,1.944,8.811c.347,1.838,2.623,2.821,4.27,2.514a3.836,3.836,0,0,0,3.076-3.884l1.351-25.1a206.6,206.6,0,0,1,4.827,35.257c.248,4.965,7.254,4.3,7.522-.423q1.135-19.987,2.81-39.937a70.406,70.406,0,0,1,7.409,15.908c1.23,3.827,6.244,3.029,7.277-.409.119-.4.219-.791.3-1.185a3.646,3.646,0,0,0,2.758-3.687A6.585,6.585,0,0,0,1823.079,1146.272Z" transform="translate(-1740.957 -1117.874)" fill="#8a5543"/>
            </g>
          </g>
        </g>
        <g id="组_3208" data-name="组 3208" transform="translate(3.742 484.652)">
          <g id="组_3207" data-name="组 3207">
            <g id="组_3206" data-name="组 3206">
              <g id="组_3205" data-name="组 3205">
                <g id="组_3204" data-name="组 3204">
                  <path id="路径_5832" data-name="路径 5832" d="M1671.417,2401.124s-92.714,47.562-131.948,55.259c-15.26,2.993-32-18.585-28.191-30.292,2.242-6.9,8.347-17.408,18.853-25.287s126.785-23.269,136.068-24.888S1683.735,2382.3,1671.417,2401.124Z" transform="translate(-1510.73 -2375.713)" fill="#ffc4b3"/>
                </g>
              </g>
            </g>
          </g>
        </g>
        <g id="组_3212" data-name="组 3212" transform="translate(134.437 475.9)">
          <g id="组_3211" data-name="组 3211">
            <g id="组_3209" data-name="组 3209" transform="translate(19.353)">
              <path id="路径_5833" data-name="路径 5833" d="M1920.366,2362.212s23.968-8.942,33.005-9.989,23.99,1.021,33.781.311c15.832-1.149,10.757,12.383,1.635,14.239s-16.919-1.2-18.848-.992-21.431,8.436-28.516,11.126S1912.285,2366.974,1920.366,2362.212Z" transform="translate(-1918.612 -2351.922)" fill="#ffc4b3"/>
            </g>
            <g id="组_3210" data-name="组 3210" transform="translate(0 6.581)">
              <path id="路径_5834" data-name="路径 5834" d="M1866.573,2395.5c1.049,2.55,22.617,15.963,35.729,15.736,9.064.081,12.078-18.472,34.161-22.1s9.05-13.927.371-17.587-20.444-.453-29.671.051c-7.383.4-21.471,1.7-24.563,2.03C1870.134,2374.939,1864.028,2389.31,1866.573,2395.5Z" transform="translate(-1866.004 -2369.812)" fill="#ffc4b3"/>
            </g>
          </g>
          <path id="路径_5835" data-name="路径 5835" d="M1904.451,2391.657s25.62-15.531,36.243-18.784c6.61-1.787,19.676,6.935,28.213,10.572,5.715,2.581,10.061,27.969,13.888,37.57s-7.946,6.674-11.066,1.792-10.232-26.852-12.132-29.048-19.417-2.341-21.278-2.66S1904.451,2391.657,1904.451,2391.657Z" transform="translate(-1890.307 -2365.015)" fill="#ffc4b3"/>
          <path id="路径_5836" data-name="路径 5836" d="M1917.009,2407.109s20.622-12.679,28.955-14.962c5.152-1.219,14.195,7.438,20.047,10.931,3.9,2.462,3.7,24.3,5.252,32.657s-6.805,5.323-8.466,1.019-3.98-23.354-5.1-25.313-14.113-2.888-15.452-3.246S1917.009,2407.109,1917.009,2407.109Z" transform="translate(-1898.246 -2377.275)" fill="#ffc4b3"/>
          <path id="路径_5837" data-name="路径 5837" d="M1887.86,2423.672s19.316-12.4,27.044-14.992c4.787-1.427,13.169,5.529,18.827,8.43,3.775,2.058,4.577,22.312,6.409,29.971s-6.155,5.326-7.91,1.432-4.795-21.42-5.931-23.173-13.394-1.864-14.669-2.118S1887.86,2423.672,1887.86,2423.672Z" transform="translate(-1879.82 -2387.68)" fill="#ffc4b3"/>
          <path id="路径_5838" data-name="路径 5838" d="M2029.269,2372.379s43.251,8.925,55.469,10.13c11.174,1.1,10.037,6.844,3.244,7.966-12.716,2.1-58.158-3.805-64.633-5.365S2021.047,2373.5,2029.269,2372.379Z" transform="translate(-1963.462 -2364.853)" fill="#ffc4b3"/>
        </g>
        <g id="组_3214" data-name="组 3214" transform="translate(240.223 431.042)">
          <path id="路径_5839" data-name="路径 5839" d="M2184.542,2374.819l-13.035-20.336,119.33-81.132s98.1-40.073,123.568,9.474c0,0,32.92-49.195,63.114-52.843l8.553,18.526-73.7,50.472Z" transform="translate(-2164.907 -2229.981)" fill="#fff"/>
          <g id="组_3213" data-name="组 3213" transform="translate(0 8.126)">
            <path id="路径_5840" data-name="路径 5840" d="M2263.679,2465.168l-110.112,4.632,133.56-90.874,110.112-4.632Z" transform="translate(-2153.567 -2329.332)" fill="#006837"/>
            <path id="路径_5841" data-name="路径 5841" d="M2586.446,2372.306l-133.56,90.874s-.739,15.151,23.543,6.93l137.521-98.961S2589.874,2384.973,2586.446,2372.306Z" transform="translate(-2342.774 -2327.344)" fill="#006837"/>
            <path id="路径_5842" data-name="路径 5842" d="M2836.764,2308.32l82.54-56.249-6.079.256-80.5,52.611Z" transform="translate(-2582.881 -2252.071)" fill="#006837"/>
          </g>
        </g>
        <g id="组_3216" data-name="组 3216" transform="translate(340.962 512.843)">
          <g id="组_3215" data-name="组 3215">
            <path id="路径_5843" data-name="路径 5843" d="M2514.76,2483.136s-23.28-19.683-30.808-27.211-15.955-2.5-6.517,8.7c9.5,11.276,24.291,22.817,21.772,26.372s-24.926-15.141-37.473-22.669-17.329-1.185-9.221,6.436c5.5,5.173,29.675,25.093,29.675,25.093s-30.3-15.683-39.712-19.447-19.76.314-7.214,8.469c0,0-9.723-.628-7.528,5.019s33.618,17.734,40.149,20.387c12.546,5.1,32.934,3.45,39.521,0s14.742-10.978,15.683-18.82S2519.28,2486.956,2514.76,2483.136Z" transform="translate(-2427.412 -2452.345)" fill="#ffc4b3"/>
            <path id="路径_5844" data-name="路径 5844" d="M2666.378,2525.213s7.342-16.323,9.851-22.6-1.887-10.664-9.1-5.019a68.673,68.673,0,0,0-12.039,12.357S2660.752,2535.518,2666.378,2525.213Z" transform="translate(-2571.335 -2479.304)" fill="#ffc4b3"/>
          </g>
          <path id="路径_5845" data-name="路径 5845" d="M2448.753,2551.647l35.757,16.7-.627.836Z" transform="translate(-2440.903 -2515.117)" fill="#c26e61"/>
        </g>
      </g>
      <g id="map_on_global" data-name="map on global" transform="translate(0 298.306)">
        <ellipse id="椭圆_38" data-name="椭圆 38" cx="59.306" cy="12.409" rx="59.306" ry="12.409" transform="translate(63.273 269.495)" fill="#b3b3b3"/>
        <ellipse id="椭圆_39" data-name="椭圆 39" cx="55.459" cy="11.053" rx="55.459" ry="11.053" transform="translate(67.12 270.595)" fill="#ccc"/>
        <path id="路径_5846" data-name="路径 5846" d="M960.879,2128.615c-.086,0-.172,0-.259,0a129.783,129.783,0,0,1,.889-259.451,7.714,7.714,0,0,1,.4,15.422,114.355,114.355,0,0,0-.785,228.609,7.714,7.714,0,0,1-.249,15.424Z" transform="translate(-835.186 -1869.157)" fill="#ccc"/>
        <path id="路径_5847" data-name="路径 5847" d="M1162.559,2474.455v46.315c0,3.5,5.438,3.506,5.438,0v-46.315c0-3.5-5.438-3.506-5.438,0Z" transform="translate(-1042.128 -2250.124)" fill="#ccc"/>
        <path id="路径_5848" data-name="路径 5848" d="M1172.1,1893.562v46.316c0,3.5,5.439,3.5,5.439,0v-46.316c0-3.5-5.439-3.505-5.439,0Z" transform="translate(-1048.157 -1882.924)" fill="#ccc"/>
        <g id="组_3219" data-name="组 3219" transform="translate(25.608 31.37)">
          <path id="路径_5849" data-name="路径 5849" d="M1016.094,2151.226a96.777,96.777,0,0,0,46.088-17.761c35.944-26.448,50-78.842,32.11-119.727-23.263-53.176-97.494-79.89-147.171-40.439A90.058,90.058,0,0,0,915.9,2006.59c-21.1,39.323-11.285,92.673,22.428,121.912C959.4,2146.779,988.474,2154.479,1016.094,2151.226Z" transform="translate(-904.798 -1954.431)" fill="#4997d3"/>
          <path id="路径_5850" data-name="路径 5850" d="M1024.366,2021.229c-4.532,3.626-21.754,6.345-15.409,14.5,12.69,15.409,23.567-13.6,38.07-15.409.907-.907,3.626.906,4.532,2.719,1.813,5.438,5.439,9.064,8.158,13.6,4.532,9.064-6.345,18.128-2.719,28.1,2.719,8.158,12.69,10.877,20.848,9.064,1.813-.906,3.626-3.625,4.532-5.438,4.532-13.6,5.439-29.912,17.222-38.976,8.158-7.252,19.035-3.626,29.005,2.719,11.928,7.951,23.855,3.8,34.444-3.751a89.891,89.891,0,0,0-3.793-10.449c-12.647-28.91-40.361-49.993-71-56.88-2.378,7.6-.229,16.483-4.972,21.226-12.69,12.69-34.444,7.251-49.854,16.316C1025.273,2003.1,1030.711,2015.791,1024.366,2021.229Z" transform="translate(-969.764 -1958.6)" fill="#eed68c"/>
          <path id="路径_5851" data-name="路径 5851" d="M1031.091,2005.79a9.837,9.837,0,0,1,5.984-6.795c17.222-7.251,47.708-3.537,50.192-15.523,2.558-12.342,2.336-14.611,4.541-21.572-1.18-.31-2.363-.606-3.552-.873-2.378,7.6-.229,16.483-4.972,21.226-12.69,12.69-34.444,7.251-49.854,16.316-8.158,4.532-2.719,17.222-9.064,22.661-4.532,3.626-21.754,6.345-15.409,14.5.024.029.047.054.072.083,0,0-1.161-4-.155-5.256,3.816-5.756,12.209-6.166,16.86-7.5,2.809-.807,2.824-1.335,3.385-5.374C1029.382,2015.787,1030.41,2008.592,1031.091,2005.79Z" transform="translate(-969.764 -1958.6)" fill="#d4be7d"/>
          <path id="路径_5852" data-name="路径 5852" d="M1195.929,2127.282c-19.941-8.158-21.754,22.661-30.818,37.163-2.719,5.439-8.158,11.784-15.409,9.064-8.385-3.354-8.5-9.81-8.2-16.606-1.364,3.911-2.378,7.913-.865,12.073,2.719,8.158,12.69,10.877,20.848,9.064,1.813-.906,3.626-3.626,4.532-5.438,4.532-13.6,5.438-29.912,17.222-38.977,8.158-7.251,19.035-3.625,29.005,2.719,11.928,7.952,23.855,3.8,34.444-3.751-.149-.5-.31-1-.467-1.5C1229.967,2135.878,1212.294,2134.206,1195.929,2127.282Z" transform="translate(-1053.403 -2062.841)" fill="#d4be7d"/>
          <path id="路径_5853" data-name="路径 5853" d="M1195.31,2113.107c-21.754.906-49.853-22.661-65.263.906-8.158,12.69-6.345,38.07-25.38,37.163-3.626-.906-5.439-5.438-2.719-8.158,9.971-12.69-.711-23.654-7.056-35.438a6.45,6.45,0,0,0-9.26-2.632c-4.967,2.8-10.832,9.74-14.123,16.01,4.966-4.822,10.164-9.85,15.936-10.571.906-.906,3.626.906,4.532,2.719,1.813,5.438,5.439,9.064,8.158,13.6,2.641,5.282.051,10.564-1.855,16.026-.3,6.8-.185,13.252,8.2,16.606,7.251,2.719,12.69-3.626,15.409-9.064,9.064-14.5,10.877-45.321,30.818-37.163,16.365,6.923,34.038,8.6,50.293,3.816q-.652-2.073-1.4-4.117A47.227,47.227,0,0,1,1195.31,2113.107Z" transform="translate(-1010.181 -2048.665)" fill="#e3cb82"/>
          <path id="路径_5854" data-name="路径 5854" d="M995.658,2144.52c-35.351-2.719-63.45-24.474-77.953-56.2-25.679-57.778,16.847-114.837,71.595-131.57a86.074,86.074,0,0,0-42.18,18.014,90.055,90.055,0,0,0-31.225,33.292c-21.1,39.323-11.285,92.673,22.428,121.912,21.073,18.276,50.15,25.978,77.77,22.724a96.776,96.776,0,0,0,46.089-17.761c.422-.311.829-.64,1.245-.958C1041.6,2141.395,1019.617,2146.916,995.658,2144.52Z" transform="translate(-904.798 -1955.898)" fill="#3975b0"/>
          <path id="路径_5855" data-name="路径 5855" d="M959.326,2117.71c-18.128-15.409-34.444-36.257-33.537-61.637.906-24.473,7.462-55.506,27.4-71.822,17.629-14.69,35.02-24.943,57.184-29.761a91.678,91.678,0,0,0-12.087.832c-54.748,16.732-97.274,73.792-71.594,131.569,14.5,31.725,42.6,53.48,77.953,56.2,23.959,2.4,45.938-3.125,67.77-10.546.509-.389,1-.793,1.5-1.192a160.249,160.249,0,0,0-25.764,3.58C1017.338,2141.278,983.8,2138.558,959.326,2117.71Z" transform="translate(-913.787 -1954.469)" fill="#4380b8"/>
          <path id="路径_5856" data-name="路径 5856" d="M1272.652,2231.769c10.877,5.438,19.035-5.439,29.912-8.158.59,11.8-3.041,28.977,2.351,38.781,18.194-18.614,28.448-44.737,28.758-70.812-3.692.326-7.6-.6-10.261-.6-13.6.906-19.035-19.034-35.351-17.221-1.812,0-2.719,1.813-3.625,2.719-1.813,4.532.906,9.063,2.719,12.689,7.252,13.6-6.345,22.661-14.5,32.632C1270.839,2225.424,1270.839,2230.862,1272.652,2231.769Z" transform="translate(-1136.47 -2093)" fill="#eed68c"/>
          <path id="路径_5857" data-name="路径 5857" d="M1355.029,2335.912c-.521,10.252-1.54,21.719,2.5,29.056q1.626-1.664,3.166-3.407C1356.571,2354.634,1355.005,2345.258,1355.029,2335.912Z" transform="translate(-1189.081 -2195.577)" fill="#d4be7d"/>
          <path id="路径_5858" data-name="路径 5858" d="M1313.4,2203.831c2.719-7.251-5.016-17.723-4.975-21.245.043-3.752,1.343-6.606,7.695-1.416,11.442,9.35,25.024,16.408,40.049,15.676.031-.717.08-1.434.1-2.152-14.495,1.839-28.492-3.822-39.239-15.337-2.789-2.433-8.253-3.824-9.159-1.1-.938,2.372-.038,4.9-.79,6.945a42.469,42.469,0,0,0,2.7,5.943c3.578,6.709,2.077,12.313-1.339,17.469-.084.268-.181.53-.285.789A10.1,10.1,0,0,0,1313.4,2203.831Z" transform="translate(-1159.091 -2094.975)" fill="#e3cb82"/>
          <path id="路径_5859" data-name="路径 5859" d="M1355.9,2330.556c-.023,9.346,1.542,18.722,5.662,25.649,1.323-1.5,2.58-3.046,3.807-4.62-5.859-.917-7.5-15.477-9.334-24.146Q1355.984,2328.974,1355.9,2330.556Z" transform="translate(-1189.955 -2190.221)" fill="#e3cb82"/>
          <path id="路径_5860" data-name="路径 5860" d="M1284.456,2287.155c-3.983,1.987-8.039,2.349-10.756-2.825s9.71-13.382,12.114-21c-3.507,5.292-9.031,10.112-13.163,15.163-1.813,3.625-1.813,9.064,0,9.97,10.877,5.439,19.035-5.438,29.912-8.158.064,1.289.077,2.644.058,4.044.179-2.619.468-5.195.849-7.67C1296.106,2277.764,1288.439,2285.169,1284.456,2287.155Z" transform="translate(-1136.47 -2149.696)" fill="#d4be7d"/>
          <path id="路径_5861" data-name="路径 5861" d="M1306.966,2176.375c1-2.329,6.279-.8,9,1.008,10.747,11.514,24.744,17.176,39.239,15.336.009-.38.022-.759.027-1.14-3.692.326-7.6-.6-10.261-.6-13.6.906-19.035-19.034-35.351-17.221-1.812,0-2.719,1.813-3.625,2.719a9.718,9.718,0,0,0,.021,6.746C1306.766,2181.181,1305.964,2178.7,1306.966,2176.375Z" transform="translate(-1158.028 -2093)" fill="#d4be7d"/>
          <g id="组_3218" data-name="组 3218" transform="translate(149.334 34.408)" style="mix-blend-mode: soft-light;isolation: isolate">
            <path id="路径_5862" data-name="路径 5862" d="M1312.3,2057.222a82.289,82.289,0,0,1,6.413,7.21c.569.718-.2-.227-.24-.312a4.509,4.509,0,0,0,.4.53q.3.4.594.8.785,1.072,1.535,2.17,1.358,1.99,2.6,4.057a84.617,84.617,0,0,1,4.477,8.532q.242.53.475,1.063c.1.229.6,1.382.25.574s.14.349.233.581q.248.618.487,1.239.867,2.253,1.608,4.553a88.875,88.875,0,0,1,2.5,9.5q.484,2.368.839,4.76c.058.39.207,1.715.014.04.044.386.1.771.144,1.158q.147,1.241.258,2.486a88.09,88.09,0,0,1,.335,9.647q-.049,2.411-.234,4.818-.089,1.16-.209,2.318-.06.578-.128,1.156c-.026.22-.055.44-.081.66-.09.755.028-.243.063-.458a101.144,101.144,0,0,1-2.216,10.731q-.713,2.563-1.6,5.074-.47,1.335-.988,2.652c-.163.413-.334.823-.5,1.236-.223.559.242-.564.226-.53-.14.3-.265.613-.4.918a5.933,5.933,0,0,0-.548,4.191,5.546,5.546,0,0,0,2.5,3.251c2.357,1.245,6.219.829,7.441-1.951a88.994,88.994,0,0,0,7.4-41.222,94.432,94.432,0,0,0-11.705-40.316,85.963,85.963,0,0,0-14.254-18.811,5.439,5.439,0,0,0-7.691,7.691Z" transform="translate(-1310.742 -2047.964)" fill="#fff"/>
          </g>
        </g>
      </g>
      <g id="desk" transform="translate(21.026 577.625)">
        <rect id="矩形_1946" data-name="矩形 1946" width="778.013" height="80.47" transform="translate(28.98 56.213)" fill="#d3a981"/>
        <path id="矩形_1947" data-name="矩形 1947" d="M23.136,0h766.5a23.136,23.136,0,0,1,23.136,23.136v0a23.136,23.136,0,0,1-23.136,23.136H23.136A23.136,23.136,0,0,1,0,23.136v0A23.136,23.136,0,0,1,23.136,0Z" transform="translate(824.37 61.9) rotate(180)" fill="#ba8e63"/>
        <path id="矩形_1948" data-name="矩形 1948" d="M24.018,0H811.956a24.018,24.018,0,0,1,24.018,24.018v0a24.018,24.018,0,0,1-24.018,24.018H24.018A24.018,24.018,0,0,1,0,24.018v0A24.018,24.018,0,0,1,24.018,0Z" transform="translate(835.974 48.036) rotate(180)" fill="#d3a981"/>
      </g>
    </g>
  </g>
</svg>
