<svg xmlns="http://www.w3.org/2000/svg" width="14.204" height="18.137" viewBox="0 0 14.204 18.137">
  <g id="environmental" transform="translate(-23.622 -49.336)">
    <path id="路径_5" data-name="路径 5" d="M221.688,267.166c.039,0,1.923.039,2.04.059a4.457,4.457,0,0,0,.51.039c.177,0,.216.059.628.079a8.757,8.757,0,0,1-1.216.039l-.157.02.059.039a2.385,2.385,0,0,1,.275.2c.118.059.235.137.353.2a.926.926,0,0,0,.294.118,1.179,1.179,0,0,1,.255.177.263.263,0,0,1-.1-.02,3.055,3.055,0,0,1-.294-.118c-.118-.059-.235-.118-.373-.177-.137-.078-.314-.157-.432-.236-.137-.078-.255-.137-.373-.2-.235-.02-.2-.02-.49.137-.039.039-.078.079-.039.137s.157.137.216.216a2.075,2.075,0,0,1,.2.236.749.749,0,0,0,.177.177.958.958,0,0,0,.294.177,2.609,2.609,0,0,0,.471.2c.177.079.373.177.451.216.059.039.078.039.1.059-.039.078-.137.039-.235,0a2.284,2.284,0,0,0-.216-.1c-.1-.039-.2-.059-.275-.1-.1-.02-.2-.059-.275-.079s-.137-.02-.137.02a2.3,2.3,0,0,0,.078.314c.039.137.078.294.137.491.078.177.137.373.216.51.039.1.078.118.039.2l-.137-.275c-.039-.1-.1-.236-.157-.353a2.952,2.952,0,0,1-.177-.353c-.059-.137-.1-.314-.137-.432a1.2,1.2,0,0,0-.137-.275,2.383,2.383,0,0,0-.2-.275,1.073,1.073,0,0,0-.2-.216c-.078-.059-.137-.1-.216-.157a2.44,2.44,0,0,1-.235-.177,2.591,2.591,0,0,0-.961-.1c-.157.02-.1-.039-.216-.02-.118.039-.373,0-.432.039-.078.039-.078.118,0,.177a3.888,3.888,0,0,0,.471.314c.1-.02.078,0,.2,0a3.037,3.037,0,0,1,.432-.02c.137.02.255.02.373.039a.909.909,0,0,1,.275.039c.059,0,.078.02.078.039a.63.63,0,0,1-.275.02,1.206,1.206,0,0,0-.275-.02c-.118,0-.275.02-.373.02-.078.02-.118.02-.177.039a.972.972,0,0,1,.177.079,4.392,4.392,0,0,1,.432.216,2.226,2.226,0,0,1,.451.294c.157.137.294.275.432.393a3.674,3.674,0,0,0,.294.236c.059.039.039.039.02.039-.039-.02-.078-.039-.177-.079-.1-.059-.255-.157-.373-.236a3.094,3.094,0,0,0-.353-.255,2.6,2.6,0,0,0-.412-.177c-.157-.039-.294-.1-.412-.137a1.912,1.912,0,0,1-.275-.118l-.235-.118c-.078-.02-.294-.294-.334-.314-.039,0-.137.039-.118.1s.314.353.373.471c.078.1.177.236.255.334a1.023,1.023,0,0,0,.275.314,2.994,2.994,0,0,0,.432.314,1.726,1.726,0,0,0,.255.137,1.636,1.636,0,0,0,.235.079,1.133,1.133,0,0,0,.275.059,1.3,1.3,0,0,1,.294.059c.1.039.157.078.216.1a.543.543,0,0,0,.255.059.811.811,0,0,0,.2.02c.02.02.039.02.02.02h-.118a.6.6,0,0,1-.2.02,1.74,1.74,0,0,1-.294-.039,2.216,2.216,0,0,0-.294-.079.812.812,0,0,0-.2-.02c-.059,0-.1.02-.1.039a.51.51,0,0,0,.059.137c.059.059.137.157.216.255a2.93,2.93,0,0,0,.235.275,3.021,3.021,0,0,0,.275.255h0c-.039.02-.059.02-.157-.039-.078-.079-.2-.157-.294-.236-.078-.059-.137-.1-.216-.157a1.432,1.432,0,0,1-.2-.177l-.216-.216a1.766,1.766,0,0,0-.2-.177.87.87,0,0,0-.216-.157,1.171,1.171,0,0,0-.216-.118,1.7,1.7,0,0,1-.2-.137c-.059-.059-.1-.137-.118-.137s-.02.059.02.157a2.939,2.939,0,0,1,.137.393c.039.137.059.294.1.451s.078.314.118.451c.059.137.1.275.137.393.02.137.039.275.059.373.039.157.078.275,0,.353-.02-.059-.02-.177-.059-.294-.02-.118-.078-.255-.118-.432-.059-.157-.118-.353-.177-.51s-.1-.294-.137-.412a3.477,3.477,0,0,1-.118-.334A1.5,1.5,0,0,0,221,269.6a3.243,3.243,0,0,0-.275-.51c-.1-.157-.157-.275-.235-.393-.078-.1-.157-.177-.235-.275-.1-.1-.1-.314-.177-.393a.2.2,0,0,0-.2-.1c-.059,0-.1.039-.137.1a2.182,2.182,0,0,0,.02.942,1.875,1.875,0,0,1,.059.412c.02.1.02.2.039.294a.66.66,0,0,0,.078.294c.059.118.137.275.216.412.1.157.177.314.275.471.078.157.157.294.255.471s.216.373.294.53a2.246,2.246,0,0,1,.157.314c.02.039.02.039.02.059-.059,0-.1-.039-.177-.157a4.683,4.683,0,0,0-.235-.432c-.078-.118-.157-.236-.235-.334-.059-.1-.137-.216-.2-.334a2.748,2.748,0,0,1-.2-.314,1.431,1.431,0,0,0-.177-.255c-.059-.039-.118-.079-.177-.059a.26.26,0,0,0-.118.2.654.654,0,0,0,.078.334c.059.157.118.393.2.608a3.588,3.588,0,0,0,.2.55l.235.412c-.078,0-.1,0-.177-.118-.059-.118-.157-.255-.216-.373a2.744,2.744,0,0,1-.177-.334,3.2,3.2,0,0,1-.177-.373c-.039-.137-.078-.255-.1-.334-.02-.059-.039-.079-.059-.039a.624.624,0,0,0-.078.216c-.039.1-.078.216-.137.353a2.963,2.963,0,0,1-.177.353c-.059.118-.1.236-.157.353-.078.118-.157.314-.294.353,0-.02,0-.02.039-.1a3.737,3.737,0,0,0,.216-.412,3.273,3.273,0,0,0,.157-.393c.039-.137.118-.294.177-.471.059-.2.118-.393.157-.569.039-.2.078-.334.1-.491a1.4,1.4,0,0,0,.059-.412,4.184,4.184,0,0,0-.059-.491c-.02-.157-.02-.255-.039-.373a2.651,2.651,0,0,0-.078-.55c-.039-.118-.02-.236-.059-.255s-.078.059-.1.137c-.02.1-.137.216-.177.353-.039.118-.137.491-.2.648-.059.177-.1.353-.137.491a3.045,3.045,0,0,0-.02.432,5.662,5.662,0,0,1,.039.628c.02.216.02.393.02.51a.616.616,0,0,1-.02.236c0,.039-.02.059-.039-.02,0-.059-.039-.216-.039-.393a4.282,4.282,0,0,0-.02-.53,1.164,1.164,0,0,0-.078-.294c-.039-.078-.059-.118-.1-.118a.359.359,0,0,0-.118.157.33.33,0,0,1-.137.157,1.5,1.5,0,0,1-.216.157c-.078.039-.1.039-.137.02-.02,0-.02-.02,0-.039,0-.02.039-.02.118-.059a1.336,1.336,0,0,0,.235-.236.59.59,0,0,0,.118-.216,2.24,2.24,0,0,1,.118-.294c.039-.118.1-.314.137-.471a2.176,2.176,0,0,0,.1-.491,2.78,2.78,0,0,0,.039-.55c-.039-.137-.039-.216-.118-.216a.368.368,0,0,0-.255.157,4.637,4.637,0,0,0-.392.451,4.533,4.533,0,0,0-.2.55c-.059.177-.1.373-.157.51-.039.118-.078.216-.1.294a1.222,1.222,0,0,0-.078.314,3.157,3.157,0,0,0,0,.432,2.706,2.706,0,0,0,.118.51c.039.177.1.373.137.53a1.038,1.038,0,0,1,.039.314.985.985,0,0,1-.039.236l-.039-.02a3.414,3.414,0,0,0-.275-.864c-.039-.157-.078-.334-.118-.451a2.139,2.139,0,0,1-.02-.334,1.051,1.051,0,0,0,0-.255c-.02-.039-.078.02-.177.079-.078.039-.177.1-.294.157-.118.039-.235.1-.373.157a2.6,2.6,0,0,0-.392.236c-.118.059-.216.137-.275.157l-.02.02v-.02s-.02,0,0-.02.078-.059.177-.137.216-.177.334-.275c.118-.078.235-.137.334-.2s.2-.118.275-.177c.1-.079.2-.157.255-.216a1.706,1.706,0,0,0,.157-.275c.039-.118.118-.314.177-.451a3.639,3.639,0,0,0,.118-.393,1.7,1.7,0,0,1,.039-.2,2.557,2.557,0,0,0-.294.2,2.609,2.609,0,0,0-.373.275,1.394,1.394,0,0,0-.235.255.954.954,0,0,1-.275.216.194.194,0,0,1,.039-.118c.039-.059.137-.157.216-.255.1-.118.2-.216.314-.334.137-.118.294-.255.412-.353.137-.118.235-.2.353-.294a.665.665,0,0,0,.059-.157c.039-.078.392-.471.353-.51-.255-.236-1,.373-1.138.432a1.534,1.534,0,0,0-.51.334,2.329,2.329,0,0,0-.314.451c-.1.157-.157.314-.255.471-.078.177-.177.334-.255.491-.1.137-.177.255-.255.373a2.229,2.229,0,0,1-.216.275c-.02.039-.02.039-.039.039l-.039-.039a1.5,1.5,0,0,1,.137-.255,1.662,1.662,0,0,0,.2-.275c.059-.118.137-.275.2-.412.039-.137.078-.255.118-.373a1.059,1.059,0,0,0,.1-.314c0-.059-.078-.02-.235.059l-.569.216a1.775,1.775,0,0,1-.314.1h-.314c-.059,0-.059-.02-.039-.039a.254.254,0,0,1,.157-.039c.078-.02.216-.039.314-.059a1.981,1.981,0,0,0,.294-.137c.1-.059.216-.118.353-.2a2.953,2.953,0,0,0,.451-.294,1.438,1.438,0,0,0,.294-.314,2.349,2.349,0,0,1,.235-.216,2.787,2.787,0,0,1,.235-.216c.1-.059.235-.137.334-.2s.157-.079.118-.1a2.707,2.707,0,0,1-.275.02,3.821,3.821,0,0,0-.49-.039,1.962,1.962,0,0,0-.589.118,1.8,1.8,0,0,0-.49.157,1.892,1.892,0,0,0-.392.236c-.1.079-.2.137-.294.216s-.216.177-.294.236a1.492,1.492,0,0,1-.177.137c-.02,0-.039,0,.02-.059l.216-.216a2.929,2.929,0,0,0,.255-.216,2.658,2.658,0,0,0,.235-.236,1.592,1.592,0,0,0,.177-.2.906.906,0,0,0,.137-.2c.02-.039.02-.059-.059-.079a1.007,1.007,0,0,0-.334.02c-.137,0-.275-.079-.392-.039a1.616,1.616,0,0,1-.471-.039c-.039.02-.039.02-.059.02V267.3l.039-.02c.078-.039.334.02.471-.02.137-.059.294.02.49,0,.177-.02.412-.02.647-.02.216-.02.51-.039.687-.059s.392-.059.53-.078.177-.02.275-.039a3.91,3.91,0,0,0,3.2-2.67,1.482,1.482,0,0,1,.039,1.531.751.751,0,0,0,.216-.275c.1.451-.157,1.315,1.256,1.511ZM218.2,256.1h-.059a4.99,4.99,0,0,1-.922,2.041c-.059.079-.177.373-.235.491-.039.059-.1-.432-.137-.51-.137-.393-.275-.785-.412-1.158-.059.1-.078.137-.078.137a11.79,11.79,0,0,1,.392,2.218,2.4,2.4,0,0,0,.373,1.413,2.458,2.458,0,0,1-1.02-.589,3.07,3.07,0,0,1-.235-1.04.588.588,0,0,1-.157.1,2.169,2.169,0,0,0,.255,1.178,2.836,2.836,0,0,1-1.668-.844.822.822,0,0,0-.02.137,1.464,1.464,0,0,0,.589.55c-.235.079-.49.157-.726.236l.118.118c.9-.412,2.394.216,3.276.883a10.309,10.309,0,0,1,1,.766,2.521,2.521,0,0,0-1.432-.1,2.473,2.473,0,0,1-.824-.608.543.543,0,0,0-.078.137c.177.177.373.353.608.55a2.141,2.141,0,0,1-1.158.039,2.557,2.557,0,0,1-1.373-1.158,1.02,1.02,0,0,0-.059.1,3.146,3.146,0,0,0,1.393,1.276,2.014,2.014,0,0,1-.981.236.543.543,0,0,0,.137.079,9.132,9.132,0,0,0,1.962-.275l.078-.02h0a2.721,2.721,0,0,1,1.726.216.81.81,0,0,1,.137-.216,3.907,3.907,0,0,1,.549-.589,9.915,9.915,0,0,1-1.687-1.453,1.025,1.025,0,1,1,1.648-1.217,1.1,1.1,0,0,0-2.06.079,2.542,2.542,0,0,1,.765-1.511,4.945,4.945,0,0,0,1.314-.157c-.608,0-1.059-.059-1.158-.2a.671.671,0,0,1-.02-.334,3.54,3.54,0,0,0,.177-1Zm2.3,0h.059a4.99,4.99,0,0,0,.922,2.041c.039.079.177.373.235.491.02.059.1-.432.137-.51.137-.393.275-.785.412-1.158a.435.435,0,0,0,.078.137,10.392,10.392,0,0,0-.392,2.218,2.733,2.733,0,0,1-.373,1.413,2.458,2.458,0,0,0,1.02-.589,3.631,3.631,0,0,0,.235-1.04.588.588,0,0,0,.157.1,2.361,2.361,0,0,1-.255,1.178,2.9,2.9,0,0,0,1.668-.844.821.821,0,0,1,.02.137,1.533,1.533,0,0,1-.608.55c.255.079.49.157.726.236a1.2,1.2,0,0,1-.1.118c-.9-.412-2.413.216-3.276.883a10.309,10.309,0,0,0-1,.766,2.521,2.521,0,0,1,1.432-.1,2.685,2.685,0,0,0,.824-.608.543.543,0,0,1,.078.137c-.177.177-.392.353-.608.55a2.141,2.141,0,0,0,1.158.039,2.631,2.631,0,0,0,1.373-1.158,1.027,1.027,0,0,1,.059.1,3.146,3.146,0,0,1-1.393,1.276,1.962,1.962,0,0,0,.981.236c-.1.059-.137.079-.137.079a9.29,9.29,0,0,1-1.982-.275l-.059-.02h0a3.219,3.219,0,0,0-3.218,1.492,1.152,1.152,0,0,1,.118-1.394c.647-.883,1.864-1.413,2.374-2.14a1.032,1.032,0,1,0-1.668-1.217,1.118,1.118,0,0,1,2.08.079,2.438,2.438,0,0,0-.785-1.511,4.892,4.892,0,0,1-1.295-.157c.608,0,1.059-.059,1.158-.2a.631.631,0,0,0,0-.334,4.158,4.158,0,0,1-.157-1Zm-.451,6.792c.02.039.039.177.059.216.569,1.708-1.158,3.062-2.394,3.69a5.131,5.131,0,0,0,1.2-2.257c-.1.137-.216.648-.373.844a2.5,2.5,0,0,1,.294-1.394,2.923,2.923,0,0,1,1.216-1.1Z" transform="translate(-188.629 -205.032)" fill="#fff" fill-rule="evenodd"/>
    <path id="路径_6" data-name="路径 6" d="M216.915,952.562c.2.1.294.137.294.137-.294.314-.628.216-1.02-.314.412.079.8-.373,1.02.216-.2-.02-.294-.039-.294-.039Z" transform="translate(-190.958 -895.414)" fill="#fff" fill-rule="evenodd"/>
    <path id="路径_7" data-name="路径 7" d="M887.834,174.568l.177.353c-.49.079-.726-.275-.687-1.06.314.393,1,.255.765.962a2.372,2.372,0,0,0-.255-.255Z" transform="translate(-856.482 -123.485)" fill="#fff" fill-rule="evenodd"/>
    <path id="路径_8" data-name="路径 8" d="M231.24,318.006a4.079,4.079,0,0,1,.334.432c-.647.255-1.079-.157-1.295-1.256.569.452,1.471.039,1.393,1.08-.294-.177-.432-.255-.432-.255Z" transform="translate(-204.931 -265.608)" fill="#fff" fill-rule="evenodd"/>
    <path id="路径_9" data-name="路径 9" d="M31.492,711.689l.353.059c-.2.432-.589.412-1.177-.02.471-.039.726-.628,1.158-.1-.216.039-.334.059-.334.059Z" transform="translate(-6.987 -656.543)" fill="#fff" fill-rule="evenodd"/>
    <path id="路径_10" data-name="路径 10" d="M552.184,271.134c.078.294.118.432.118.432-.589-.039-.765-.491-.53-1.374.255.53,1.079.55.647,1.276-.157-.216-.235-.334-.235-.334Z" transform="translate(-523.637 -219.011)" fill="#fff" fill-rule="evenodd"/>
    <path id="路径_11" data-name="路径 11" d="M698.3,474.954a1.823,1.823,0,0,1-.216.137c-.078-.314.137-.471.628-.491-.235.216-.1.628-.549.53a1.248,1.248,0,0,1,.137-.177Z" transform="translate(-668.813 -421.712)" fill="#fff" fill-rule="evenodd"/>
    <path id="路径_12" data-name="路径 12" d="M897.609,52.411l.235.294c.275-.393.059-.746-.628-1.021.216.412-.177.942.51,1.04-.078-.2-.118-.314-.118-.314Z" transform="translate(-866.297 -2.329)" fill="#fff" fill-rule="evenodd"/>
    <path id="路径_13" data-name="路径 13" d="M165.158,419.1c.059.275.1.412.1.412q-.824-.029-.53-1.3c.255.491,1.04.491.647,1.2-.137-.216-.216-.314-.216-.314Z" transform="translate(-139.848 -365.794)" fill="#fff" fill-rule="evenodd"/>
    <path id="路径_14" data-name="路径 14" d="M290.14,475.445a3.945,3.945,0,0,1,.157.412c-.549.059-.785-.373-.706-1.256.334.471,1.138.373.824,1.158-.177-.216-.275-.314-.275-.314Z" transform="translate(-263.732 -421.712)" fill="#fff" fill-rule="evenodd"/>
    <path id="路径_15" data-name="路径 15" d="M404.8,479.653c.2.137.294.2.294.2-.373.294-.706.1-1.04-.55.432.177.922-.236,1.059.432-.216-.059-.314-.078-.314-.078Z" transform="translate(-377.259 -426.372)" fill="#fff" fill-rule="evenodd"/>
    <path id="路径_16" data-name="路径 16" d="M550.484,95.017c.02.314.02.471.02.471-.569-.157-.667-.667-.255-1.511.157.589,1,.766.412,1.433-.118-.275-.177-.393-.177-.393Z" transform="translate(-521.977 -44.268)" fill="#fff" fill-rule="evenodd"/>
    <path id="路径_17" data-name="路径 17" d="M663.517,52.529c.02.255.02.393.02.393-.49-.137-.549-.55-.216-1.237.137.491.8.628.333,1.178-.1-.216-.137-.334-.137-.334Z" transform="translate(-634.147 -2.329)" fill="#fff" fill-rule="evenodd"/>
    <path id="路径_18" data-name="路径 18" d="M99.555,786.1c.255-.059.373-.1.373-.1-.039.491-.432.648-1.158.432.432-.216.451-.9,1.079-.53a2.935,2.935,0,0,0-.294.2Z" transform="translate(-74.52 -730.309)" fill="#fff" fill-rule="evenodd"/>
    <path id="路径_19" data-name="路径 19" d="M83.293,585.618c.255.216.373.314.373.314-.549.334-1,.039-1.334-.9.569.314,1.314-.2,1.393.746-.294-.118-.432-.157-.432-.157Z" transform="translate(-58.22 -531.218)" fill="#fff" fill-rule="evenodd"/>
    <path id="路径_20" data-name="路径 20" d="M312.884,242.468c.1.157.157.236.157.236-.353.079-.549-.157-.569-.707.255.255.726.118.608.628a.872.872,0,0,0-.2-.157Z" transform="translate(-286.437 -191.051)" fill="#fff" fill-rule="evenodd"/>
    <path id="路径_21" data-name="路径 21" d="M301.5,794.914h.353q-.177.648-1.118.177c.432-.118.569-.726,1.059-.294l-.294.118Z" transform="translate(-274.793 -739.081)" fill="#fff" fill-rule="evenodd"/>
    <path id="路径_22" data-name="路径 22" d="M364.489,655.946a1.188,1.188,0,0,0,.1.216c-.294.059-.451-.157-.451-.648.216.255.628.137.51.589a.875.875,0,0,1-.157-.157Z" transform="translate(-337.669 -601.114)" fill="#fff" fill-rule="evenodd"/>
    <path id="路径_23" data-name="路径 23" d="M481.8,585.657c.02.2.039.294.039.294-.373-.059-.471-.353-.275-.923.137.353.667.393.353.864l-.118-.236Z" transform="translate(-454.02 -531.218)" fill="#fff" fill-rule="evenodd"/>
    <path id="路径_24" data-name="路径 24" d="M454.5,136.8c.078.157.118.255.118.255-.373.02-.51-.236-.451-.785.2.294.687.216.51.707l-.177-.177Z" transform="translate(-426.935 -86.206)" fill="#fff" fill-rule="evenodd"/>
    <path id="路径_25" data-name="路径 25" d="M740.856,348.138l-.118.177c-.157-.216-.059-.412.314-.589-.1.236.137.53-.235.609a1.28,1.28,0,0,1,.039-.2Z" transform="translate(-711.054 -295.897)" fill="#fff" fill-rule="evenodd"/>
    <path id="路径_26" data-name="路径 26" d="M24.642,896.264a4.474,4.474,0,0,1,.412.2c-.392.432-.863.294-1.432-.451.589.118,1.1-.53,1.432.294a3.282,3.282,0,0,0-.412-.039Z" transform="translate(0 -839.469)" fill="#fff" fill-rule="evenodd"/>
    <path id="路径_27" data-name="路径 27" d="M45.817,1021.881c.334-.059.51-.1.51-.1-.078.648-.608.8-1.57.491.608-.236.667-1.158,1.471-.628l-.412.236Z" transform="translate(-20.959 -964.026)" fill="#fff" fill-rule="evenodd"/>
    <path id="路径_28" data-name="路径 28" d="M597.057,1033.761a2.345,2.345,0,0,1,.216-.2c.157.353-.059.589-.647.726.235-.314,0-.8.569-.766-.1.157-.137.235-.137.235Z" transform="translate(-568.216 -975.965)" fill="#fff" fill-rule="evenodd"/>
    <path id="路径_29" data-name="路径 29" d="M404.883,1053.436c.275-.1.412-.157.412-.157.02.55-.373.766-1.236.667.471-.314.373-1.079,1.118-.766-.2.177-.294.255-.294.255Z" transform="translate(-377.259 -995.384)" fill="#fff" fill-rule="evenodd"/>
    <path id="路径_30" data-name="路径 30" d="M216.993,1073.183c.275-.1.412-.157.412-.157.039.55-.373.765-1.216.687.451-.314.353-1.08,1.1-.785-.2.177-.294.255-.294.255Z" transform="translate(-190.958 -1014.975)" fill="#fff" fill-rule="evenodd"/>
    <path id="路径_31" data-name="路径 31" d="M400.915,198.22c.1.294.157.432.157.432-.589.039-.8-.393-.687-1.3.314.491,1.138.393.8,1.178a2.369,2.369,0,0,1-.275-.314Z" transform="translate(-373.585 -146.783)" fill="#fff" fill-rule="evenodd"/>
    <path id="路径_32" data-name="路径 32" d="M421.008,376.313c.137.157.2.216.2.216-.334.157-.569-.059-.706-.608.294.216.765-.02.746.53-.157-.1-.235-.137-.235-.137Z" transform="translate(-393.56 -323.856)" fill="#fff" fill-rule="evenodd"/>
    <path id="路径_33" data-name="路径 33" d="M782.688,481.983c-.137.079-.2.118-.2.118-.078-.294.118-.432.569-.451-.216.2-.1.589-.51.491.078-.1.137-.157.137-.157Z" transform="translate(-752.514 -428.701)" fill="#fff" fill-rule="evenodd"/>
    <path id="路径_34" data-name="路径 34" d="M665.7,251.789v.177c-.216-.059-.255-.255-.078-.569.059.216.373.294.137.55-.039-.1-.059-.157-.059-.157Z" transform="translate(-636.524 -200.372)" fill="#fff" fill-rule="evenodd"/>
    <path id="路径_35" data-name="路径 35" d="M803.3,343.478l-.118.177c-.177-.216-.059-.432.333-.628-.118.255.157.55-.255.648a.829.829,0,0,0,.039-.2Z" transform="translate(-772.966 -291.237)" fill="#fff" fill-rule="evenodd"/>
    <path id="路径_36" data-name="路径 36" d="M543.1,881.892h.216q-.118.412-.706.059c.294-.039.392-.412.687-.118-.118.039-.2.059-.2.059Z" transform="translate(-514.655 -825.431)" fill="#fff" fill-rule="evenodd"/>
    <path id="路径_37" data-name="路径 37" d="M432.651,925.985a.871.871,0,0,0,.157.157c-.255.137-.451,0-.569-.432.235.157.589-.039.589.373a1.835,1.835,0,0,1-.177-.1Z" transform="translate(-405.203 -869.053)" fill="#fff" fill-rule="evenodd"/>
    <path id="路径_38" data-name="路径 38" d="M444.471,834.951h.235c-.1.275-.334.294-.726.078.294-.059.392-.432.687-.137-.118.039-.2.059-.2.059Z" transform="translate(-416.847 -778.883)" fill="#fff" fill-rule="evenodd"/>
    <path id="路径_39" data-name="路径 39" d="M1409.457,952.562c-.2.1-.294.137-.294.137.294.314.628.216,1.02-.314-.412.079-.785-.373-1.02.216.2-.02.294-.039.294-.039Z" transform="translate(-1373.966 -895.414)" fill="#fff" fill-rule="evenodd"/>
    <path id="路径_40" data-name="路径 40" d="M1350.315,318.006c-.216.275-.333.432-.333.432.667.255,1.1-.157,1.295-1.256-.569.452-1.471.039-1.393,1.08.294-.177.432-.255.432-.255Z" transform="translate(-1315.177 -265.608)" fill="#fff" fill-rule="evenodd"/>
    <path id="路径_41" data-name="路径 41" d="M1576.25,711.689l-.353.059c.2.432.589.412,1.177-.02-.471-.039-.726-.628-1.138-.1.216.039.314.059.314.059Z" transform="translate(-1539.307 -656.543)" fill="#fff" fill-rule="evenodd"/>
    <path id="路径_42" data-name="路径 42" d="M1092.764,271.134a4.211,4.211,0,0,0-.1.432c.569-.039.745-.491.51-1.374-.255.53-1.059.55-.647,1.276.157-.216.236-.334.236-.334Z" transform="translate(-1059.862 -219.011)" fill="#fff" fill-rule="evenodd"/>
    <path id="路径_43" data-name="路径 43" d="M972.777,474.954a1.826,1.826,0,0,0,.216.137c.078-.314-.137-.471-.628-.491.235.216.118.628.569.53-.1-.118-.157-.177-.157-.177Z" transform="translate(-940.817 -421.712)" fill="#fff" fill-rule="evenodd"/>
    <path id="路径_44" data-name="路径 44" d="M1483.458,419.1c-.059.275-.1.412-.1.412q.824-.029.53-1.3c-.255.491-1.04.491-.647,1.2.157-.216.216-.314.216-.314Z" transform="translate(-1447.319 -365.794)" fill="#fff" fill-rule="evenodd"/>
    <path id="路径_45" data-name="路径 45" d="M1350.084,475.445c-.1.275-.157.412-.157.412.569.059.8-.373.706-1.256-.333.471-1.118.373-.824,1.158.2-.216.275-.314.275-.314Z" transform="translate(-1315.043 -421.712)" fill="#fff" fill-rule="evenodd"/>
    <path id="路径_46" data-name="路径 46" d="M1216.91,479.653c-.2.137-.294.2-.294.2.373.294.726.1,1.04-.55-.432.177-.922-.236-1.06.432.216-.059.314-.078.314-.078Z" transform="translate(-1183.007 -426.372)" fill="#fff" fill-rule="evenodd"/>
    <path id="路径_47" data-name="路径 47" d="M1093.687,95.017c-.02.314-.02.471-.02.471.589-.157.667-.667.255-1.511-.157.589-1,.766-.412,1.433.118-.275.177-.393.177-.393Z" transform="translate(-1060.745 -44.268)" fill="#fff" fill-rule="evenodd"/>
    <path id="路径_48" data-name="路径 48" d="M999.78,52.529a3.1,3.1,0,0,1-.02.393c.49-.137.549-.55.216-1.237-.137.491-.8.628-.333,1.178.1-.216.137-.334.137-.334Z" transform="translate(-967.703 -2.329)" fill="#fff" fill-rule="evenodd"/>
    <path id="路径_49" data-name="路径 49" d="M1510.516,786.1c-.255-.059-.373-.1-.373-.1.039.491.432.648,1.177.432-.451-.216-.471-.9-1.1-.53a2.937,2.937,0,0,1,.294.2Z" transform="translate(-1474.102 -730.309)" fill="#fff" fill-rule="evenodd"/>
    <path id="路径_50" data-name="路径 50" d="M1501.161,585.618c-.255.216-.373.314-.373.314.549.334,1,.039,1.334-.9-.569.314-1.314-.2-1.373.746a3.943,3.943,0,0,1,.412-.157Z" transform="translate(-1464.787 -531.218)" fill="#fff" fill-rule="evenodd"/>
    <path id="路径_51" data-name="路径 51" d="M1360.259,242.468c-.1.157-.157.236-.157.236.353.079.549-.157.569-.707-.235.255-.726.118-.608.628a.869.869,0,0,1,.2-.157Z" transform="translate(-1325.258 -191.051)" fill="#fff" fill-rule="evenodd"/>
    <path id="路径_52" data-name="路径 52" d="M1313.232,794.914h-.353q.177.648,1.118.177c-.432-.118-.569-.726-1.059-.294l.294.118Z" transform="translate(-1278.486 -739.081)" fill="#fff" fill-rule="evenodd"/>
    <path id="路径_53" data-name="路径 53" d="M1320.074,655.946a2.258,2.258,0,0,1-.118.216c.294.059.451-.157.451-.648-.2.255-.628.137-.51.589.118-.1.177-.157.177-.157Z" transform="translate(-1285.426 -601.114)" fill="#fff" fill-rule="evenodd"/>
    <path id="路径_54" data-name="路径 54" d="M1200.447,585.657l-.059.294c.373-.059.471-.353.294-.923-.157.353-.687.393-.373.864a1.693,1.693,0,0,1,.137-.236Z" transform="translate(-1166.76 -531.218)" fill="#fff" fill-rule="evenodd"/>
    <path id="路径_55" data-name="路径 55" d="M1226.4,136.8a1.144,1.144,0,0,0-.1.255c.353.02.49-.236.451-.785-.216.294-.706.216-.53.707l.177-.177Z" transform="translate(-1192.515 -86.206)" fill="#fff" fill-rule="evenodd"/>
    <path id="路径_56" data-name="路径 56" d="M960.819,348.138l.118.177c.157-.216.059-.412-.314-.589.1.236-.137.53.235.609a1.263,1.263,0,0,0-.039-.2Z" transform="translate(-929.173 -295.897)" fill="#fff" fill-rule="evenodd"/>
    <path id="路径_57" data-name="路径 57" d="M1552.845,896.264a3.853,3.853,0,0,0-.432.2c.392.432.883.294,1.432-.451-.589.118-1.1-.53-1.432.294a3.4,3.4,0,0,1,.432-.039Z" transform="translate(-1516.019 -839.469)" fill="#fff" fill-rule="evenodd"/>
    <path id="路径_58" data-name="路径 58" d="M1517.679,1021.881c-.334-.059-.491-.1-.491-.1.079.648.589.8,1.55.491-.588-.236-.667-1.158-1.452-.628.255.157.392.236.392.236Z" transform="translate(-1481.088 -964.026)" fill="#fff" fill-rule="evenodd"/>
    <path id="路径_59" data-name="路径 59" d="M1067.7,1033.761c-.157-.137-.235-.2-.235-.2-.157.353.059.589.647.726-.235-.314.02-.8-.549-.766a1.681,1.681,0,0,0,.137.235Z" transform="translate(-1035.07 -975.965)" fill="#fff" fill-rule="evenodd"/>
    <path id="路径_60" data-name="路径 60" d="M1197.9,1053.436a3.972,3.972,0,0,1-.392-.157c-.039.55.373.766,1.216.667-.451-.314-.373-1.079-1.118-.766.2.177.294.255.294.255Z" transform="translate(-1164.074 -995.384)" fill="#fff" fill-rule="evenodd"/>
    <path id="路径_61" data-name="路径 61" d="M1387.763,1073.183a4,4,0,0,1-.392-.157c-.059.55.353.765,1.2.687-.451-.314-.333-1.08-1.1-.785.2.177.294.255.294.255Z" transform="translate(-1352.35 -1014.975)" fill="#fff" fill-rule="evenodd"/>
    <path id="路径_62" data-name="路径 62" d="M1240.295,198.22c-.1.294-.157.432-.157.432.589.039.8-.393.687-1.3-.314.491-1.118.393-.785,1.178a3.142,3.142,0,0,0,.255-.314Z" transform="translate(-1206.176 -146.783)" fill="#fff" fill-rule="evenodd"/>
    <path id="路径_63" data-name="路径 63" d="M1237.9,376.313a1.156,1.156,0,0,1-.2.216c.353.157.588-.059.706-.608-.294.216-.765-.02-.746.53.157-.1.235-.137.235-.137Z" transform="translate(-1203.896 -323.856)" fill="#fff" fill-rule="evenodd"/>
    <path id="路径_64" data-name="路径 64" d="M895.261,481.983a2.037,2.037,0,0,0,.2.118c.059-.294-.137-.432-.589-.451.216.2.1.589.51.491-.078-.1-.118-.157-.118-.157Z" transform="translate(-863.968 -428.701)" fill="#fff" fill-rule="evenodd"/>
    <path id="路径_65" data-name="路径 65" d="M1042.4,251.789v.177c.216-.059.255-.255.1-.569-.059.216-.392.294-.157.55.039-.1.059-.157.059-.157Z" transform="translate(-1010.13 -200.372)" fill="#fff" fill-rule="evenodd"/>
    <path id="路径_66" data-name="路径 66" d="M895.085,343.478l.118.177c.177-.216.059-.432-.334-.628.118.255-.137.55.255.648a1.284,1.284,0,0,0-.039-.2Z" transform="translate(-863.968 -291.237)" fill="#fff" fill-rule="evenodd"/>
    <path id="路径_67" data-name="路径 67" d="M1120.529,881.892h-.216c.079.275.333.294.706.059-.275-.039-.392-.412-.687-.118.137.039.2.059.2.059Z" transform="translate(-1087.529 -825.431)" fill="#fff" fill-rule="evenodd"/>
    <path id="路径_68" data-name="路径 68" d="M1244.954,925.985c-.1.118-.137.157-.137.157.235.137.432,0,.549-.432-.235.157-.569-.039-.589.373a1.828,1.828,0,0,0,.177-.1Z" transform="translate(-1210.953 -869.053)" fill="#fff" fill-rule="evenodd"/>
    <path id="路径_69" data-name="路径 69" d="M1219.16,834.951h-.216c.079.275.314.294.706.078-.275-.059-.392-.432-.687-.137.137.039.2.059.2.059Z" transform="translate(-1185.336 -778.883)" fill="#fff" fill-rule="evenodd"/>
    <path id="路径_70" data-name="路径 70" d="M763.305,174.568l-.177.353c.491.079.726-.275.687-1.06-.314.393-.981.255-.765.962a2.375,2.375,0,0,1,.255-.255Z" transform="translate(-733.209 -123.485)" fill="#fff" fill-rule="evenodd"/>
    <path id="路径_71" data-name="路径 71" d="M767.268,50.1c-.157.216-.235.314-.235.314-.294-.412-.078-.785.647-1.08-.216.451.2,1-.53,1.119l.118-.353Z" transform="translate(-737.074)" fill="#fff" fill-rule="evenodd"/>
  </g>
</svg>
