<svg xmlns="http://www.w3.org/2000/svg" width="130.711" height="92.725" viewBox="0 0 130.711 92.725">
  <g id="flow_chart" transform="translate(-628.815 -385.507)">
    <g id="组_3096" data-name="组 3096">
      <g id="组_2944" data-name="组 2944" transform="translate(628.815 404.843)">
        <g id="组_2918" data-name="组 2918" transform="translate(0 0)">
          <g id="组_2917" data-name="组 2917" transform="translate(0)">
            <g id="组_2916" data-name="组 2916">
              <path id="矩形_1692" data-name="矩形 1692" d="M1.08,0H108.458a1.08,1.08,0,0,1,1.08,1.08V67.954a1.08,1.08,0,0,1-1.08,1.08H1.081A1.081,1.081,0,0,1,0,67.952V1.08A1.08,1.08,0,0,1,1.08,0Z" transform="translate(11.395)" fill="#0b253f"/>
              <g id="组_2879" data-name="组 2879" transform="translate(0 67.074)">
                <g id="组_2874" data-name="组 2874">
                  <path id="路径_5400" data-name="路径 5400" d="M800.563,454.587c0,1.438-3.11,2.608-4.676,2.608H675.143c-1.565,0-4.676-1.17-4.676-2.608Z" transform="translate(-670.158 -450.881)" fill="#0b253f"/>
                  <path id="路径_5401" data-name="路径 5401" d="M801.042,456.682c0,.482-.548.875-1.227.875H671.56c-.677,0-1.229-.393-1.229-.875v-2.851c0-.484.552-.875,1.229-.875H799.815c.679,0,1.227.391,1.227.875Z" transform="translate(-670.331 -452.956)" fill="#fff"/>
                </g>
                <g id="组_2875" data-name="组 2875" transform="translate(113.448 1.988)">
                  <path id="路径_5402" data-name="路径 5402" d="M729.818,454.145a.28.28,0,0,1-.268.291h-9.018c-.127,0-.2-.111-.2-.291h0a.22.22,0,0,1,.232-.252h9.022a.222.222,0,0,1,.23.252Z" transform="translate(-720.175 -453.752)" fill="#0b253f"/>
                  <path id="路径_5403" data-name="路径 5403" d="M729.659,453.831h-8.938c-.25,0-.457.129-.457.382a.4.4,0,0,0,.425.423h8.934a.462.462,0,0,0,.493-.423C730.116,453.961,729.911,453.831,729.659,453.831Zm-.043.563-.03,0h-8.863a.163.163,0,0,1-.182-.184c0-.116.086-.134.2-.141l.018,0h8.865c.12,0,.22.023.22.143S729.72,454.376,729.616,454.395Z" transform="translate(-720.264 -453.831)" fill="#6b8ea5"/>
                </g>
                <g id="组_2878" data-name="组 2878" transform="translate(7.634 1.661)">
                  <g id="组_2876" data-name="组 2876" transform="translate(2.456)">
                    <path id="路径_5404" data-name="路径 5404" d="M676.231,454.416a.729.729,0,1,1-.732-.729A.732.732,0,0,1,676.231,454.416Z" transform="translate(-674.772 -453.687)" fill="#6b8ea5"/>
                    <path id="路径_5405" data-name="路径 5405" d="M675.822,454.27a.468.468,0,1,1-.468-.468A.465.465,0,0,1,675.822,454.27Z" transform="translate(-674.627 -453.541)" fill="#0b253f"/>
                  </g>
                  <g id="组_2877" data-name="组 2877">
                    <path id="路径_5406" data-name="路径 5406" d="M675.147,454.416a.728.728,0,1,1-.727-.729A.728.728,0,0,1,675.147,454.416Z" transform="translate(-673.691 -453.687)" fill="#6b8ea5"/>
                    <path id="路径_5407" data-name="路径 5407" d="M674.742,454.27a.468.468,0,1,1-.468-.468A.467.467,0,0,1,674.742,454.27Z" transform="translate(-673.545 -453.541)" fill="#0b253f"/>
                  </g>
                </g>
              </g>
              <path id="矩形_1693" data-name="矩形 1693" d="M.211,0H97.933a.211.211,0,0,1,.211.211v55.4a.21.21,0,0,1-.21.21H.211A.211.211,0,0,1,0,55.614V.211A.211.211,0,0,1,.211,0Z" transform="translate(16.897 6.534)" fill="#fff"/>
              <path id="路径_5408" data-name="路径 5408" d="M775.983,426.183H678.191a.469.469,0,0,0-.464.472v55.6a.467.467,0,0,0,.464.473h97.792a.469.469,0,0,0,.466-.473v-55.6A.471.471,0,0,0,775.983,426.183Zm-.145,55.305a.459.459,0,0,1-.454.461H678.791a.457.457,0,0,1-.452-.461V427.205a.453.453,0,0,1,.452-.459h96.592a.455.455,0,0,1,.454.459Z" transform="translate(-660.923 -419.937)" fill="#6b8ea5"/>
              <g id="组_2887" data-name="组 2887" transform="translate(22.597 42.283)">
                <g id="组_2881" data-name="组 2881">
                  <path id="路径_5409" data-name="路径 5409" d="M680.539,457.95V442.474h.348V457.6H705.5v.349Z" transform="translate(-679.944 -441.498)" fill="#6b8ea5"/>
                  <g id="组_2880" data-name="组 2880">
                    <path id="路径_5410" data-name="路径 5410" d="M680.277,443.285h1.506l-.708-1.24Z" transform="translate(-680.277 -442.045)" fill="#6b8ea5"/>
                    <path id="路径_5411" data-name="路径 5411" d="M691.515,450.4v-1.505l1.236.709Z" transform="translate(-665.982 -433.336)" fill="#6b8ea5"/>
                  </g>
                </g>
                <g id="组_2886" data-name="组 2886" transform="translate(2.798 2.69)">
                  <g id="组_2882" data-name="组 2882" transform="translate(17.848)">
                    <rect id="矩形_1694" data-name="矩形 1694" width="1.311" height="12.013" fill="#a55897"/>
                    <rect id="矩形_1695" data-name="矩形 1695" width="1.309" height="4.743" transform="translate(1.311 7.271)" fill="#33afcc"/>
                    <rect id="矩形_1696" data-name="矩形 1696" width="1.313" height="6.086" transform="translate(2.574 5.927)" fill="#6b8ea5"/>
                  </g>
                  <g id="组_2883" data-name="组 2883" transform="translate(5.94 3.445)">
                    <rect id="矩形_1697" data-name="矩形 1697" width="1.313" height="3.659" transform="translate(2.618 4.91)" fill="#6b8ea5"/>
                    <rect id="矩形_1698" data-name="矩形 1698" width="1.309" height="5.509" transform="translate(0 3.059)" fill="#a55897"/>
                    <rect id="矩形_1699" data-name="矩形 1699" width="1.309" height="8.569" transform="translate(1.309)" fill="#33afcc"/>
                  </g>
                  <g id="组_2884" data-name="组 2884" transform="translate(12.01 3.835)">
                    <rect id="矩形_1700" data-name="矩形 1700" width="1.307" height="5.803" transform="translate(2.62 2.375)" fill="#6b8ea5"/>
                    <rect id="矩形_1701" data-name="矩形 1701" width="1.309" height="5.76" transform="translate(0 2.419)" fill="#a55897"/>
                    <rect id="矩形_1702" data-name="矩形 1702" width="1.311" height="8.178" transform="translate(1.309)" fill="#33afcc"/>
                  </g>
                  <g id="组_2885" data-name="组 2885" transform="translate(0 2.646)">
                    <rect id="矩形_1703" data-name="矩形 1703" width="1.309" height="5.353" transform="translate(1.311 4.015)" fill="#33afcc"/>
                    <rect id="矩形_1704" data-name="矩形 1704" width="1.309" height="6.481" transform="translate(2.578 2.887)" fill="#6b8ea5"/>
                    <rect id="矩形_1705" data-name="矩形 1705" width="1.311" height="9.368" fill="#a55897"/>
                  </g>
                </g>
              </g>
              <path id="路径_5412" data-name="路径 5412" d="M723.449,445.521l-.686-.368a3.234,3.234,0,0,0,.061-.748,3.335,3.335,0,0,0-.148-.856l.663-.42a.166.166,0,0,0,.066-.211l-.232-.489a.166.166,0,0,0-.2-.082l-.763.252a3.36,3.36,0,0,0-1.054-.947l.227-.825a.162.162,0,0,0-.1-.2l-.5-.209a.164.164,0,0,0-.209.075l-.438.777,0,0a3.486,3.486,0,0,0-.739-.059,3.446,3.446,0,0,0-.677.1l-.009-.016-.5-.736A.164.164,0,0,0,718,440.5l-.479.243a.157.157,0,0,0-.075.207l.282.8a3.3,3.3,0,0,0-1.045,1.072l-.834-.209a.159.159,0,0,0-.2.1l-.193.5a.158.158,0,0,0,.077.2l.745.4a3.252,3.252,0,0,0-.073.832,3.44,3.44,0,0,0,.1.709l-.709.454a.16.16,0,0,0-.064.211l.227.484a.163.163,0,0,0,.207.082l.77-.252a3.35,3.35,0,0,0,1.131,1.068l-.182.745a.162.162,0,0,0,.1.2l.5.191a.166.166,0,0,0,.207-.08l.364-.684a3.413,3.413,0,0,0,1.484-.043l.409.643a.159.159,0,0,0,.209.064l.488-.227a.156.156,0,0,0,.082-.2l-.225-.7a3.319,3.319,0,0,0,1.09-1.163l.734.18a.167.167,0,0,0,.2-.1l.191-.5A.163.163,0,0,0,723.449,445.521Zm-3.849,1.345a2.342,2.342,0,1,1,2.251-2.424A2.342,2.342,0,0,1,719.6,446.866Zm-.152-4.208a1.87,1.87,0,1,0,1.933,1.8A1.871,1.871,0,0,0,719.448,442.658Zm.093,2.556a.688.688,0,1,1,.663-.711A.693.693,0,0,1,719.541,445.214Z" transform="translate(-612.947 -401.846)" fill="#6b8ea5"/>
              <path id="路径_5413" data-name="路径 5413" d="M717.8,442.3a.994.994,0,0,0-.932.525.575.575,0,0,1-.491-.184,2.74,2.74,0,0,1-.67-2.081.955.955,0,0,1,.011-.141c-.016-.041-.086-.014-.13,0l-1.4.432s-.416.1-.42.384a.371.371,0,0,0,.182.352l.023.016a.956.956,0,0,1,.3.775,1,1,0,1,1-1.988-.111,1.118,1.118,0,0,1,.027-.186,1.5,1.5,0,0,0,.052-.164c.027-.216-.1-.441-.286-.413l-1.745.538c-.057.021-.166.068-.13.12a3.183,3.183,0,0,1,.6,2.036c0,.045.043.339-.42.316a.923.923,0,0,0-.266-.052A.994.994,0,1,0,710.9,446a.825.825,0,0,1,.561.254,3.42,3.42,0,0,1,.525,1.918c0,.1.15.125.248.1l1.718-.529a.206.206,0,0,0-.052-.377.893.893,0,0,1-.436-.868,1,1,0,0,1,1.988.111,1.086,1.086,0,0,1-.045.248.214.214,0,0,0-.027.107.24.24,0,0,0,.2.259.25.25,0,0,0,.07,0l1.843-.57c.025-.007.061-.018.05-.036a2.807,2.807,0,0,1-.581-1.986.728.728,0,0,1,.057-.207.431.431,0,0,1,.4-.232,1.525,1.525,0,0,0,.323.073.935.935,0,0,0,1.007-.913A1,1,0,0,0,717.8,442.3Z" transform="translate(-621.043 -401.86)" fill="#33afcc"/>
              <rect id="矩形_1706" data-name="矩形 1706" width="61.209" height="4.291" transform="translate(22.497 10.24)" fill="#0b253f"/>
              <g id="组_2888" data-name="组 2888" transform="translate(22.497 18.215)">
                <rect id="矩形_1707" data-name="矩形 1707" width="24.79" height="1.473" fill="#adadad"/>
                <rect id="矩形_1708" data-name="矩形 1708" width="24.79" height="1.472" transform="translate(0 1.798)" fill="#adadad"/>
                <rect id="矩形_1709" data-name="矩形 1709" width="24.79" height="1.471" transform="translate(0 3.64)" fill="#adadad"/>
                <rect id="矩形_1710" data-name="矩形 1710" width="24.79" height="1.471" transform="translate(0 5.478)" fill="#adadad"/>
                <rect id="矩形_1711" data-name="矩形 1711" width="24.79" height="1.473" transform="translate(0 7.367)" fill="#adadad"/>
              </g>
              <g id="组_2889" data-name="组 2889" transform="translate(22.497 30.994)">
                <rect id="矩形_1712" data-name="矩形 1712" width="24.79" height="1.473" fill="#adadad"/>
                <rect id="矩形_1713" data-name="矩形 1713" width="24.79" height="1.471" transform="translate(0 1.799)" fill="#adadad"/>
                <rect id="矩形_1714" data-name="矩形 1714" width="24.79" height="1.471" transform="translate(0 3.64)" fill="#adadad"/>
                <rect id="矩形_1715" data-name="矩形 1715" width="24.79" height="1.472" transform="translate(0 5.476)" fill="#adadad"/>
                <rect id="矩形_1716" data-name="矩形 1716" width="24.79" height="1.47" transform="translate(0 7.369)" fill="#adadad"/>
              </g>
              <g id="组_2890" data-name="组 2890" transform="translate(86.903 12.649)">
                <rect id="矩形_1717" data-name="矩形 1717" width="24.79" height="1.472" fill="#adadad"/>
                <rect id="矩形_1718" data-name="矩形 1718" width="24.79" height="1.47" transform="translate(0 1.798)" fill="#adadad"/>
                <rect id="矩形_1719" data-name="矩形 1719" width="24.79" height="1.472" transform="translate(0 3.64)" fill="#adadad"/>
                <rect id="矩形_1720" data-name="矩形 1720" width="24.79" height="1.469" transform="translate(0 5.479)" fill="#adadad"/>
                <rect id="矩形_1721" data-name="矩形 1721" width="24.79" height="1.472" transform="translate(0 7.367)" fill="#adadad"/>
              </g>
              <g id="组_2891" data-name="组 2891" transform="translate(86.903 24.415)">
                <rect id="矩形_1722" data-name="矩形 1722" width="24.79" height="1.471" fill="#adadad"/>
                <rect id="矩形_1723" data-name="矩形 1723" width="24.79" height="1.471" transform="translate(0 1.799)" fill="#adadad"/>
                <rect id="矩形_1724" data-name="矩形 1724" width="24.79" height="1.47" transform="translate(0 3.641)" fill="#adadad"/>
                <rect id="矩形_1725" data-name="矩形 1725" width="24.79" height="1.471" transform="translate(0 5.478)" fill="#adadad"/>
                <rect id="矩形_1726" data-name="矩形 1726" width="24.79" height="1.47" transform="translate(0 7.369)" fill="#adadad"/>
                <rect id="矩形_1727" data-name="矩形 1727" width="24.79" height="1.473" transform="translate(0 9.21)" fill="#adadad"/>
              </g>
              <path id="路径_5414" data-name="路径 5414" d="M702.412,439.074a.155.155,0,0,0-.016-.068,5.532,5.532,0,0,0-.363-1.586,5.828,5.828,0,0,0-2-1.173,1.053,1.053,0,0,1-.266-.429,1.984,1.984,0,0,0,.468-.782,1.087,1.087,0,0,0,.291-.786c0-.186-.055-.259-.143-.289a2.283,2.283,0,0,0-.061-1.047,1.8,1.8,0,0,0-1.474-.845,1.6,1.6,0,0,0-1.34.766,2.225,2.225,0,0,0-.057,1.1c-.1.025-.159.1-.159.293,0,.286.128.743.332.807a2.156,2.156,0,0,0,.454.747,1.119,1.119,0,0,1-.282.463,5.825,5.825,0,0,0-1.995,1.173,5.461,5.461,0,0,0-.366,1.586.2.2,0,0,0-.016.068l0,.023,0,.016h0c.084.443,1.613.793,3.492.793s3.406-.35,3.49-.793h0v-.039Zm-4.476-1.706-.05-.911.266-.427.627.5-.012,0-.193.211.179.372-.114.582-.35-.679Zm1.979-.014-.338-.361-.3.711-.134-.563.18-.416-.191-.223.55-.491.266.432Z" transform="translate(-638.416 -412.45)" fill="#6b8ea5"/>
              <g id="组_2899" data-name="组 2899" transform="translate(69.771 19.619)">
                <g id="组_2898" data-name="组 2898">
                  <g id="组_2893" data-name="组 2893" transform="translate(0 0.866)">
                    <g id="组_2892" data-name="组 2892">
                      <path id="路径_5415" data-name="路径 5415" d="M704.044,435.04a1.384,1.384,0,0,0,.323-.539.756.756,0,0,0,.2-.545c0-.127-.036-.177-.1-.2a1.59,1.59,0,0,0-.043-.722,1.24,1.24,0,0,0-1.02-.586,1.106,1.106,0,0,0-.922.527,1.5,1.5,0,0,0-.041.761c-.07.02-.109.068-.109.2,0,.2.089.514.227.559a1.486,1.486,0,0,0,.313.514.718.718,0,0,1-.2.32,4,4,0,0,0-1.375.813,3.786,3.786,0,0,0-.255,1.1.106.106,0,0,0-.011.048l0,.011,0,.011h0c.054.291.938.523,2.138.547l0-.036a2.886,2.886,0,0,1,.3-1.027l.041-.045h0a5.07,5.07,0,0,1,1.577-1.007,6.486,6.486,0,0,0-.877-.411A.766.766,0,0,1,704.044,435.04Zm-.693.5-.132.145.125.257-.08.4-.239-.47-.252.239-.03-.627.184-.3.429.352Zm.793.566-.234-.25-.207.488-.1-.384.13-.289-.134-.154.377-.341.189.3Z" transform="translate(-701.04 -432.45)" fill="#6b8ea5"/>
                    </g>
                  </g>
                  <g id="组_2895" data-name="组 2895" transform="translate(7.3 0.866)">
                    <g id="组_2894" data-name="组 2894">
                      <path id="路径_5416" data-name="路径 5416" d="M708.345,437.292a.153.153,0,0,0-.009-.048,3.784,3.784,0,0,0-.254-1.1,4.049,4.049,0,0,0-1.377-.813.764.764,0,0,1-.186-.3,1.386,1.386,0,0,0,.327-.539.765.765,0,0,0,.2-.545c0-.127-.036-.177-.1-.2a1.559,1.559,0,0,0-.043-.722,1.234,1.234,0,0,0-1.018-.586,1.109,1.109,0,0,0-.922.527,1.5,1.5,0,0,0-.043.761c-.07.02-.109.068-.109.2,0,.2.091.514.229.559a1.453,1.453,0,0,0,.314.514.786.786,0,0,1-.193.32,5.89,5.89,0,0,0-.907.434,4.836,4.836,0,0,1,1.6,1.029,3.21,3.21,0,0,1,.291,1.063c1.2-.025,2.151-.257,2.2-.547h0l0-.011Zm-2.515-1.756-.132.145.123.257-.082.4-.238-.468-.246.239-.036-.627.184-.3.434.352Zm.789.566-.227-.25-.214.491-.091-.386.125-.289-.13-.154.373-.341.186.3Z" transform="translate(-704.253 -432.45)" fill="#6b8ea5"/>
                    </g>
                  </g>
                  <g id="组_2897" data-name="组 2897" transform="translate(2.183)">
                    <g id="组_2896" data-name="组 2896">
                      <path id="路径_5417" data-name="路径 5417" d="M708.994,439.074a.192.192,0,0,0-.013-.068,5.671,5.671,0,0,0-.368-1.586,5.844,5.844,0,0,0-1.995-1.173,1.076,1.076,0,0,1-.268-.432,2,2,0,0,0,.473-.779,1.106,1.106,0,0,0,.286-.788c0-.184-.052-.259-.139-.286a2.309,2.309,0,0,0-.064-1.047,1.806,1.806,0,0,0-1.477-.845,1.593,1.593,0,0,0-1.336.766,2.195,2.195,0,0,0-.061,1.1c-.1.025-.157.1-.157.291,0,.289.127.745.329.809a2.3,2.3,0,0,0,.452.747,1.1,1.1,0,0,1-.277.463,5.8,5.8,0,0,0-1.995,1.173,5.665,5.665,0,0,0-.37,1.586.263.263,0,0,0-.014.068l0,.023,0,.016h0c.082.443,1.618.793,3.492.793s3.408-.35,3.494-.793h0l0-.016Zm-4.48-1.708-.046-.909.266-.427.623.5-.009,0-.191.209.18.375-.114.579-.35-.679Zm1.981-.011-.336-.361-.3.711-.136-.563.182-.416-.189-.223.545-.491.268.432Z" transform="translate(-702.001 -432.069)" fill="#6b8ea5"/>
                    </g>
                  </g>
                </g>
              </g>
              <g id="组_2905" data-name="组 2905" transform="translate(69.594 30.536)">
                <rect id="矩形_1728" data-name="矩形 1728" width="7.721" height="4.563" transform="translate(4.374 0)" fill="#6b8ea5"/>
                <g id="组_2903" data-name="组 2903">
                  <g id="组_2900" data-name="组 2900">
                    <path id="路径_5418" data-name="路径 5418" d="M701.859,436.874H705.3a.227.227,0,0,1,.225.227v4.108a.227.227,0,0,1-.225.227h-4.108a.23.23,0,0,1-.232-.227v-3.44Z" transform="translate(-700.962 -436.874)" fill="#a55897"/>
                    <path id="路径_5419" data-name="路径 5419" d="M701.707,437.769a.153.153,0,0,0,.154-.152v-.743l-.9.9Z" transform="translate(-700.962 -436.874)" fill="#83dcff"/>
                  </g>
                  <g id="组_2902" data-name="组 2902" transform="translate(0.65 1.15)">
                    <g id="组_2901" data-name="组 2901">
                      <path id="路径_5420" data-name="路径 5420" d="M702.132,438.293a.379.379,0,0,0,.1-.166c.039-.021.059-.109.059-.166,0-.039-.009-.057-.027-.061a.51.51,0,0,0-.011-.223.4.4,0,0,0-.316-.18.337.337,0,0,0-.284.161.494.494,0,0,0-.014.234c-.018.007-.034.023-.034.064,0,.061.029.157.068.17a.5.5,0,0,0,.1.159.347.347,0,0,1-.057.1,1.145,1.145,0,0,0-.386.25,1.051,1.051,0,0,0-.079.336l0,.014V439h0c.016.089.155.161.525.168v-.009a.721.721,0,0,1,.1-.318l.02-.021a1.755,1.755,0,0,1,.532-.311,1.614,1.614,0,0,0-.241-.118A.319.319,0,0,1,702.132,438.293Zm-.214.152-.039.048.036.077-.025.125-.075-.145-.075.073-.011-.193.061-.089.13.1Zm.245.175-.07-.075-.066.15-.027-.118.036-.089-.039-.05.114-.1.059.093Z" transform="translate(-701.248 -437.23)" fill="#d1e6e8"/>
                      <path id="路径_5421" data-name="路径 5421" d="M703.354,438.986l0-.014a1.194,1.194,0,0,0-.079-.336,1.166,1.166,0,0,0-.384-.25.218.218,0,0,1-.057-.093.374.374,0,0,0,.1-.166c.041-.021.061-.109.061-.166,0-.039-.007-.057-.03-.061a.4.4,0,0,0-.014-.223.374.374,0,0,0-.311-.18.335.335,0,0,0-.284.161.443.443,0,0,0-.014.234c-.023.007-.034.023-.034.064,0,.061.027.157.07.17a.462.462,0,0,0,.1.159.213.213,0,0,1-.059.1,1.423,1.423,0,0,0-.247.12,1.484,1.484,0,0,1,.536.323.767.767,0,0,1,.109.33c.366-.007.527-.075.545-.164h0v-.009Zm-.736-.541-.041.048.039.077-.025.125-.073-.145-.075.073-.011-.193.054-.089.134.1Zm.243.175-.07-.075-.066.15-.027-.118.039-.089-.041-.05.118-.1.055.093Z" transform="translate(-700.084 -437.23)" fill="#d1e6e8"/>
                      <path id="路径_5422" data-name="路径 5422" d="M703.644,439.538l0-.023a1.786,1.786,0,0,0-.111-.491,1.893,1.893,0,0,0-.614-.359c-.025-.009-.059-.07-.084-.132a.663.663,0,0,0,.145-.241.364.364,0,0,0,.089-.243c0-.057-.016-.077-.045-.086a.747.747,0,0,0-.018-.323.553.553,0,0,0-.454-.261.491.491,0,0,0-.411.234.672.672,0,0,0-.021.341c-.029.009-.045.029-.045.089,0,.089.036.229.1.25a.678.678,0,0,0,.141.229.4.4,0,0,1-.086.143,1.782,1.782,0,0,0-.616.359,1.566,1.566,0,0,0-.111.491l0,.023v.009h0c.023.138.5.245,1.072.245s1.052-.107,1.079-.245h0v-.009Zm-1.379-.527-.013-.279.082-.134.193.157h0l-.061.064.054.118-.036.177-.107-.211Zm.607,0-.1-.111-.093.22-.041-.175.055-.127-.057-.068.166-.152.082.134Z" transform="translate(-700.938 -437.38)" fill="#d1e6e8"/>
                    </g>
                  </g>
                </g>
                <g id="组_2904" data-name="组 2904" transform="translate(5.807 1.285)">
                  <rect id="矩形_1729" data-name="矩形 1729" width="4.95" height="0.354" fill="#d1e6e8"/>
                  <rect id="矩形_1730" data-name="矩形 1730" width="4.95" height="0.353" transform="translate(0 0.589)" fill="#d1e6e8"/>
                  <rect id="矩形_1731" data-name="矩形 1731" width="4.95" height="0.353" transform="translate(0 1.18)" fill="#d1e6e8"/>
                  <rect id="矩形_1732" data-name="矩形 1732" width="4.95" height="0.354" transform="translate(0 1.781)" fill="#d1e6e8"/>
                </g>
              </g>
              <g id="组_2910" data-name="组 2910" transform="translate(54.634 38.909)">
                <g id="组_2906" data-name="组 2906">
                  <rect id="矩形_1733" data-name="矩形 1733" width="12.871" height="1.471" fill="#0b253f"/>
                  <rect id="矩形_1734" data-name="矩形 1734" width="12.871" height="1.472" transform="translate(0 1.797)" fill="#adadad"/>
                  <rect id="矩形_1735" data-name="矩形 1735" width="12.871" height="1.471" transform="translate(0 3.639)" fill="#adadad"/>
                  <rect id="矩形_1736" data-name="矩形 1736" width="12.871" height="1.471" transform="translate(0 5.476)" fill="#adadad"/>
                  <rect id="矩形_1737" data-name="矩形 1737" width="12.871" height="1.474" transform="translate(0 7.365)" fill="#adadad"/>
                </g>
                <g id="组_2907" data-name="组 2907" transform="translate(14.87)">
                  <rect id="矩形_1738" data-name="矩形 1738" width="12.869" height="1.471" fill="#0b253f"/>
                  <rect id="矩形_1739" data-name="矩形 1739" width="12.869" height="1.472" transform="translate(0 1.797)" fill="#adadad"/>
                  <rect id="矩形_1740" data-name="矩形 1740" width="12.869" height="1.471" transform="translate(0 3.639)" fill="#adadad"/>
                  <rect id="矩形_1741" data-name="矩形 1741" width="12.869" height="1.471" transform="translate(0 5.476)" fill="#adadad"/>
                  <rect id="矩形_1742" data-name="矩形 1742" width="12.869" height="1.474" transform="translate(0 7.365)" fill="#adadad"/>
                </g>
                <g id="组_2908" data-name="组 2908" transform="translate(0 10.792)">
                  <rect id="矩形_1743" data-name="矩形 1743" width="12.871" height="1.471" fill="#adadad"/>
                  <rect id="矩形_1744" data-name="矩形 1744" width="12.871" height="1.474" transform="translate(0 1.797)" fill="#adadad"/>
                  <rect id="矩形_1745" data-name="矩形 1745" width="12.871" height="1.471" transform="translate(0 3.641)" fill="#adadad"/>
                  <rect id="矩形_1746" data-name="矩形 1746" width="12.871" height="1.472" transform="translate(0 5.477)" fill="#adadad"/>
                  <rect id="矩形_1747" data-name="矩形 1747" width="12.871" height="1.472" transform="translate(0 7.367)" fill="#adadad"/>
                </g>
                <g id="组_2909" data-name="组 2909" transform="translate(14.87 10.792)">
                  <rect id="矩形_1748" data-name="矩形 1748" width="12.869" height="1.471" fill="#adadad"/>
                  <rect id="矩形_1749" data-name="矩形 1749" width="12.869" height="1.474" transform="translate(0 1.797)" fill="#adadad"/>
                  <rect id="矩形_1750" data-name="矩形 1750" width="12.869" height="1.471" transform="translate(0 3.641)" fill="#adadad"/>
                  <rect id="矩形_1751" data-name="矩形 1751" width="12.869" height="1.472" transform="translate(0 5.477)" fill="#adadad"/>
                  <rect id="矩形_1752" data-name="矩形 1752" width="12.869" height="1.472" transform="translate(0 7.367)" fill="#adadad"/>
                </g>
              </g>
              <rect id="矩形_1753" data-name="矩形 1753" width="11.371" height="1.471" transform="translate(86.903 49.701)" fill="#0b253f"/>
              <rect id="矩形_1754" data-name="矩形 1754" width="11.371" height="1.474" transform="translate(86.903 51.499)" fill="#adadad"/>
              <rect id="矩形_1755" data-name="矩形 1755" width="11.371" height="1.471" transform="translate(86.903 53.342)" fill="#adadad"/>
              <rect id="矩形_1756" data-name="矩形 1756" width="11.371" height="1.472" transform="translate(86.903 55.179)" fill="#adadad"/>
              <rect id="矩形_1757" data-name="矩形 1757" width="11.371" height="1.472" transform="translate(86.903 57.069)" fill="#adadad"/>
              <rect id="矩形_1758" data-name="矩形 1758" width="11.373" height="1.471" transform="translate(100.32 49.701)" fill="#0b253f"/>
              <rect id="矩形_1759" data-name="矩形 1759" width="11.373" height="1.474" transform="translate(100.32 51.499)" fill="#adadad"/>
              <rect id="矩形_1760" data-name="矩形 1760" width="11.373" height="1.471" transform="translate(100.32 53.342)" fill="#adadad"/>
              <rect id="矩形_1761" data-name="矩形 1761" width="11.373" height="1.472" transform="translate(100.32 55.179)" fill="#adadad"/>
              <rect id="矩形_1762" data-name="矩形 1762" width="11.373" height="1.472" transform="translate(100.32 57.069)" fill="#adadad"/>
              <g id="组_2915" data-name="组 2915" transform="translate(54.633 30.669)">
                <g id="组_2912" data-name="组 2912" transform="translate(4.359)">
                  <rect id="矩形_1763" data-name="矩形 1763" width="7.719" height="4.561" fill="#6b8ea5"/>
                  <g id="组_2911" data-name="组 2911" transform="translate(1.402 1.151)">
                    <rect id="矩形_1764" data-name="矩形 1764" width="4.95" height="0.354" fill="#d1e6e8"/>
                    <rect id="矩形_1765" data-name="矩形 1765" width="4.95" height="0.353" transform="translate(0 0.589)" fill="#d1e6e8"/>
                    <rect id="矩形_1766" data-name="矩形 1766" width="4.95" height="0.353" transform="translate(0 1.18)" fill="#d1e6e8"/>
                    <rect id="矩形_1767" data-name="矩形 1767" width="4.95" height="0.354" transform="translate(0 1.781)" fill="#d1e6e8"/>
                  </g>
                </g>
                <g id="组_2914" data-name="组 2914" transform="translate(0 0.001)">
                  <g id="组_2913" data-name="组 2913">
                    <path id="路径_5423" data-name="路径 5423" d="M695.274,436.933h3.44a.226.226,0,0,1,.225.227v4.1a.228.228,0,0,1-.225.229H694.6a.228.228,0,0,1-.227-.229v-3.435Z" transform="translate(-694.377 -436.933)" fill="#33afcc"/>
                    <path id="路径_5424" data-name="路径 5424" d="M695.122,437.828a.154.154,0,0,0,.152-.154v-.741l-.9.9Z" transform="translate(-694.377 -436.933)" fill="#15b1ff"/>
                  </g>
                  <path id="路径_5425" data-name="路径 5425" d="M697.062,439.543l0-.02a1.773,1.773,0,0,0-.113-.491,1.916,1.916,0,0,0-.613-.361.306.306,0,0,1-.082-.129.651.651,0,0,0,.145-.243.344.344,0,0,0,.086-.241c0-.057-.016-.079-.043-.086a.753.753,0,0,0-.02-.325.556.556,0,0,0-.454-.261.493.493,0,0,0-.411.236.691.691,0,0,0-.02.339c-.03.011-.045.03-.045.091,0,.089.036.229.1.248a.694.694,0,0,0,.139.232.294.294,0,0,1-.084.141,1.845,1.845,0,0,0-.613.361,1.7,1.7,0,0,0-.114.491l0,.02,0,0,0,.007h0c.025.136.5.245,1.073.245s1.05-.109,1.077-.245h0l0-.007Zm-1.382-.527-.013-.279.082-.132.193.154h0l-.061.066.059.116-.041.177-.1-.207Zm.609,0-.1-.114-.093.22-.043-.173.057-.13-.059-.068.173-.15.079.132Z" transform="translate(-693.702 -436.358)" fill="#d1e6e8"/>
                </g>
              </g>
            </g>
          </g>
        </g>
      </g>
      <path id="路径_5563" data-name="路径 5563" d="M713.131,399.088a24.337,24.337,0,1,0-24.337,24.337h.01A24.338,24.338,0,0,0,713.131,399.088ZM705.8,411.369a30.331,30.331,0,0,0-5.472-2.052,44.809,44.809,0,0,0,1.13-9.2h9.594a22.1,22.1,0,0,1-4.1,11.882C706.58,411.779,706.2,411.57,705.8,411.369Zm1.11-25.253a22.164,22.164,0,0,1,4.143,11.946h-9.6a43.935,43.935,0,0,0-1.157-9.275,30.3,30.3,0,0,0,5.472-2.052C706.161,386.538,706.538,386.33,706.908,386.116Zm-7.5,11.946h-9.583v-7.831a44.572,44.572,0,0,0,8.487-.962A41.394,41.394,0,0,1,699.406,398.062Zm-9.583-9.871V376.916a6.507,6.507,0,0,1,2.845,1.478c2.058,1.711,3.867,4.868,5.1,8.895A41.87,41.87,0,0,1,689.823,388.191Zm-4.9-9.8a6.531,6.531,0,0,1,2.846-1.48v11.263a42.562,42.562,0,0,1-7.935-.9,27.176,27.176,0,0,1,1.64-4.211A14.7,14.7,0,0,1,684.922,378.395Zm2.846,11.846v7.822h-9.574a41.906,41.906,0,0,1,1.1-8.8A45.22,45.22,0,0,0,687.768,390.24Zm-11.633,7.822H666.54a22.167,22.167,0,0,1,4.16-11.969,28.124,28.124,0,0,0,6.582,2.68A44.759,44.759,0,0,0,676.135,398.062Zm0,2.052a44.112,44.112,0,0,0,1.146,9.226,27.975,27.975,0,0,0-6.609,2.706,22.138,22.138,0,0,1-4.135-11.932Zm2.045,0h9.584v7.75a45.3,45.3,0,0,0-8.5.989A41.38,41.38,0,0,1,678.184,400.114Zm9.584,9.814v11.334a6.562,6.562,0,0,1-2.846-1.48c-2.065-1.718-3.882-4.893-5.112-8.942A42.646,42.646,0,0,1,687.768,409.928Zm4.9,9.854a6.556,6.556,0,0,1-2.845,1.48v-11.35a41.9,41.9,0,0,1,7.961.9,26.938,26.938,0,0,1-1.666,4.3A14.657,14.657,0,0,1,692.668,419.782Zm-2.845-11.91v-7.758H699.4a41.846,41.846,0,0,1-1.078,8.713A44.68,44.68,0,0,0,689.823,407.872Zm15.8-23.383a27.323,27.323,0,0,1-5.863,2.313,29.17,29.17,0,0,0-1.8-4.655,17.938,17.938,0,0,0-3.089-4.5,22.283,22.283,0,0,1,9.686,5.683C704.922,383.7,705.276,384.093,705.62,384.489Zm-22.891-6.84a22.454,22.454,0,0,0-4.906,9.134A28.018,28.018,0,0,1,672.8,384.9c-.283-.141-.538-.291-.8-.44.334-.386.68-.763,1.04-1.126A22.275,22.275,0,0,1,682.729,377.649Zm-10.763,36.033c.287-.161.562-.326.868-.476a27.9,27.9,0,0,1,4.986-1.874,29.627,29.627,0,0,0,1.815,4.7,18.107,18.107,0,0,0,3.089,4.5,22.257,22.257,0,0,1-9.685-5.685C672.667,414.471,672.312,414.081,671.966,413.682Zm22.9,6.846a22.563,22.563,0,0,0,4.931-9.223,27.35,27.35,0,0,1,5.878,2.323c-.361.417-.73.826-1.121,1.215A22.229,22.229,0,0,1,694.863,420.528Z" transform="translate(46.395 10.755)" fill="#fff"/>
    </g>
  </g>
</svg>
