<svg xmlns="http://www.w3.org/2000/svg" xmlns:xlink="http://www.w3.org/1999/xlink" width="22.905" height="22.905" viewBox="0 0 22.905 22.905">
  <defs>
    <linearGradient id="linear-gradient" x1="0.5" x2="0.5" y2="1" gradientUnits="objectBoundingBox">
      <stop offset="0" stop-color="#fff33b"/>
      <stop offset="0.427" stop-color="#ed0013"/>
      <stop offset="0.613" stop-color="#db004a"/>
      <stop offset="0.877" stop-color="#c30092"/>
      <stop offset="1" stop-color="#ba00af"/>
    </linearGradient>
  </defs>
  <g id="ig" transform="translate(0 0)">
    <g id="组_9" data-name="组 9">
      <g id="组_6" data-name="组 6">
        <path id="路径_14" data-name="路径 14" d="M569.183,509.276h-9.867a6.526,6.526,0,0,1-6.519-6.519V492.89a6.526,6.526,0,0,1,6.519-6.519h9.867a6.527,6.527,0,0,1,6.519,6.519v9.867A6.526,6.526,0,0,1,569.183,509.276Zm-9.867-20.942a4.561,4.561,0,0,0-4.556,4.556v9.867a4.561,4.561,0,0,0,4.556,4.556h9.867a4.561,4.561,0,0,0,4.556-4.556V492.89a4.561,4.561,0,0,0-4.556-4.556Z" transform="translate(-552.797 -486.371)" fill="url(#linear-gradient)"/>
      </g>
      <g id="组_7" data-name="组 7" transform="translate(5.588 5.588)">
        <path id="路径_15" data-name="路径 15" d="M597.17,536.608a5.865,5.865,0,1,1,5.865-5.865A5.871,5.871,0,0,1,597.17,536.608Zm0-9.766a3.9,3.9,0,1,0,3.9,3.9A3.906,3.906,0,0,0,597.17,526.842Z" transform="translate(-591.305 -524.879)" fill="url(#linear-gradient)"/>
      </g>
      <g id="组_8" data-name="组 8" transform="translate(16.159 3.843)">
        <path id="路径_16" data-name="路径 16" d="M666.976,514.263a1.41,1.41,0,1,1-1.41-1.409A1.409,1.409,0,0,1,666.976,514.263Z" transform="translate(-664.157 -512.853)" fill="url(#linear-gradient)"/>
      </g>
    </g>
  </g>
</svg>
