<svg xmlns="http://www.w3.org/2000/svg" xmlns:xlink="http://www.w3.org/1999/xlink" width="684" height="385.121" viewBox="0 0 684 385.121">
  <defs>
    <linearGradient id="linear-gradient" x1="0.981" y1="0.962" x2="-0.147" y2="-0.122" gradientUnits="objectBoundingBox">
      <stop offset="0" stop-color="#c4b8e9"/>
      <stop offset="0.417" stop-color="#b2cfde"/>
      <stop offset="1" stop-color="#ffcade"/>
    </linearGradient>
    <linearGradient id="linear-gradient-2" x1="8.161" y1="15.8" x2="-14.049" y2="-28.338" xlink:href="#linear-gradient"/>
    <linearGradient id="linear-gradient-3" x1="9.039" y1="9.869" x2="-13.552" y2="-14.905" xlink:href="#linear-gradient"/>
    <linearGradient id="linear-gradient-4" x1="10.367" y1="21.33" x2="-13.692" y2="-29.879" xlink:href="#linear-gradient"/>
    <linearGradient id="linear-gradient-5" x1="11.623" y1="12.703" x2="-10.967" y2="-12.073" xlink:href="#linear-gradient"/>
    <linearGradient id="linear-gradient-6" x1="14.044" y1="29.139" x2="-10.028" y2="-22.069" xlink:href="#linear-gradient"/>
  </defs>
  <g id="issue_extension2" transform="translate(-3154 -1494)">
    <rect id="矩形_2520" data-name="矩形 2520" width="684" height="372" transform="translate(3154 1494)" fill="#f1f2ff"/>
    <g id="组_5231" data-name="组 5231" transform="translate(3522.855 1785.639)">
      <path id="路径_10326" data-name="路径 10326" d="M767.711,301.7l3.779.739a1.617,1.617,0,0,0,.914-.084l3.2-1.377c.66-.285,1.6-.008,1.589.467l-.051,2.3c0,.189.153.368.42.477l3.258,1.33c.672.274.508.876-.279,1.017l-3.811.683a.912.912,0,0,0-.654.379l-1.186,2.2a1.369,1.369,0,0,1-1.761.161l-2.3-1.882a1.325,1.325,0,0,0-.824-.241l-3.99.029c-.824.006-1.3-.536-.809-.917l2.386-1.847a.39.39,0,0,0,.146-.528l-1.281-2.182C766.185,301.98,766.931,301.55,767.711,301.7Z" transform="translate(-765.001 -263.441)" fill="#eae8ed"/>
      <path id="路径_10327" data-name="路径 10327" d="M781.064,293.993l3.779.74a1.615,1.615,0,0,0,.914-.084l3.2-1.379c.66-.284,1.6-.007,1.589.468l-.051,2.3c0,.189.153.367.42.476l3.258,1.33c.674.275.509.876-.279,1.017l-3.811.684a.914.914,0,0,0-.654.377l-1.184,2.2a1.37,1.37,0,0,1-1.762.161l-2.3-1.881a1.332,1.332,0,0,0-.825-.243l-3.99.029c-.824.006-1.3-.535-.809-.917l2.387-1.846a.39.39,0,0,0,.144-.528l-1.282-2.182C779.539,294.271,780.284,293.84,781.064,293.993Z" transform="translate(-762.149 -265.088)" fill="#eae8ed"/>
      <path id="路径_10328" data-name="路径 10328" d="M794.417,286.284l3.779.739a1.61,1.61,0,0,0,.915-.084l3.2-1.377c.66-.285,1.6-.008,1.589.467l-.051,2.3c0,.188.153.366.421.476l3.257,1.33c.674.274.508.876-.279,1.017l-3.811.684a.91.91,0,0,0-.654.377l-1.184,2.2a1.37,1.37,0,0,1-1.761.161l-2.3-1.881a1.324,1.324,0,0,0-.825-.243l-3.99.029c-.824.006-1.3-.536-.81-.917l2.387-1.847a.388.388,0,0,0,.144-.527l-1.281-2.182C792.891,286.561,793.637,286.131,794.417,286.284Z" transform="translate(-759.297 -266.735)" fill="#eae8ed"/>
      <path id="路径_10329" data-name="路径 10329" d="M807.77,278.574l3.78.74a1.616,1.616,0,0,0,.914-.084l3.2-1.379c.66-.284,1.6-.007,1.589.468l-.051,2.3c0,.189.153.366.421.476l3.258,1.331c.672.274.507.875-.279,1.017l-3.812.683a.914.914,0,0,0-.654.377l-1.184,2.2a1.368,1.368,0,0,1-1.761.161l-2.3-1.881a1.33,1.33,0,0,0-.824-.243l-3.992.029c-.824.006-1.3-.535-.809-.917l2.387-1.846a.39.39,0,0,0,.144-.528l-1.281-2.182C806.245,278.852,806.99,278.421,807.77,278.574Z" transform="translate(-756.445 -268.381)" fill="#eae8ed"/>
      <path id="路径_10330" data-name="路径 10330" d="M821.124,270.865l3.779.739a1.617,1.617,0,0,0,.914-.083l3.2-1.379c.661-.285,1.6-.008,1.59.467l-.051,2.3c0,.188.153.367.42.476l3.258,1.33c.672.276.507.876-.279,1.017l-3.811.684a.91.91,0,0,0-.655.377L828.3,279a1.369,1.369,0,0,1-1.761.161l-2.3-1.881a1.32,1.32,0,0,0-.824-.243l-3.99.029c-.824.006-1.3-.536-.811-.917L821,274.3a.389.389,0,0,0,.144-.527l-1.282-2.182C819.6,271.142,820.343,270.712,821.124,270.865Z" transform="translate(-753.593 -270.028)" fill="#eae8ed"/>
    </g>
    <g id="组_5232" data-name="组 5232" transform="translate(3185.78 1509.679)">
      <g id="组_5190" data-name="组 5190" transform="translate(132.152 109.43)">
        <path id="路径_10331" data-name="路径 10331" d="M681.317,299.221l4.7.921a2.012,2.012,0,0,0,1.137-.1l3.979-1.715c.823-.353,1.99-.011,1.978.581l-.063,2.868c-.006.236.19.456.523.592l4.054,1.655c.837.343.631,1.09-.347,1.265l-4.742.852a1.138,1.138,0,0,0-.815.47l-1.474,2.738a1.7,1.7,0,0,1-2.191.2l-2.868-2.341a1.653,1.653,0,0,0-1.025-.3l-4.965.036c-1.025.008-1.622-.666-1.009-1.142l2.97-2.3a.486.486,0,0,0,.18-.657l-1.595-2.715C679.418,299.567,680.345,299.03,681.317,299.221Z" transform="translate(-677.944 -251.612)" fill="#eae8ed"/>
        <path id="路径_10332" data-name="路径 10332" d="M694.67,291.51l4.7.921a2.013,2.013,0,0,0,1.137-.1l3.98-1.714c.822-.355,1.99-.011,1.977.581l-.063,2.866c-.006.236.19.458.522.593l4.055,1.655c.837.341.633,1.089-.347,1.265l-4.742.85a1.135,1.135,0,0,0-.814.471l-1.475,2.738a1.7,1.7,0,0,1-2.191.2l-2.868-2.341a1.639,1.639,0,0,0-1.025-.3l-4.965.036c-1.025.008-1.62-.667-1.007-1.142l2.969-2.3a.486.486,0,0,0,.181-.657l-1.595-2.715C692.772,291.856,693.7,291.322,694.67,291.51Z" transform="translate(-671.133 -255.544)" fill="#eae8ed"/>
        <path id="路径_10333" data-name="路径 10333" d="M708.023,283.8l4.7.921a2.011,2.011,0,0,0,1.137-.1l3.981-1.715c.821-.353,1.99-.011,1.977.583l-.063,2.866c0,.236.19.456.523.592l4.055,1.655c.838.343.633,1.09-.347,1.265l-4.742.852a1.137,1.137,0,0,0-.814.47l-1.474,2.738a1.7,1.7,0,0,1-2.193.2l-2.866-2.341a1.657,1.657,0,0,0-1.027-.3l-4.965.036c-1.025.008-1.62-.666-1.007-1.142l2.97-2.3a.486.486,0,0,0,.18-.657l-1.595-2.715C706.125,284.147,707.052,283.611,708.023,283.8Z" transform="translate(-664.321 -259.477)" fill="#eae8ed"/>
        <path id="路径_10334" data-name="路径 10334" d="M721.376,276.093l4.7.92a2.017,2.017,0,0,0,1.139-.1l3.979-1.714c.822-.355,1.99-.01,1.977.581l-.063,2.866c0,.236.19.458.524.593l4.053,1.655c.838.341.633,1.09-.347,1.265l-4.742.85a1.138,1.138,0,0,0-.814.471l-1.474,2.738a1.7,1.7,0,0,1-2.191.2l-2.868-2.342a1.646,1.646,0,0,0-1.027-.3l-4.965.036c-1.025.008-1.62-.667-1.007-1.142l2.97-2.3a.485.485,0,0,0,.18-.657L719.807,277C719.478,276.437,720.4,275.9,721.376,276.093Z" transform="translate(-657.51 -263.409)" fill="#eae8ed"/>
        <path id="路径_10335" data-name="路径 10335" d="M734.729,268.383l4.7.921a2.011,2.011,0,0,0,1.137-.1l3.979-1.715c.822-.353,1.99-.009,1.977.583l-.063,2.866c0,.236.19.456.524.592l4.055,1.655c.836.343.631,1.09-.347,1.265l-4.743.852a1.137,1.137,0,0,0-.814.47l-1.474,2.738a1.7,1.7,0,0,1-2.191.2l-2.868-2.341a1.655,1.655,0,0,0-1.025-.3l-4.967.036c-1.026.008-1.62-.666-1.007-1.142l2.97-2.3a.486.486,0,0,0,.18-.657l-1.595-2.715C732.831,268.728,733.758,268.192,734.729,268.383Z" transform="translate(-650.7 -267.342)" fill="#eae8ed"/>
      </g>
      <g id="组_5191" data-name="组 5191" transform="translate(330.859 205.287)">
        <path id="路径_10336" data-name="路径 10336" d="M812.9,362.7l4.7.921a2.018,2.018,0,0,0,1.139-.1l3.979-1.715c.821-.353,1.99-.009,1.977.583l-.064,2.866c0,.236.19.456.524.592l4.053,1.655c.838.343.633,1.09-.347,1.265l-4.742.852a1.137,1.137,0,0,0-.814.47l-1.474,2.738a1.7,1.7,0,0,1-2.191.2l-2.868-2.341a1.657,1.657,0,0,0-1.027-.3l-4.965.036c-1.025.008-1.62-.666-1.007-1.142l2.97-2.3a.486.486,0,0,0,.18-.657l-1.595-2.715C811.006,363.044,811.933,362.508,812.9,362.7Z" transform="translate(-809.532 -315.09)" fill="#eae8ed"/>
        <path id="路径_10337" data-name="路径 10337" d="M826.257,354.99l4.7.92a2,2,0,0,0,1.137-.1l3.979-1.714c.821-.355,1.99-.011,1.977.581l-.064,2.866c0,.236.19.458.524.594l4.055,1.655c.837.341.631,1.09-.347,1.265l-4.743.852a1.132,1.132,0,0,0-.814.47l-1.474,2.738a1.7,1.7,0,0,1-2.191.2l-2.867-2.342a1.655,1.655,0,0,0-1.026-.3l-4.967.036c-1.025.008-1.62-.667-1.007-1.142l2.97-2.3a.484.484,0,0,0,.18-.655l-1.595-2.715C824.359,355.334,825.286,354.8,826.257,354.99Z" transform="translate(-802.721 -319.023)" fill="#eae8ed"/>
        <path id="路径_10338" data-name="路径 10338" d="M839.611,347.28l4.7.921a2.012,2.012,0,0,0,1.137-.1l3.979-1.715c.823-.353,1.99-.009,1.978.583l-.063,2.866c-.006.236.19.456.523.592l4.054,1.657c.837.341.631,1.089-.347,1.265l-4.742.85a1.137,1.137,0,0,0-.815.47l-1.474,2.738a1.7,1.7,0,0,1-2.191.2l-2.868-2.341a1.652,1.652,0,0,0-1.025-.3l-4.965.036c-1.025.008-1.622-.666-1.009-1.142l2.97-2.3a.485.485,0,0,0,.18-.657l-1.594-2.715C837.712,347.625,838.639,347.089,839.611,347.28Z" transform="translate(-795.91 -322.955)" fill="#eae8ed"/>
        <path id="路径_10339" data-name="路径 10339" d="M852.964,339.571l4.7.92a2,2,0,0,0,1.137-.1l3.98-1.714c.821-.355,1.99-.011,1.977.581l-.064,2.868c-.006.234.19.456.522.592l4.055,1.655c.837.343.633,1.09-.347,1.266l-4.742.852a1.129,1.129,0,0,0-.814.47l-1.475,2.738a1.7,1.7,0,0,1-2.191.2l-2.868-2.341a1.641,1.641,0,0,0-1.026-.3l-4.965.036c-1.025.008-1.62-.667-1.007-1.142l2.969-2.3a.484.484,0,0,0,.181-.655l-1.595-2.715C851.066,339.915,851.993,339.381,852.964,339.571Z" transform="translate(-789.098 -326.888)" fill="#eae8ed"/>
        <path id="路径_10340" data-name="路径 10340" d="M866.317,331.86l4.7.921a2.011,2.011,0,0,0,1.137-.1l3.981-1.714c.821-.355,1.99-.011,1.977.581l-.063,2.866c0,.236.19.458.523.592l4.055,1.657c.838.341.633,1.089-.347,1.265l-4.742.85a1.138,1.138,0,0,0-.814.47l-1.474,2.738a1.7,1.7,0,0,1-2.193.2l-2.866-2.341a1.657,1.657,0,0,0-1.027-.3l-4.965.036c-1.025.008-1.62-.666-1.007-1.142l2.97-2.3a.485.485,0,0,0,.18-.657l-1.595-2.715C864.419,332.206,865.346,331.67,866.317,331.86Z" transform="translate(-782.287 -330.82)" fill="#eae8ed"/>
      </g>
      <g id="组_5199" data-name="组 5199" transform="translate(0)">
        <g id="组_5193" data-name="组 5193">
          <g id="组_5192" data-name="组 5192" transform="translate(0 90.724)">
            <path id="路径_10341" data-name="路径 10341" d="M712.045,295.162,605.552,356.681a13.842,13.842,0,0,1-12.528,0h0c-3.458-2-3.458-5.238,0-7.236l106.495-61.519a13.829,13.829,0,0,1,12.526,0h0C715.5,289.923,715.5,293.162,712.045,295.162Z" transform="translate(-590.43 -238.901)" fill="#eae8ed"/>
            <path id="路径_10342" data-name="路径 10342" d="M749.565,263.69l-56.28,32.51a13.839,13.839,0,0,1-12.526,0h0c-3.46-2-3.46-5.238,0-7.236l56.279-32.512a13.838,13.838,0,0,1,12.526,0h0C753.023,258.451,753.023,261.691,749.565,263.69Z" transform="translate(-545.68 -254.954)" fill="#eae8ed"/>
          </g>
          <path id="路径_10343" data-name="路径 10343" d="M732.952,261.708,626.459,323.227a13.842,13.842,0,0,1-12.528,0h0c-3.46-2-3.46-5.238,0-7.236l106.495-61.52a13.839,13.839,0,0,1,12.526,0v0C736.412,256.469,736.412,259.709,732.952,261.708Z" transform="translate(-579.767 -165.241)" fill="#eae8ed"/>
          <path id="路径_10344" data-name="路径 10344" d="M823.13,209.614,716.635,271.133a13.829,13.829,0,0,1-12.526,0h0c-3.459-2-3.459-5.238,0-7.236L810.6,202.377a13.829,13.829,0,0,1,12.526,0h0C826.59,204.375,826.59,207.616,823.13,209.614Z" transform="translate(-533.769 -191.813)" fill="#eae8ed"/>
          <path id="路径_10345" data-name="路径 10345" d="M863.632,228.97,757.138,290.489a13.839,13.839,0,0,1-12.526,0h0c-3.46-2-3.46-5.238,0-7.236l106.495-61.519a13.829,13.829,0,0,1,12.526,0h0C867.092,223.731,867.092,226.97,863.632,228.97Z" transform="translate(-513.111 -181.94)" fill="#eae8ed"/>
          <path id="路径_10346" data-name="路径 10346" d="M705.1,305.85l-31.171,18.006a13.829,13.829,0,0,1-12.526,0h0c-3.46-2-3.46-5.237,0-7.236l31.171-18.006a13.829,13.829,0,0,1,12.526,0h0C708.564,300.611,708.564,303.852,705.1,305.85Z" transform="translate(-555.551 -142.725)" fill="#eae8ed"/>
          <path id="路径_10347" data-name="路径 10347" d="M882.089,203.609l-31.172,18.008a13.838,13.838,0,0,1-12.526,0h0c-3.459-2-3.459-5.238,0-7.236l31.171-18.008a13.842,13.842,0,0,1,12.528,0h0C885.547,198.372,885.547,201.612,882.089,203.609Z" transform="translate(-465.276 -194.875)" fill="#eae8ed"/>
          <path id="路径_10348" data-name="路径 10348" d="M746.981,232.226,640.487,293.745a13.83,13.83,0,0,1-12.526,0h0c-3.46-2-3.46-5.237,0-7.236L734.455,224.99a13.839,13.839,0,0,1,12.526,0h0C750.441,226.988,750.441,230.229,746.981,232.226Z" transform="translate(-572.611 -180.278)" fill="#eae8ed"/>
          <path id="路径_10349" data-name="路径 10349" d="M765.438,206.868l-31.172,18.006a13.83,13.83,0,0,1-12.526,0h0c-3.459-2-3.459-5.237,0-7.236l31.171-18.006a13.832,13.832,0,0,1,12.528,0h0C768.9,201.629,768.9,204.868,765.438,206.868Z" transform="translate(-524.777 -193.213)" fill="#eae8ed"/>
        </g>
        <g id="组_5195" data-name="组 5195" transform="translate(5.621 143.44)">
          <g id="组_5194" data-name="组 5194" transform="translate(0 90.724)">
            <path id="路径_10350" data-name="路径 10350" d="M715.768,390.151,609.273,451.67a13.839,13.839,0,0,1-12.526,0h0c-3.46-2-3.46-5.238,0-7.236l106.493-61.519a13.833,13.833,0,0,1,12.528,0h0C719.227,384.912,719.227,388.151,715.768,390.151Z" transform="translate(-594.153 -333.89)" fill="#eae8ed"/>
            <path id="路径_10351" data-name="路径 10351" d="M753.286,358.679l-56.279,32.51a13.841,13.841,0,0,1-12.528,0h0c-3.458-2-3.458-5.238,0-7.236l56.279-32.512a13.842,13.842,0,0,1,12.528,0h0C756.746,353.44,756.746,356.68,753.286,358.679Z" transform="translate(-549.402 -349.943)" fill="#eae8ed"/>
          </g>
          <path id="路径_10352" data-name="路径 10352" d="M736.675,356.7,630.18,418.216a13.838,13.838,0,0,1-12.526,0h0c-3.46-2-3.46-5.238,0-7.236l106.493-61.52a13.842,13.842,0,0,1,12.528,0h0C740.133,351.458,740.133,354.7,736.675,356.7Z" transform="translate(-583.489 -260.23)" fill="#eae8ed"/>
          <path id="路径_10353" data-name="路径 10353" d="M826.852,304.6,720.358,366.122a13.832,13.832,0,0,1-12.527,0h0c-3.458-2-3.458-5.238,0-7.236l106.495-61.519a13.829,13.829,0,0,1,12.526,0h0C830.312,299.364,830.312,302.6,826.852,304.6Z" transform="translate(-537.491 -286.802)" fill="#eae8ed"/>
          <path id="路径_10354" data-name="路径 10354" d="M867.354,323.959,760.861,385.478a13.842,13.842,0,0,1-12.528,0h0c-3.458-2-3.458-5.238,0-7.236l106.495-61.52a13.839,13.839,0,0,1,12.526,0h0C870.813,318.72,870.813,321.96,867.354,323.959Z" transform="translate(-516.833 -276.929)" fill="#eae8ed"/>
          <path id="路径_10355" data-name="路径 10355" d="M708.828,400.839l-31.172,18.006a13.83,13.83,0,0,1-12.526,0h0c-3.46-2-3.46-5.237,0-7.236L696.3,393.6a13.833,13.833,0,0,1,12.528,0h0C712.286,395.6,712.286,398.839,708.828,400.839Z" transform="translate(-559.273 -237.714)" fill="#eae8ed"/>
          <path id="路径_10356" data-name="路径 10356" d="M885.811,298.6,854.64,316.606a13.841,13.841,0,0,1-12.528,0h0c-3.458-2-3.458-5.238,0-7.236l31.172-18.008a13.839,13.839,0,0,1,12.526,0h0C889.27,293.36,889.27,296.6,885.811,298.6Z" transform="translate(-468.999 -289.864)" fill="#eae8ed"/>
          <path id="路径_10357" data-name="路径 10357" d="M750.7,327.215,644.21,388.734a13.833,13.833,0,0,1-12.528,0h0c-3.458-2-3.458-5.237,0-7.236l106.495-61.519a13.839,13.839,0,0,1,12.526,0h0C754.162,321.977,754.162,325.218,750.7,327.215Z" transform="translate(-576.333 -275.267)" fill="#eae8ed"/>
          <path id="路径_10358" data-name="路径 10358" d="M769.159,301.855l-31.171,18.008a13.841,13.841,0,0,1-12.527,0h0c-3.458-2-3.458-5.238,0-7.236l31.172-18.008a13.838,13.838,0,0,1,12.526,0h0C772.619,296.618,772.619,299.858,769.159,301.855Z" transform="translate(-528.499 -288.202)" fill="#eae8ed"/>
        </g>
        <g id="组_5197" data-name="组 5197" transform="translate(169.003 112.919)">
          <g id="组_5196" data-name="组 5196" transform="translate(0 90.725)">
            <path id="路径_10359" data-name="路径 10359" d="M823.963,369.938l-106.495,61.52a13.838,13.838,0,0,1-12.526,0h0c-3.459-2-3.459-5.238,0-7.238L811.437,362.7a13.838,13.838,0,0,1,12.526,0h0C827.423,364.7,827.423,367.941,823.963,369.938Z" transform="translate(-702.348 -313.679)" fill="#eae8ed"/>
            <path id="路径_10360" data-name="路径 10360" d="M861.481,338.466,805.2,370.978a13.839,13.839,0,0,1-12.526,0h0c-3.46-2-3.46-5.238,0-7.236l56.279-32.512a13.838,13.838,0,0,1,12.526,0h0C864.941,333.228,864.941,336.468,861.481,338.466Z" transform="translate(-657.597 -329.732)" fill="#eae8ed"/>
          </g>
          <path id="路径_10361" data-name="路径 10361" d="M844.87,336.484,738.375,398a13.839,13.839,0,0,1-12.526,0h0c-3.46-2-3.46-5.238,0-7.238l106.495-61.519a13.839,13.839,0,0,1,12.526,0h0C848.33,331.246,848.33,334.487,844.87,336.484Z" transform="translate(-691.684 -240.018)" fill="#eae8ed"/>
          <path id="路径_10362" data-name="路径 10362" d="M935.048,284.39l-106.495,61.52a13.839,13.839,0,0,1-12.526,0h0c-3.46-2-3.46-5.238,0-7.236l106.493-61.52a13.842,13.842,0,0,1,12.528,0h0C938.508,279.153,938.508,282.393,935.048,284.39Z" transform="translate(-645.686 -266.59)" fill="#eae8ed"/>
          <path id="路径_10363" data-name="路径 10363" d="M975.55,303.746l-106.495,61.52a13.838,13.838,0,0,1-12.526,0h0c-3.46-2-3.46-5.238,0-7.236l106.493-61.52a13.842,13.842,0,0,1,12.528,0h0C979.008,298.508,979.008,301.749,975.55,303.746Z" transform="translate(-625.027 -256.717)" fill="#eae8ed"/>
          <path id="路径_10364" data-name="路径 10364" d="M817.022,380.626l-31.171,18.008a13.842,13.842,0,0,1-12.528,0h0c-3.458-2-3.458-5.238,0-7.236L804.5,373.39a13.839,13.839,0,0,1,12.526,0h0C820.482,375.389,820.482,378.629,817.022,380.626Z" transform="translate(-667.468 -217.502)" fill="#eae8ed"/>
          <path id="路径_10365" data-name="路径 10365" d="M994.007,278.388l-31.172,18.006a13.829,13.829,0,0,1-12.526,0h0c-3.46-2-3.46-5.237,0-7.236l31.171-18.006a13.833,13.833,0,0,1,12.528,0h0C997.465,273.149,997.465,276.388,994.007,278.388Z" transform="translate(-577.193 -269.652)" fill="#eae8ed"/>
          <path id="路径_10366" data-name="路径 10366" d="M858.9,307,752.4,368.524a13.839,13.839,0,0,1-12.526,0h0c-3.46-2-3.46-5.238,0-7.236l106.493-61.52a13.842,13.842,0,0,1,12.528,0h0C862.357,301.766,862.357,305.006,858.9,307Z" transform="translate(-684.528 -255.055)" fill="#eae8ed"/>
          <path id="路径_10367" data-name="路径 10367" d="M877.356,281.644l-31.172,18.008a13.839,13.839,0,0,1-12.526,0h0c-3.46-2-3.46-5.238,0-7.236l31.171-18.008a13.841,13.841,0,0,1,12.527,0h0C880.814,276.406,880.814,279.647,877.356,281.644Z" transform="translate(-636.694 -267.99)" fill="#eae8ed"/>
        </g>
        <g id="组_5198" data-name="组 5198" transform="translate(277.568 7.458)">
          <path id="路径_10368" data-name="路径 10368" d="M972.006,214.552,865.511,276.071a13.829,13.829,0,0,1-12.526,0h0c-3.46-2-3.46-5.237,0-7.236L959.48,207.316a13.839,13.839,0,0,1,12.526,0h0C975.466,209.314,975.466,212.555,972.006,214.552Z" transform="translate(-735.4 -196.751)" fill="#eae8ed"/>
          <path id="路径_10369" data-name="路径 10369" d="M1012.508,233.908,906.013,295.427a13.829,13.829,0,0,1-12.526,0h0c-3.46-2-3.46-5.237,0-7.236l106.495-61.519a13.839,13.839,0,0,1,12.526,0h0C1015.968,228.67,1015.968,231.911,1012.508,233.908Z" transform="translate(-714.741 -186.878)" fill="#eae8ed"/>
          <path id="路径_10370" data-name="路径 10370" d="M1030.965,208.548l-31.171,18.008a13.842,13.842,0,0,1-12.527,0h0c-3.46-2-3.46-5.238,0-7.236l31.171-18.008a13.842,13.842,0,0,1,12.528,0h0C1034.424,203.311,1034.424,206.551,1030.965,208.548Z" transform="translate(-666.907 -199.814)" fill="#eae8ed"/>
          <path id="路径_10371" data-name="路径 10371" d="M895.857,237.165l-106.495,61.52a13.838,13.838,0,0,1-12.526,0h0c-3.46-2-3.46-5.238,0-7.236l106.495-61.52a13.839,13.839,0,0,1,12.526,0h0C899.317,231.927,899.317,235.168,895.857,237.165Z" transform="translate(-774.242 -185.217)" fill="#eae8ed"/>
          <path id="路径_10372" data-name="路径 10372" d="M914.314,211.806l-31.172,18.008a13.839,13.839,0,0,1-12.526,0h0c-3.459-2-3.459-5.238,0-7.238l31.171-18.006a13.842,13.842,0,0,1,12.528,0h0C917.772,206.568,917.772,209.809,914.314,211.806Z" transform="translate(-726.408 -198.152)" fill="#eae8ed"/>
        </g>
      </g>
    </g>
    <path id="路径_10326-2" data-name="路径 10326" d="M619.59,251.011c3.865,2.233,3.865,5.853,0,8.086a15.464,15.464,0,0,1-14,0c-3.865-2.233-3.865-5.853,0-8.086A15.464,15.464,0,0,1,619.59,251.011Z" transform="translate(2723.188 1511.191)" fill="#eae8ed"/>
    <path id="路径_10327-2" data-name="路径 10327" d="M959.936,339.31c3.865,2.232,3.865,5.853,0,8.086a15.464,15.464,0,0,1-14,0c-3.865-2.233-3.865-5.854,0-8.086A15.463,15.463,0,0,1,959.936,339.31Z" transform="translate(2795.88 1530.051)" fill="#eae8ed"/>
    <g id="组_5233" data-name="组 5233" transform="translate(3309.06 1506.203)">
      <g id="组_5201" data-name="组 5201" transform="translate(87.874 15.837)">
        <path id="路径_10375" data-name="路径 10375" d="M849.159,185.812v4.632L719.006,241.126v-4.632Z" transform="translate(-651.216 -72.301)" fill="#7f542e"/>
        <path id="路径_10376" data-name="路径 10376" d="M841.5,165.157V169.8c-17.5,6.8,36.121-14.061-86.618,33.734l24.685-14.257Z" transform="translate(-643.555 -76.713)" fill="#7f542e"/>
        <path id="路径_10377" data-name="路径 10377" d="M837.153,166.38,775.22,190.5l53.806-31.07Z" transform="translate(-639.21 -77.936)" fill="#a26d42"/>
        <path id="路径_10378" data-name="路径 10378" d="M734.078,220.879v-4.641l111-64.088v4.642Q808.9,177.661,734.078,220.879Z" transform="translate(-647.997 -79.491)" fill="#6899f4"/>
        <path id="路径_10379" data-name="路径 10379" d="M842.679,188.91l-121.89,47.461V218.4L732,214.036v-.01l4.915,2.839L762.16,202.3l80.519-31.354Z" transform="translate(-650.836 -75.477)" fill="#a5b3bf"/>
        <path id="路径_10380" data-name="路径 10380" d="M838.885,155.73l-103.96,60.025V198.208l103.96-60.024Z" transform="translate(-647.816 -82.474)" fill="#a5b3bf"/>
        <path id="路径_10381" data-name="路径 10381" d="M734.078,200.232v-4.641l111-64.088v4.631C836.694,140.982,735.737,199.268,734.078,200.232Z" transform="translate(-647.997 -83.9)" fill="#6899f4"/>
        <path id="路径_10382" data-name="路径 10382" d="M732.382,206.93v.01l-13.376,5.209v-4.641l8.587-3.34Z" transform="translate(-651.216 -68.38)" fill="#7f542e"/>
        <path id="路径_10383" data-name="路径 10383" d="M732.834,208.066l-8.587,3.339L694.47,185.917Z" transform="translate(-656.457 -72.279)" fill="#a26d42"/>
        <path id="路径_10384" data-name="路径 10384" d="M725.535,234.114l121.89-47.461v-5.141l6.1,5.218L723.371,237.413l-24.8-21.249a8.975,8.975,0,0,1,2.1-3.339Z" transform="translate(-655.582 -73.219)" fill="#a26d42"/>
        <path id="路径_10385" data-name="路径 10385" d="M731.815,218.325v17.968l-24.871-21.287a15.314,15.314,0,0,1,4.318-3.035v-.618q-5.889-5.037-11.779-10.085a15.816,15.816,0,0,0-4.7,3.329c-.249-.249.161.137-22.228-19.025a11.629,11.629,0,0,1-3.387-7.853V171.3l14.08,8.127,46.4,39.735Z" transform="translate(-661.861 -75.399)" fill="#dfe3e7"/>
        <path id="路径_10386" data-name="路径 10386" d="M723.466,231.315v4.632L698.174,214.3a9.516,9.516,0,0,1,.489-4.231Z" transform="translate(-655.677 -67.121)" fill="#c48b5e"/>
        <path id="路径_10387" data-name="路径 10387" d="M727.173,213.1v4.641L680.769,178l16.607,9.6C697.475,187.648,696.581,186.91,727.173,213.1Z" transform="translate(-659.383 -73.969)" fill="#c48b5e"/>
        <path id="路径_10388" data-name="路径 10388" d="M707.257,206.08c-6.472,3.174-9.067,8.177-6.727,15.188l-11.779-10.086c-2.3-6.938.21-12.012,6.727-15.187Q701.367,201.032,707.257,206.08Z" transform="translate(-657.857 -70.126)" fill="#d2898a"/>
        <path id="路径_10389" data-name="路径 10389" d="M698.459,219.493c-2.34-7.011.255-12.014,6.727-15.188v.618c-6.308,3.119-8.28,7.881-6.1,14.227Z" transform="translate(-655.786 -68.351)" fill="#c95b68"/>
        <path id="路径_10390" data-name="路径 10390" d="M669.71,151.021c.564.226-4.779-2.824,78.129,45.042l1.028-.6v17.547l-74.936-43.261a9.454,9.454,0,0,1-4.279-7.422C669.652,151.023,669.626,151.521,669.71,151.021Z" transform="translate(-661.758 -79.732)" fill="#dfe3e7"/>
        <path id="路径_10391" data-name="路径 10391" d="M670.33,151.39c-.091.547-.058,0-.058,11.309a9.454,9.454,0,0,0,4.279,7.422l74.936,43.261,103.96-60.025v-4.063l6.012,3.466-111,64.088-77.424-44.7a9.416,9.416,0,0,1-4.289-7.422V154.2a3.552,3.552,0,0,1,.852-2.487A2.578,2.578,0,0,1,670.33,151.39Z" transform="translate(-662.378 -80.101)" fill="#9ed2e9"/>
        <path id="路径_10392" data-name="路径 10392" d="M669.9,171.762v6.414a11.629,11.629,0,0,0,3.387,7.853c25.755,22.042,21.891,18.688,22.228,19.025a9.906,9.906,0,0,0-2.154,3.29c-.1,0,.011.018-24.206-20.71a11.59,11.59,0,0,1-3.387-7.853c0-11.681-.039-10.488.087-10.614C666.754,170.049,667.309,170.269,669.9,171.762Z" transform="translate(-662.589 -75.856)" fill="#a26d42"/>
        <path id="路径_10393" data-name="路径 10393" d="M664.471,156.654c119.158-68.8,111.093-64.247,111.754-64.342a3.4,3.4,0,0,1,2.282.549l81.439,47.02-111,64.088c-86.81-50.122-81.853-47.433-82.928-47.57A2.64,2.64,0,0,0,664.471,156.654Z" transform="translate(-662.864 -92.278)" fill="#9ed2e9"/>
        <path id="路径_10394" data-name="路径 10394" d="M752.549,115.78l35.32,20.393a5.8,5.8,0,0,0,5.24,0l1.742-1.006c1.447-.835,1.447-2.189,0-3.025l-35.32-20.392a5.79,5.79,0,0,0-5.242,0l-1.74,1C751.1,113.59,751.1,114.945,752.549,115.78Z" transform="translate(-644.284 -88.253)" fill="#76b2cc"/>
        <path id="路径_10395" data-name="路径 10395" d="M663.5,164.413a9.511,9.511,0,0,0,2.908,6.365c-.131.131-.087-.732-.087,10.614a11.59,11.59,0,0,0,3.387,7.853c24.612,21.065,24.107,20.71,24.206,20.71a10.069,10.069,0,0,0-.715,4.024c-.1,0,.357.314-26.664-22.814a11.594,11.594,0,0,1-3.388-7.853v-19.8a4.446,4.446,0,0,1,.353-1.89Z" transform="translate(-663.147 -77.467)" fill="#c48b5e"/>
        <path id="路径_10396" data-name="路径 10396" d="M759.825,249.441c-2.593,1-5.038,1.938-7.471,2.9-2.316.913-4.437.9-6.229-1.12-1.771-1.994-3.819-2.138-6.169-1.025a41.2,41.2,0,0,1-5.411,2.106,22.375,22.375,0,0,1-4.252.428v-4.632a57.189,57.189,0,0,0,7.066-3.244c-1.556-.123-4.9-.056-4.9-.056v-9.752s-.705-2.723-1.782-3.636q-14.858-12.592-29.6-25.319a8.879,8.879,0,0,0-4.659-1.831c-3.585-.624-7.154-1.394-10.762-1.82-2.89-.341-4.159-2.049-4.785-4.569-.493-1.989-1.041-3.972-1.377-5.99-.511-3.058-2.636-7.478-5.358-9.574,7.755,3.771,16.983,9.808,25.1,14.5h-4.99c12.107,10.47,36.049,30.869,36.049,30.869v-4.632l8.587-3.348,1.574.988s5.091,2.9,7.924,4.508c.137-1.755.241-3.084.349-4.451,1.516-1,3.4-2.018,5.329-3.291-1.557-.18-4.444-.26-4.444-.26s-.062-5.548.1-8.012c.144-2.154-.773-2.924-2.515-3.924q-24.6-14.13-49.154-28.341c-6.315-3.643-12.627-7.294-18.965-10.9-3.981-2.265-5.354-1.485-5.432,2.993-.022,1.231,0,2.461,0,3.953a9.156,9.156,0,0,1-6.423-2.249,5.666,5.666,0,0,1-.352-3.612s-.985-9.947-.444-11.235c.883-2.109,3.467-.869,3.467-.869a32.736,32.736,0,0,1,3.319,1.756q35.377,20.414,70.747,40.838c1.354.782,4.624,2.65,4.624,2.65v-4.641l111-64.088v4.631l-6.012,3.477v13.483l6.012,3.466V161.2l-4.571,2.672c15.383,9.188,31.128,17.624,46.6,26.88-1.553.99-2.664,1.758-3.83,2.431q-48.264,27.826-96.536,55.637c-2.961,1.706-5.939,3.385-8.856,5.165a6.494,6.494,0,0,1-6.8.07,25.632,25.632,0,0,1-2.958-1.712,4.426,4.426,0,0,0-5.127-.042c-.891.507-1.791,1-2.651,1.559a6.61,6.61,0,0,1-7.4,0C764.891,252.39,762.341,250.9,759.825,249.441Z" transform="translate(-662.481 -83.9)" fill="#b0a7c2" style="mix-blend-mode: multiply;isolation: isolate"/>
        <path id="路径_10397" data-name="路径 10397" d="M702.149,219.051c-1.373,0-2.589.442-3.7.442-2.34-7.374.544-12.392,6.727-15.188,1.364,2.286.455,5.581,1.314,8.336l-4.345,1.68Z" transform="translate(-655.779 -68.351)" fill="#c5bed1" style="mix-blend-mode: multiply;isolation: isolate"/>
        <path id="路径_10398" data-name="路径 10398" d="M674.213,174.258c-3.583,2.365-2.294,6.135-1.733,10.948-1.712-.711-4.98-4.051-6.694-4.762,0-4,.058-7.546.058-11.277C668.15,169.456,671.324,171.874,674.213,174.258Z" transform="translate(-662.583 -75.856)" fill="#c5bed1" style="mix-blend-mode: multiply;isolation: isolate"/>
        <path id="路径_10399" data-name="路径 10399" d="M664.29,145.657a2.444,2.444,0,0,1,1.948-.539c1.075.137-3.862-2.54,82.928,47.57v4.641c-82.69-47.74-77.888-45.111-78.912-45.258a2.442,2.442,0,0,0-1.949.539,3.552,3.552,0,0,0-.852,2.487v10.527a9.416,9.416,0,0,0,4.289,7.422l77.424,44.7v4.641l-81.439-47.02a9.416,9.416,0,0,1-4.289-7.422v-19.8A3.555,3.555,0,0,1,664.29,145.657Z" transform="translate(-663.085 -80.998)" fill="#82c2e8"/>
      </g>
      <g id="组_5204" data-name="组 5204" transform="translate(249.258 0)">
        <g id="组_5202" data-name="组 5202">
          <path id="路径_10400" data-name="路径 10400" d="M956.547,139.215V362.49a4.524,4.524,0,0,1-1.095,3.184,2.425,2.425,0,0,1-.43.32,3.28,3.28,0,0,1-2.062.365,5.172,5.172,0,0,1-1.894-.7L799.7,278.266a9.078,9.078,0,0,1-2.193-1.784,12.207,12.207,0,0,1-3.286-7.711V45.5a5.237,5.237,0,0,1,.336-1.993,3.339,3.339,0,0,1,1.269-1.558c.046-.025.089-.051.136-.076a2.3,2.3,0,0,1,.435-.183,4.536,4.536,0,0,1,3.3.647l139.413,80.49,11.953,6.9a8.893,8.893,0,0,1,2.193,1.779A12.182,12.182,0,0,1,956.547,139.215Zm-4.055,220.541c0-.059.03-222.771,0-223.1a3.258,3.258,0,0,0-.652-1.555,3.715,3.715,0,0,0-1.46-1.09c-.044-.021-150.612-86.984-150.82-87.081-.7-.316-1.273,0-1.29.907,0,.042.009,222.35,0,222.844a3.226,3.226,0,0,0,.124,1.171,3.4,3.4,0,0,0,.8,1.337,4.225,4.225,0,0,0,1.2.792c.046.025,148.384,85.68,148.431,85.709,1.682.984,1.49.839,1.933,1.112a2.336,2.336,0,0,0,.771.362.741.741,0,0,0,.8-.314A1.815,1.815,0,0,0,952.493,359.755Z" transform="translate(-794.222 -39.385)" fill="#a5b3bf"/>
          <path id="路径_10401" data-name="路径 10401" d="M951.777,135.731c.034.333,0,223.044,0,223.1a1.815,1.815,0,0,1-.165,1.091.741.741,0,0,1-.8.314,2.336,2.336,0,0,1-.771-.362c-.443-.273-.251-.127-1.933-1.112-.047-.029-148.385-85.684-148.431-85.709a4.225,4.225,0,0,1-1.2-.792,3.4,3.4,0,0,1-.8-1.337,3.226,3.226,0,0,1-.124-1.171c.009-.494,0-222.8,0-222.844.017-.907.587-1.222,1.29-.907.209.1,150.777,87.06,150.82,87.081a3.715,3.715,0,0,1,1.46,1.09A3.258,3.258,0,0,1,951.777,135.731Z" transform="translate(-793.51 -38.465)" fill="url(#linear-gradient)"/>
          <path id="路径_10402" data-name="路径 10402" d="M925.9,150.979v53.393a3.345,3.345,0,0,1-5.018,2.9l-33.421-19.3v-3.859l32.424,18.72a1.781,1.781,0,0,0,2.672-1.544V152.917a3.343,3.343,0,0,0-1.672-2.9l-29.454-17.006v-3.859L924.235,148.1A3.319,3.319,0,0,1,925.9,150.979Z" transform="translate(-774.309 -20.68)" fill="#fcfcfc" opacity="0.69"/>
          <path id="路径_10403" data-name="路径 10403" d="M929.953,351.993a4.524,4.524,0,0,0,1.095-3.184V125.534a12.182,12.182,0,0,0-3.288-7.711,8.893,8.893,0,0,0-2.193-1.779l-11.953-6.9.579-1,2.023-1.171v-1.256l.042-.076,14.473,8.354a9.909,9.909,0,0,1,4.675,8.1V345.368a5.734,5.734,0,0,1-2.738,5.131c-1.051.6-2.095,1.209-3.146,1.814A2.425,2.425,0,0,0,929.953,351.993Z" transform="translate(-768.722 -25.704)" fill="#717f90"/>
          <path id="路径_10404" data-name="路径 10404" d="M903.74,98.46q7.536,4.356,15.069,8.7l-.042.076-2.023,1.171-15.073-8.7,2.027-1.171Z" transform="translate(-771.273 -27.236)" fill="#a5b3bf"/>
          <path id="路径_10405" data-name="路径 10405" d="M916.114,105.7v1.256l-2.023,1.171v-1.256Z" transform="translate(-768.62 -25.691)" fill="#717f90"/>
          <path id="路径_10406" data-name="路径 10406" d="M906.7,160.605q-3.921-2.261-7.835-4.522a3.415,3.415,0,0,1,1.235-2.9,2.56,2.56,0,0,1,2.755.248,7.628,7.628,0,0,1,2.947,3.39A10.317,10.317,0,0,1,906.7,160.605Z" transform="translate(-771.872 -15.611)" fill="url(#linear-gradient-2)"/>
          <path id="路径_10407" data-name="路径 10407" d="M901.671,99.488l15.073,8.7v1.256l-15.073-8.7Z" transform="translate(-771.273 -27.016)" fill="#c8d1dd"/>
          <path id="路径_10408" data-name="路径 10408" d="M893.953,154.688q0,3.315-1.11,4.223a2.26,2.26,0,0,1-2.746-.038,7.184,7.184,0,0,1-2.751-3.143,12.525,12.525,0,0,1-1.095-5.586q0-3.116,1.107-4.058a2.167,2.167,0,0,1,2.7-.025,7.332,7.332,0,0,1,2.756,3.2A11.927,11.927,0,0,1,893.953,154.688Z" transform="translate(-774.566 -17.166)" fill="url(#linear-gradient-3)"/>
          <path id="路径_10409" data-name="路径 10409" d="M881.242,146.254a10.466,10.466,0,0,1-.383,3.773c-.784,1.541-2.512,1.311-4.019.443a5.26,5.26,0,0,1-2.828-4.36c0-.9.37-1.644,1.269-1.606C876.487,144.552,879.185,146.1,881.242,146.254Z" transform="translate(-777.18 -17.402)" fill="url(#linear-gradient-4)"/>
          <path id="路径_10410" data-name="路径 10410" d="M856.755,133.211q0,3.315-1.112,4.224a2.26,2.26,0,0,1-2.746-.039,7.157,7.157,0,0,1-2.746-3.142,12.447,12.447,0,0,1-1.1-5.587q0-3.116,1.11-4.057a2.17,2.17,0,0,1,2.7-.025,7.347,7.347,0,0,1,2.755,3.2A11.979,11.979,0,0,1,856.755,133.211Z" transform="translate(-782.511 -21.753)" fill="url(#linear-gradient-5)"/>
          <path id="路径_10411" data-name="路径 10411" d="M836.272,155.82v3.365L804.428,140.8a3.345,3.345,0,0,1-1.673-2.9V87.063a3.343,3.343,0,0,1,5.013-2.9c8.064,4.654,22.7,13.1,25.041,14.457v3.365l-24.246-14a1.93,1.93,0,0,0-2.894,1.671v48.491Z" transform="translate(-792.399 -30.386)" fill="#fcfcfc" opacity="0.69"/>
          <path id="路径_10412" data-name="路径 10412" d="M831.643,117.62a10.46,10.46,0,0,1-.382,3.773c-.779,1.541-2.508,1.311-4.016.443a5.252,5.252,0,0,1-2.828-4.36c0-.9.371-1.644,1.269-1.606C826.887,115.916,829.591,117.467,831.643,117.62Z" transform="translate(-787.773 -23.518)" fill="url(#linear-gradient-6)"/>
          <path id="路径_10413" data-name="路径 10413" d="M819.312,49.837c1.252.328,1.363,1.26.533,1.711-1.427.771-3.649-.021-3.015-1.12a1.215,1.215,0,0,1,.6-.464A2.924,2.924,0,0,1,819.312,49.837Z" transform="translate(-789.417 -37.642)" fill="#596876"/>
          <path id="路径_10414" data-name="路径 10414" d="M815.952,47.9c1.251.329,1.358,1.261.532,1.708-1.431.775-3.653-.017-3.018-1.115a1.231,1.231,0,0,1,.6-.464A2.947,2.947,0,0,1,815.952,47.9Z" transform="translate(-790.136 -38.056)" fill="#596876"/>
          <path id="路径_10415" data-name="路径 10415" d="M810.7,46.08c1.448-.621,3.445.158,2.84,1.205a1.046,1.046,0,0,1-.425.379c-1.427.775-3.649-.017-3.016-1.115A1.232,1.232,0,0,1,810.7,46.08Z" transform="translate(-790.854 -38.471)" fill="#596876"/>
          <path id="路径_10416" data-name="路径 10416" d="M809.226,44.012c1.248.329,1.362,1.261.531,1.712-1.414.762-3.661,0-3.014-1.12a1.211,1.211,0,0,1,.6-.464A2.929,2.929,0,0,1,809.226,44.012Z" transform="translate(-791.572 -38.886)" fill="#596876"/>
          <path id="路径_10417" data-name="路径 10417" d="M803.978,42.2c1.443-.621,3.449.149,2.84,1.2a1.015,1.015,0,0,1-.426.379c-1.426.775-3.648-.017-3.015-1.115A1.241,1.241,0,0,1,803.978,42.2Z" transform="translate(-792.29 -39.3)" fill="#596876"/>
          <path id="路径_10418" data-name="路径 10418" d="M808.443,43.872c.609-1.052-1.4-1.823-2.84-1.2a1.241,1.241,0,0,0-.6.465c-.633,1.1,1.589,1.891,3.015,1.115A1.016,1.016,0,0,0,808.443,43.872ZM812.1,46.61c.83-.451.716-1.383-.531-1.712a2.929,2.929,0,0,0-1.882.129,1.212,1.212,0,0,0-.6.464C808.44,46.6,810.687,47.372,812.1,46.61Zm4.5,1.976c.606-1.047-1.392-1.826-2.84-1.205a1.232,1.232,0,0,0-.6.468c-.633,1.1,1.589,1.891,3.016,1.115A1.046,1.046,0,0,0,816.606,48.585Zm3.658,2.733c.826-.447.72-1.379-.532-1.708a2.947,2.947,0,0,0-1.887.129,1.231,1.231,0,0,0-.6.464C816.611,51.3,818.833,52.094,820.264,51.318Zm3.547.648a2.924,2.924,0,0,0-1.882.127,1.215,1.215,0,0,0-.6.464c-.635,1.1,1.587,1.891,3.015,1.12C825.174,53.226,825.063,52.294,823.811,51.966Zm115,71.241L799.395,42.718a4.536,4.536,0,0,0-3.3-.647,2.3,2.3,0,0,0-.435.183c1.026-.592,2.061-1.188,3.087-1.785a5.762,5.762,0,0,1,5.812.192q60.913,35.173,121.827,70.334l-.042.076-2.027,1.171V113.5l15.073,8.7Z" transform="translate(-793.915 -39.771)" fill="#717f90"/>
        </g>
        <g id="组_5203" data-name="组 5203" transform="translate(145.471 80.004)" style="mix-blend-mode: multiply;isolation: isolate">
          <path id="路径_10419" data-name="路径 10419" d="M1045.838,318.588v33.835l-34.915-.038q-40.285-.035-80.545-.084c-.813-.293-1.626-.583-2.439-.862-2.233-.789-2.767-.777-1.942-.959a2.251,2.251,0,0,0,1.942-1.444c.085-.182.461-.158.546-2.4.085-2.646-.121-7.937-.061-12.985.667-50.788.194-209.828.061-210.69a10.435,10.435,0,0,0-.716-3.167c-.243-.487,1.408-.255,1.881-.51,1.675-.934,2.16-3.459,2.16-3.459a11.221,11.221,0,0,1,.874,2.488,31.235,31.235,0,0,1,.158,3.277l-.024,134.8s1.857.255,2.876.388a17.166,17.166,0,0,1,5.5,1.565C943.836,259.608,1001.748,293.018,1045.838,318.588Z" transform="translate(-911.627 -103.532)" fill="#b0a7c2"/>
          <path id="路径_10420" data-name="路径 10420" d="M914.091,106.866v1.256h1.214l2.37-1.256-1.561-.28V105.7Z" transform="translate(-914.091 -105.695)" fill="#b0a7c2"/>
        </g>
      </g>
      <g id="组_5221" data-name="组 5221" transform="translate(-12.292 164.448)">
        <g id="组_5205" data-name="组 5205">
          <path id="路径_10421" data-name="路径 10421" d="M675.052,305.989l-2.178-.8-3.535-1.308v-2.555c.01-.008.016-.018.024-.027l10.426,3.174,51.662-56.389,13.3,4.914-62.061,55.815Z" transform="translate(-571.637 -204.399)" fill="#aa226d"/>
          <path id="路径_10422" data-name="路径 10422" d="M733.5,246.866l-2.05,2.239-51.662,56.389-10.426-3.174q26.183-29.523,52.36-59.043l3.721,1.134,1.82.556Z" transform="translate(-571.633 -205.425)" fill="#e288b9"/>
          <path id="路径_10423" data-name="路径 10423" d="M744.458,240.427,684.715,307.8l-95.883-28.344,59.743-67.371Z" transform="translate(-588.832 -212.086)" fill="#bfb5f4"/>
          <path id="路径_10424" data-name="路径 10424" d="M716.224,239.82v5.329l-3.721-1.134Q714.365,241.918,716.224,239.82Z" transform="translate(-562.418 -206.163)" fill="#628dd1"/>
          <path id="路径_10425" data-name="路径 10425" d="M669.338,294.056l3.535,1.308q-1.768,2-3.535,3.984Z" transform="translate(-571.637 -194.579)" fill="#628dd1"/>
          <path id="路径_10426" data-name="路径 10426" d="M669.682,303.994c-.008.009-.015.018-.024.027v7.847q1.773-1.991,3.535-3.984l2.178.8-7.531,8.5V302.813l59.743-67.374v11.2l-1.82-.556v-5.329q-1.862,2.1-3.721,4.2Q695.863,274.474,669.682,303.994Z" transform="translate(-571.957 -207.099)" fill="#785cad"/>
          <path id="路径_10427" data-name="路径 10427" d="M684.715,295.944v14.372l-95.883-28.341V267.6Z" transform="translate(-588.832 -200.229)" fill="#a68efe"/>
        </g>
        <path id="路径_10428" data-name="路径 10428" d="M697.981,269.015c10.046-11.336,29.6-33.576,29.6-33.576v11.2s-.457-.238-.525-.161l-25.541,28.712C686.68,291.869,674.89,305.51,674.89,305.51l5.218,1.658L733.82,248.54a1.383,1.383,0,0,1-.769,2.286c-.717.275-51.251,57.648-51.251,57.648l-3.283-.245a8.142,8.142,0,0,0-3.281.454L683,311.508l60.377-54.3,5.818,3.449S738.3,271.025,724.985,283s-27.289,24.551-31.046,27.943l-6.83,6.169-3.82-1.269c-3.518-1.169-3.874-1.174-4.494-.066-.522.931-1.836,1.2-5.814,1.2-1.714,0-5.141.205-5.141.205V302.813S687.933,280.351,697.981,269.015Z" transform="translate(-571.957 -207.099)" fill="#b0a7c2" style="mix-blend-mode: multiply;isolation: isolate"/>
        <g id="组_5220" data-name="组 5220" transform="translate(22.227 10.97)">
          <g id="组_5217" data-name="组 5217">
            <path id="路径_10429" data-name="路径 10429" d="M702.7,249.83l-55.148,31.837-40.406-23.331c13.16-7.6,47.614-27.484,55.149-31.837C668.335,229.987,679.019,236.16,702.7,249.83Z" transform="translate(-607.147 -219.978)" fill="#ebeec1"/>
            <path id="路径_10430" data-name="路径 10430" d="M669.895,258.268,652.283,275.88l-8.183-2.719Z" transform="translate(-599.255 -213.193)" fill="#d3d3af"/>
            <path id="路径_10431" data-name="路径 10431" d="M650.843,276.081l17.612-17.612,1.975-1.142-19.587,19.594Z" transform="translate(-597.814 -213.394)" fill="#bebe9e"/>
            <path id="路径_10432" data-name="路径 10432" d="M652.444,273.259v.839l-9.1-3.035.915-.523Z" transform="translate(-599.416 -210.572)" fill="#bebe9e"/>
            <path id="路径_10433" data-name="路径 10433" d="M652.2,229.477,629.31,242.691l15.63-15.637Z" transform="translate(-602.413 -219.86)" fill="#d3d3af"/>
            <path id="路径_10434" data-name="路径 10434" d="M640.442,277.561l55.148-31.837v.84L640.442,278.4Z" transform="translate(-600.036 -215.872)" fill="#bebe9e"/>
            <path id="路径_10435" data-name="路径 10435" d="M630.373,266.512l-20.317-6.772,3.138-3.138Z" transform="translate(-606.526 -213.549)" fill="#d3d3af"/>
            <path id="路径_10436" data-name="路径 10436" d="M610.057,259.187l20.317,6.772,3.421,1.982-23.737-7.915Z" transform="translate(-606.526 -212.997)" fill="#bebe9e"/>
            <path id="路径_10437" data-name="路径 10437" d="M607.147,252.733l40.406,23.331v.84l-40.406-23.331Z" transform="translate(-607.147 -214.375)" fill="#f1f1ce"/>
            <g id="组_5216" data-name="组 5216" transform="translate(51.075)">
              <path id="路径_10438" data-name="路径 10438" d="M701.538,246.139l-8.978,5.183-43.327-25.017,8.978-5.18C658.278,221.165,697.587,243.855,701.538,246.139Z" transform="translate(-649.233 -221.126)" fill="#e0be95"/>
              <path id="路径_10439" data-name="路径 10439" d="M693.913,242.945l-8.978,5.18v-1.2l8.978-5.184Z" transform="translate(-641.608 -216.724)" fill="#c48b5e"/>
              <path id="路径_10440" data-name="路径 10440" d="M692.56,251.615,649.233,226.6v-1.209l43.327,25.017Z" transform="translate(-649.233 -220.214)" fill="#d8aa7d"/>
              <g id="组_5206" data-name="组 5206" transform="translate(6.085 1.669)">
                <path id="路径_10441" data-name="路径 10441" d="M660.695,222.887c-6.388,3.688-5.982,3.479-6.118,3.479a.332.332,0,0,1-.164-.62l5.623-3.245Z" transform="translate(-654.247 -222.501)" fill="#7f542e"/>
              </g>
              <g id="组_5207" data-name="组 5207" transform="translate(10.143 4.016)">
                <path id="路径_10442" data-name="路径 10442" d="M664.045,224.816c-6.336,3.66-5.988,3.483-6.122,3.483a.331.331,0,0,1-.164-.619l5.618-3.245Z" transform="translate(-657.59 -224.435)" fill="#7f542e"/>
              </g>
              <g id="组_5208" data-name="组 5208" transform="translate(14.201 6.358)">
                <path id="路径_10443" data-name="路径 10443" d="M667.386,226.75c-6.391,3.687-5.99,3.479-6.119,3.479a.333.333,0,0,1-.167-.619l5.621-3.245Z" transform="translate(-660.935 -226.365)" fill="#7f542e"/>
              </g>
              <g id="组_5209" data-name="组 5209" transform="translate(18.26 8.699)">
                <path id="路径_10444" data-name="路径 10444" d="M670.732,228.68c-6.4,3.693-5.99,3.479-6.119,3.479a.333.333,0,0,1-.167-.62l5.621-3.245Z" transform="translate(-664.279 -228.294)" fill="#7f542e"/>
              </g>
              <g id="组_5210" data-name="组 5210" transform="translate(22.319 11.041)">
                <path id="路径_10445" data-name="路径 10445" d="M674.077,230.609c-6.391,3.687-5.987,3.481-6.122,3.481a.33.33,0,0,1-.164-.616l5.621-3.249Z" transform="translate(-667.624 -230.224)" fill="#7f542e"/>
              </g>
              <g id="组_5211" data-name="组 5211" transform="translate(26.376 13.387)">
                <path id="路径_10446" data-name="路径 10446" d="M677.422,232.538c-6.4,3.7-6,3.484-6.123,3.484a.334.334,0,0,1-.169-.62c5.694-3.286,5.583-3.245,5.627-3.245Z" transform="translate(-670.967 -232.157)" fill="#7f542e"/>
              </g>
              <g id="组_5212" data-name="组 5212" transform="translate(30.435 15.729)">
                <path id="路径_10447" data-name="路径 10447" d="M680.762,234.468c-6.4,3.7-5.989,3.484-6.118,3.484a.333.333,0,0,1-.169-.62l5.623-3.245Z" transform="translate(-674.311 -234.087)" fill="#7f542e"/>
              </g>
              <g id="组_5213" data-name="组 5213" transform="translate(34.494 18.071)">
                <path id="路径_10448" data-name="路径 10448" d="M684.107,236.4c-6.4,3.694-5.989,3.479-6.118,3.479a.332.332,0,0,1-.169-.619l5.622-3.245Z" transform="translate(-677.656 -236.017)" fill="#7f542e"/>
              </g>
              <g id="组_5214" data-name="组 5214" transform="translate(38.552 20.414)">
                <path id="路径_10449" data-name="路径 10449" d="M687.453,238.332c-6.336,3.66-5.987,3.484-6.123,3.484a.333.333,0,0,1-.164-.62l5.622-3.249Z" transform="translate(-681 -237.947)" fill="#7f542e"/>
              </g>
              <g id="组_5215" data-name="组 5215" transform="translate(42.61 22.76)">
                <path id="路径_10450" data-name="路径 10450" d="M690.8,240.261c-6.4,3.7-6,3.484-6.123,3.484a.334.334,0,0,1-.169-.62l5.626-3.245Z" transform="translate(-684.344 -239.88)" fill="#7f542e"/>
              </g>
            </g>
          </g>
          <g id="组_5219" data-name="组 5219" transform="translate(46.983 16.157)">
            <path id="路径_10451" data-name="路径 10451" d="M648.235,234.657c-1.185,1.467-1.18,1.534-1.209,1.562s0,.143.3.564a5.31,5.31,0,0,0-.79,3.282l-.017,0a1.621,1.621,0,0,1-.659-1.459,4.954,4.954,0,0,1,2.366-3.966Z" transform="translate(-645.861 -234.396)" fill="#8bd0d0"/>
            <path id="路径_10452" data-name="路径 10452" d="M685.961,257.759q.815.974,1.636,1.95a.233.233,0,0,1-.22.379l-2.546-.449a.479.479,0,0,1-.346-.477,1.685,1.685,0,0,1,.951-1.532A.434.434,0,0,1,685.961,257.759Z" transform="translate(-637.612 -229.494)" fill="#655fbf"/>
            <path id="路径_10453" data-name="路径 10453" d="M655.843,238.131c38.051,21.972,33.086,19.01,32.693,19.01a1.582,1.582,0,0,0-.721.12l0,0a3.728,3.728,0,0,0-1.522,1.2s-.007,0-.007.01a5.122,5.122,0,0,0-1.052,2.294,3.055,3.055,0,0,0-.01,1.069,1.594,1.594,0,0,0,.21.567,1.144,1.144,0,0,0,.351.37c-35.087-20.253-34.323-19.79-34.309-19.814a1.228,1.228,0,0,1-.4-.5,2.99,2.99,0,0,1-.007-1.984,5.312,5.312,0,0,1,.688-1.451q4.316,2.494,8.636,4.985l1.255-1.562-.093-.131-8.228-4.751a1.5,1.5,0,0,1,1.454-.05Z" transform="translate(-644.784 -233.818)" fill="#8bd0d0"/>
            <path id="路径_10454" data-name="路径 10454" d="M683.377,254.174l-.006,0,.006.01C683.442,254.277,683.428,254.264,683.377,254.174Zm-2.988,5.3c-.036,0-.073,0-.109,0C680.316,259.472,680.352,259.474,680.389,259.474Zm5.581,1.006q-2.873-.506-5.744-1.013v0c.027,0,.04.007-.007,0a1.086,1.086,0,0,1-.262-.066.326.326,0,0,0-.044-.017,1.117,1.117,0,0,1-.413-.313,1.2,1.2,0,0,1-.1-.143l0-.007a1.769,1.769,0,0,1-.154-.352,2.025,2.025,0,0,1-.061-.266,4,4,0,0,1,.329-2.055l0-.01a5.342,5.342,0,0,1,.562-1.006c.032-.053.181-.243.183-.244a3.841,3.841,0,0,1,1.586-1.225,1.682,1.682,0,0,1,.732-.093c.013,0,.092.017.095.017a1.015,1.015,0,0,1,.225.076,1.146,1.146,0,0,1,.391.295c.028.038-.291-.343,3.773,4.5a.445.445,0,0,0-.483-.08,1.685,1.685,0,0,0-.951,1.532A.479.479,0,0,0,685.97,260.48Z" transform="translate(-638.751 -230.335)" fill="#d1e2ee"/>
            <path id="路径_10455" data-name="路径 10455" d="M658.646,243.006l1.257-1.562.093.132-1.254,1.562Z" transform="translate(-643.13 -232.943)" fill="#4c6e81"/>
            <path id="路径_10456" data-name="路径 10456" d="M650.622,234.638c5.241,3.032,5.016,2.875,5,2.9a2.108,2.108,0,0,0-2.228.375q-2.5-1.445-5-2.888a4.1,4.1,0,0,1,.512-.313A1.935,1.935,0,0,1,650.622,234.638Z" transform="translate(-645.321 -234.434)" fill="#bbebef"/>
            <path id="路径_10457" data-name="路径 10457" d="M652.513,237.406a2.108,2.108,0,0,1,2.228-.375,1.618,1.618,0,0,1,.758,1.21l-1.142-.659a1.548,1.548,0,0,0-1.374.1Z" transform="translate(-644.44 -233.927)" fill="#71a7ab"/>
            <path id="路径_10458" data-name="路径 10458" d="M650.51,241.683a5.7,5.7,0,0,1,.99-3.112v0c.113.067.227.132.342.2a5.312,5.312,0,0,0-.688,1.451,2.99,2.99,0,0,0,.007,1.984,1.228,1.228,0,0,0,.4.5l0,0c.394.229.79.456,1.186.686a1.632,1.632,0,0,1-1.491-.086A1.849,1.849,0,0,1,650.51,241.683Z" transform="translate(-644.868 -233.558)" fill="#71a7ab"/>
            <path id="路径_10459" data-name="路径 10459" d="M647.826,234.676a1.533,1.533,0,0,1,1.461-.085l0,.012a3.286,3.286,0,0,0-.783.427c-.416-.239-.6-.363-.676-.34Z" transform="translate(-645.441 -234.44)" fill="#8bd0d0"/>
            <path id="路径_10460" data-name="路径 10460" d="M647.184,240.967a1.732,1.732,0,0,1-.725-1.079,5.3,5.3,0,0,1,.918-3.7l5,2.888a5.92,5.92,0,0,0-.99,3.114,1.85,1.85,0,0,0,.739,1.623C652.118,243.838,652.271,243.893,647.184,240.967Z" transform="translate(-645.749 -234.066)" fill="#bbebef"/>
            <path id="路径_10461" data-name="路径 10461" d="M647.272,236.229c-.036.056-.073.117-.112.177-.1-.136-.191-.268-.284-.405Z" transform="translate(-645.644 -234.106)" fill="#4c6e81"/>
            <path id="路径_10462" data-name="路径 10462" d="M646.827,236.073c-.129-.187.011-.172.208-.057q7.072,4.087,14.147,8.169l.095.131c-6.9-3.981-13.433-7.756-14.379-8.3.093.137.188.269.284.405-.015.027-.032.057-.05.086Z" transform="translate(-645.665 -234.121)" fill="#5a8694"/>
            <g id="组_5218" data-name="组 5218" transform="translate(0.813 1.808)" style="mix-blend-mode: multiply;isolation: isolate">
              <path id="路径_10463" data-name="路径 10463" d="M697.994,267.759c-.36-.108-.721-.212-1.08-.323-2.637-.809-5.268-1.64-7.915-2.421a16.056,16.056,0,0,1-3.414-1.705q-15.313-8.832-30.615-17.686a2.635,2.635,0,0,0-1.5-.483,1.832,1.832,0,0,1-.905-.3c-1.37-.773-2.729-1.567-4.086-2.362-.313-.182-.7-.266-.652-.824.018-.212-.4-.462-.68-.629a1.547,1.547,0,0,1-.621-.788c1.693.917,3.3,1.88,4.919,2.7a4.9,4.9,0,0,1,.742-3.538c-1.728-1.011-3.313-1.894-5.007-2.885,0,0-.2-.286-.308-.444-.06-.089-.067-.146.012-.132,1.585.813,3.37,1.92,4.916,2.8s2.979,1.729,4.523,2.619c1.566.9,3.292,1.9,4.906,2.83.3-.336.546-.715.879-1.086.368.205.774.428,1.167.648-.4.519-.778,1-1.206,1.558l-9.424-5.425a2.83,2.83,0,0,0-.324,2.59,1.851,1.851,0,0,0,.8.758c2.306,1.352,4.625,2.676,6.939,4.012q12.577,7.252,25.142,14.524a6.314,6.314,0,0,0,1.737.567c1.295.326,2.58.689,3.869,1.038q2.1.57,4.207,1.144a1.059,1.059,0,0,1,.488.188c.873.959,1.724,1.937,2.582,2.909Z" transform="translate(-646.531 -235.929)" fill="#b0a7c2" style="mix-blend-mode: multiply;isolation: isolate"/>
              <path id="路径_10464" data-name="路径 10464" d="M652.7,237.444c1.285-.975,2.214-.757,2.58.478a4.72,4.72,0,0,1-.5-.184,1.653,1.653,0,0,0-1.277-.164C653.264,237.642,652.968,237.494,652.7,237.444Z" transform="translate(-645.213 -235.736)" fill="#c5bed1"/>
            </g>
            <path id="路径_10465" data-name="路径 10465" d="M646.784,236.218c.42-.519.835-1.039,1.254-1.559l-.007-.015a.044.044,0,0,1,.018-.01l.007.015c.091-.028-.516-.351,14.38,8.251l-1.256,1.562C646.365,235.9,646.85,236.153,646.784,236.218Z" transform="translate(-645.664 -234.398)" fill="#71a7ab"/>
          </g>
        </g>
      </g>
      <g id="组_5223" data-name="组 5223" transform="translate(262.328 133.155)">
        <g id="组_5222" data-name="组 5222">
          <path id="路径_10466" data-name="路径 10466" d="M934.345,282.908c0,4.521-3.664,6.069-8.183,3.459L813.174,221.133c-4.518-2.609-8.182-8.387-8.182-12.906v-54.01c0-4.518,3.664-6.067,8.182-3.457l112.989,65.235c4.519,2.609,8.182,8.387,8.182,12.906Z" transform="translate(-804.992 -149.492)" fill="#fcfcfc" opacity="0.69"/>
        </g>
        <path id="路径_10467" data-name="路径 10467" d="M875.973,217.141c0,10.034-8.135,13.472-18.168,7.678s-18.167-18.622-18.167-28.656,8.133-13.472,18.167-7.68S875.973,207.107,875.973,217.141Z" transform="translate(-797.592 -141.765)" fill="#d2448d"/>
        <path id="路径_10468" data-name="路径 10468" d="M864.893,208.843a4.034,4.034,0,0,1,1.061,2.449c0,.757-.4,1.225-1.061,1.225H852.757a3.135,3.135,0,0,1-2.121-1.225,4.039,4.039,0,0,1-1.059-2.449V194.829c0-.757.4-1.225,1.059-1.225a3.134,3.134,0,0,1,2.121,1.225Z" transform="translate(-795.47 -140.07)" fill="#fcfcfc" opacity="0.69"/>
      </g>
      <g id="组_5224" data-name="组 5224" transform="translate(233.761 158.414)">
        <path id="路径_10469" data-name="路径 10469" d="M857.192,201.737v.076c0,2.089-3.613,2.431-3.613,4.073,0,.944,2.3,2.76,2.3,4.712,0,4.437-4.968,5.374-9.4,5.374-.729,0-1.442-.021-2.124-.042h0a8.628,8.628,0,0,0-2.271-5.165c3.647-1.93,5.528-9.127,14.539-9.127A1.419,1.419,0,0,1,857.192,201.737Z" transform="translate(-768.503 -163.614)" fill="#e6a57a"/>
        <path id="路径_10470" data-name="路径 10470" d="M787.428,205.983a15.947,15.947,0,0,1,4.809-2.545,8.557,8.557,0,0,0,.841,2.8,11.132,11.132,0,0,0,2.983.387,22.718,22.718,0,0,0,7.575-1.618,18.127,18.127,0,0,0,.388-2.061,26.29,26.29,0,0,1,7.371,3.472,17.619,17.619,0,0,0,10.076,3.119c9.223-.073,19.278,3.683,25.639,2.067,2-.508,3.879-1.386,5.836-2.027a4.151,4.151,0,0,1,1.494.9,8.628,8.628,0,0,1,2.271,5.165,10.019,10.019,0,0,1,.087,1.135c-12.238,7.692-25.474,5.164-36.508,8.548a5.586,5.586,0,0,0-3.852,6.095c1.686,12.5,5.258,26.769.879,30.98-.013.012-.028.022-.041.033-3.883,3.067-9.419,4.854-17.253,4.854-7.3,0-12.3-5.436-14.434-12.237v0c-.218-.7-.409-1.411-.564-2.133a66.259,66.259,0,0,0,1.636-9.374,50.036,50.036,0,0,0,.269-5c0-10.565-2.714-18.812-2.714-24.506a13.2,13.2,0,0,1,1-5.508A5.735,5.735,0,0,1,787.428,205.983Z" transform="translate(-780.863 -163.333)" fill="#f6ba28"/>
        <path id="路径_10471" data-name="路径 10471" d="M820.287,309.672a5.024,5.024,0,0,1,5.075,4.816c0,5.831-13.317,12.381-18.921,12.381-3.973,0-4.819-3.466-4.819-7.443,0-1.166.084-2.336.149-3.506-.149-2.938,2.352-3.334,2.461-3.984.808.535-.454,2.739.424,2.739,2.71,0,4.65-2.267,6.417-4.7a6.609,6.609,0,0,1,1.306,4.947C814.619,312.43,817.919,309.672,820.287,309.672Z" transform="translate(-777.145 -140.539)" fill="#a68efe"/>
        <path id="路径_10472" data-name="路径 10472" d="M790.683,310.007c-.324,1.314-.619,2.5-.875,3.538A5.273,5.273,0,0,1,788.427,316a8.485,8.485,0,0,1-1.4,1.285c-2.317,0-4.32,2.292-4.318-5.576h0c.608-4.26,1.655-62.211,3.205-65.821,2.13,6.8,7.136,12.237,14.434,12.237,7.835,0,13.37-1.788,17.253-4.854l0,0a52.386,52.386,0,0,1,.67,8.751c0,.165-2.351,53.344-2.89,62.78-.5,2.045-1.516,3.4-4.36,4.386a3.318,3.318,0,0,1-2.758.024,2.634,2.634,0,0,1-1.483-2.365c.405-9.607-3.687-50.921-7.7-57.844C796.42,277.538,793.484,298.669,790.683,310.007Z" transform="translate(-781.185 -154.163)" fill="#d2448d"/>
        <path id="路径_10473" data-name="路径 10473" d="M802.758,202.562c-.028.453-.069.907-.127,1.356a18.127,18.127,0,0,1-.388,2.061,22.718,22.718,0,0,1-7.575,1.618,11.132,11.132,0,0,1-2.983-.387,8.557,8.557,0,0,1-.841-2.8,10.7,10.7,0,0,1-.1-1.453,6.561,6.561,0,0,1,1.436-4.533A6.18,6.18,0,0,0,793.253,200v0c1.86,2,4.879,2.635,7.73,2.635.1,0,.2,0,.3,0C801.782,202.631,802.277,202.607,802.758,202.562Z" transform="translate(-779.468 -164.301)" fill="#8140ff"/>
        <path id="路径_10474" data-name="路径 10474" d="M801.169,201.115c-.135.557-.241,1.118-.329,1.681-.1,0-.2,0-.3,0-2.852,0-5.87-.633-7.73-2.635v0c.028-.823.045-1.646.052-2.476,1.255.318,2.517.17,3.841.6a7.432,7.432,0,0,0,3.112,1.449C800.273,200.189,800.723,200.655,801.169,201.115Z" transform="translate(-779.027 -164.458)" fill="#e6a57a"/>
        <path id="路径_10475" data-name="路径 10475" d="M790.34,301.577c.187-.756.39-1.576.606-2.453a10.082,10.082,0,0,1,5.788-2.285c2.407,0,4.422,1.363,4.422,3.949,0,8.542-13.138,15.178-16.876,15.178h-.1a3.361,3.361,0,0,1-2.707-3.4c0-3.931.782-6.7,1.494-11.738h0C783.472,306.1,789.914,303.293,790.34,301.577Z" transform="translate(-781.448 -143.28)" fill="#a68efe"/>
        <path id="路径_10476" data-name="路径 10476" d="M787.521,237.565a50.036,50.036,0,0,1-.269,5h0c-3.544-5.249-5.795-13.021-5.795-20.347,0-5.591,1.311-10.92,4.357-14.667a13.2,13.2,0,0,0-1,5.508C784.807,218.754,787.521,227,787.521,237.565Z" transform="translate(-781.453 -162.35)" fill="#f2a305"/>
        <path id="路径_10477" data-name="路径 10477" d="M814.033,179.583c.561,1.836.4,3.667-1.792,4.336l-.023.007c-.046.015-.092.028-.136.039-2.186.6-2.65,3.2-4.039,3.629-7.053,2.154,3.205,14.95-6.182,17.818a7.538,7.538,0,0,1-1.526.3,7.412,7.412,0,0,1-3.4-.477c-1.392-.023-2.556.488-3.848.55a4.682,4.682,0,0,1-1.6-.188c-4.553-1.368-7.393-5.044-8.746-9.474-1.5-4.921-1.6-11.6,1.573-17.01a16.849,16.849,0,0,1,5.616-5.79,21.3,21.3,0,0,1,5.2-2.347C802.636,168.679,811.866,172.491,814.033,179.583Z" transform="translate(-781.393 -170.305)" fill="#e06c00"/>
        <path id="路径_10478" data-name="路径 10478" d="M808.807,181.561q.35.863.623,1.754c1.752,5.738,1.772,19.071-4.712,21.052a10.677,10.677,0,0,1-5.966-.263l.006.127c-.561-.309-1.127-.624-1.7-.927a7.538,7.538,0,0,0,1.526-.3c9.387-2.868-.871-15.664,6.182-17.818C806.157,184.765,806.622,182.159,808.807,181.561Z" transform="translate(-778.119 -167.901)" fill="#e6a57a"/>
      </g>
      <g id="组_5226" data-name="组 5226" transform="translate(-113.206 42.745)">
        <g id="组_5225" data-name="组 5225">
          <path id="路径_10479" data-name="路径 10479" d="M950.447,399.843V387.1a6.092,6.092,0,0,0-2.759-4.784l71.509-41.282a6.082,6.082,0,0,1,2.757,4.778v12.752a1.932,1.932,0,0,1-.809,1.788q-35.743,20.634-71.482,41.275A2.013,2.013,0,0,0,950.447,399.843Z" transform="translate(-832.735 -294.173)" fill="#9f3759"/>
          <path id="路径_10480" data-name="路径 10480" d="M1021.152,346.36l-71.509,41.282-5.923-3.425q-2.6-25.363-5.184-50.741l30.154-17.408Z" transform="translate(-834.69 -299.504)" fill="#bb426a"/>
          <path id="路径_10481" data-name="路径 10481" d="M950.394,395.1a2.313,2.313,0,0,1-1.664-.324l-3.845-2.227c-.11-1.055-.221-2.116-.324-3.172,1.626.943,1.948,1.187,2.538,1.276a1.632,1.632,0,0,0,1.036-.188,1.671,1.671,0,0,0,.724-1.262c.067-.346.045.2.045-7.283a6.088,6.088,0,0,0-2.757-4.784l-3.017-1.741q-.166-1.582-.324-3.172l5.923,3.425a6.092,6.092,0,0,1,2.759,4.784V393.18a2.013,2.013,0,0,1-.784,1.779A1.315,1.315,0,0,1,950.394,395.1Z" transform="translate(-833.778 -287.51)" fill="#bb426a"/>
          <path id="路径_10482" data-name="路径 10482" d="M948.8,388.646c-.285-.107-.141-.042-4.584-2.609q-.582-5.592-1.146-11.2l3.017,1.741a6.088,6.088,0,0,1,2.757,4.784C948.848,388.7,948.868,388.31,948.8,388.646Z" transform="translate(-833.721 -286.952)" fill="#c8d1dd"/>
          <path id="路径_10483" data-name="路径 10483" d="M947.838,387.964a1.974,1.974,0,0,1-1.949-.194l-1.586-.92H944.3c-.091-.926-.188-1.851-.279-2.784,4.413,2.549,4.308,2.506,4.584,2.609a1.671,1.671,0,0,1-.724,1.262A.173.173,0,0,1,947.838,387.964Z" transform="translate(-833.519 -284.981)" fill="#cd7e8e"/>
          <path id="路径_10484" data-name="路径 10484" d="M948.939,401.859c.142,1.425.291,2.848.433,4.273a2.262,2.262,0,0,1-1.126,1.994l-10.973,7.749a5.579,5.579,0,0,1-5.509.343l-7.2-70.479v-5.678a1.668,1.668,0,0,0-.738-1.307l.019-.027a5.56,5.56,0,0,0,5.508-.342l10.973-7.75a2.2,2.2,0,0,0,1.12-1.987C941.515,328.648,944.486,359.162,948.939,401.859Z" transform="translate(-837.831 -296.817)" fill="#da926e"/>
          <path id="路径_10485" data-name="路径 10485" d="M933.914,330.468a2.714,2.714,0,0,0-.5-.369h-.006l-.246-2.454A1.837,1.837,0,0,1,933.914,330.468Z" transform="translate(-835.837 -297.031)" fill="#e2ae4a"/>
          <path id="路径_10486" data-name="路径 10486" d="M944.041,334.94c-.381.535-.419.484-6.572,4.829a5.575,5.575,0,0,1-5.5.343l-46.216-26.684c9.41-6.647,7.658-5.41,9.517-6.72C947.214,336.693,943.791,334.7,944.041,334.94Z" transform="translate(-845.964 -301.503)" fill="#c8d1dd"/>
          <path id="路径_10487" data-name="路径 10487" d="M942.186,335.166,893.919,307.3l-1.4.99-.447-4.376,49.873,28.795Z" transform="translate(-844.615 -302.099)" fill="#e2ae4a"/>
          <path id="路径_10488" data-name="路径 10488" d="M924.436,342.731l7.2,70.479-7.2-4.156Z" transform="translate(-837.701 -293.809)" fill="#da926e"/>
          <path id="路径_10489" data-name="路径 10489" d="M927.552,420.618a1.941,1.941,0,0,1-1.146,1.6l-11.038,6.377a6.176,6.176,0,0,1-4.383.453v-81.38a1.713,1.713,0,0,0-.356-1,2.794,2.794,0,0,0-.784-.647,6.063,6.063,0,0,0,5.523,0C927.352,339.1,926.8,339.5,927.2,339a1.707,1.707,0,0,0,.355-.945Z" transform="translate(-840.818 -294.808)" fill="#648f66"/>
          <path id="路径_10490" data-name="路径 10490" d="M929.125,343.089a1.679,1.679,0,0,1-.7,1.625c-.249-.211,3.081,1.733-48.688-28.154l-1.6.926v-4.473l49.873,28.795A2.3,2.3,0,0,1,929.125,343.089Z" transform="translate(-847.589 -300.156)" fill="#72a368"/>
          <path id="路径_10491" data-name="路径 10491" d="M923.464,347.761a6.086,6.086,0,0,1-5.523,0l-45.995-26.556c8.562-4.948,7.006-4.049,9.115-5.269,51.751,29.876,48.438,27.94,48.688,28.154C929.477,344.308,929.619,344.2,923.464,347.761Z" transform="translate(-848.912 -299.532)" fill="#c8d1dd"/>
          <path id="路径_10492" data-name="路径 10492" d="M913.9,345.974v82.52a1.937,1.937,0,0,1-1.14,1.592l-11.044,6.376a6.076,6.076,0,0,1-5.522,0V353.9a6.083,6.083,0,0,0,5.522,0l11.044-6.376A2.025,2.025,0,0,0,913.9,345.974Z" transform="translate(-843.733 -293.116)" fill="#5a84d9"/>
          <path id="路径_10493" data-name="路径 10493" d="M915.476,350.968a1.69,1.69,0,0,1-.7,1.625c-.249-.211,3.08,1.733-48.689-28.154l-1.6.926v-4.473l49.873,28.795A2.342,2.342,0,0,1,915.476,350.968Z" transform="translate(-850.505 -298.474)" fill="#6899f4"/>
          <path id="路径_10494" data-name="路径 10494" d="M916.1,351.969c-.26.221-.06.08-6.286,3.677a6.1,6.1,0,0,1-5.522,0l-46-26.562c8.568-4.948,7.011-4.049,9.121-5.269C919.162,353.691,915.849,351.755,916.1,351.969Z" transform="translate(-851.829 -297.849)" fill="#c8d1dd"/>
          <path id="路径_10495" data-name="路径 10495" d="M905.429,357.834V440.4l-52.463-30.284V327.544Z" transform="translate(-852.966 -297.053)" fill="#6899f4"/>
          <path id="路径_10496" data-name="路径 10496" d="M897.967,440.939v-82.67c3.416-.351,6-2.549,8.869-4.131,2.393-1.32,3.167-4.823,5.547-6.167.732-.413,2.16.268,3.474.432a5.055,5.055,0,0,0,2.415-.856c.851-.413,1.641-.949,2.462-1.422.754-.434,1.524-.836,2.267-1.286,2.226-1.348,4.431-2.728,6.669-4.055.346-.206-.749-2-.319-2.09.047-.381,1.661,1.029,1.709.648.144-.084.277-.226.41-.227,2.022-.006,3.581-1.07,5.135-2.186,3.33-2.39,6.71-5.4,10.362-8,.256,2.211.472,4.835.678,6.814q1.416,13.524,2.807,27.05c.121,1.178.255,2.7.336,3.879a3.2,3.2,0,0,0,2.048,3.006c4.511,2.453,8.954,5.033,13.371,7.65,2.024,1.2,3.928,2.6,6.192,4.114,19.811-11.328,39.418-22.773,59.989-34.523,0,2.75.4,4.994.234,7.172-.14,1.892.591,2.726,2.316,3.607,2.88,1.473,5.633,3.2,8.428,4.833.521.3.988.7,1.816,1.294l-60.739,35.087a14.249,14.249,0,0,0,1.4,1.1q9.224,5.357,18.46,10.692c.927.539,2.219.9,2.12,2.266-.084,1.177-1.229,1.547-2.132,2.022-3.216,1.692-6.489,3.285-9.64,5.091a8.684,8.684,0,0,1-6.159,1.245,6.073,6.073,0,0,1-.432,2.171,5.506,5.506,0,0,1-1.843,1.436c-2.653,1.567-5.342,3.072-7.994,4.641-1.86,1.1-3.717,2.148-6.277,1.584.09,1.8-.958,2.6-2.248,3.319-3.243,1.808-6.443,3.694-9.633,5.595-1.365.813-21.944,11.741-23.461,11.74-18.352-.01-17.591-10.87-35.944-10.87Z" transform="translate(-843.354 -296.757)" fill="#b0a7c2" style="mix-blend-mode: multiply;isolation: isolate"/>
          <path id="路径_10497" data-name="路径 10497" d="M944.383,333.033,894.51,304.238l2.57-1.819,52.456,30.29c1.413.807,1.641,2.377.019,3.528l-10.973,7.75a5.56,5.56,0,0,1-5.508.342l-.019.027c-.281-.24,3.381,1.9-52.424-30.323l2.557-1.8c5.308,3.062-2.294-1.326,49.873,28.795a5.575,5.575,0,0,0,5.5-.343l5.84-4.124C946,335.43,945.818,333.853,944.383,333.033Z" transform="translate(-847.057 -302.419)" fill="#ebd863"/>
          <path id="路径_10498" data-name="路径 10498" d="M917.962,351.547a2,2,0,0,0-1.14-1.6l-49.873-28.795,2.584-1.489c56.053,32.357,52.83,30.4,53.246,30.931.738.991.257,1.931-.784,2.545l-11.044,6.376a6.083,6.083,0,0,1-5.522,0l-52.463-30.29,2.59-1.489c4.614,2.661-5.447-3.147,49.873,28.795a6.1,6.1,0,0,0,5.522,0c6.2-3.58,6.239-3.525,6.655-4.04A1.755,1.755,0,0,0,917.962,351.547Z" transform="translate(-852.966 -298.736)" fill="#82c2e8"/>
          <path id="路径_10499" data-name="路径 10499" d="M936.047,342.356a1.668,1.668,0,0,1,.738,1.307,1.961,1.961,0,0,1-1.146,1.593L924.6,351.633a6.063,6.063,0,0,1-5.523,0l-52.462-30.284,2.59-1.5c31.976,18.5,49.768,28.734,49.872,28.795a6.086,6.086,0,0,0,5.523,0c5.8-3.352,6.01-3.45,6.285-3.671a1.79,1.79,0,0,0,.726-1.314,1.987,1.987,0,0,0-1.14-1.592L880.6,313.276l2.584-1.5C883.248,311.817,935.729,342.085,936.047,342.356Z" transform="translate(-850.05 -300.419)" fill="#84bf80"/>
        </g>
        <path id="路径_10500" data-name="路径 10500" d="M957.079,330.744l33,19.053a5.414,5.414,0,0,0,4.9,0l1.626-.939c1.353-.78,1.353-2.046,0-2.826l-33-19.053a5.4,5.4,0,0,0-4.9,0l-1.627.939C955.728,328.7,955.728,329.964,957.079,330.744Z" transform="translate(-830.946 -297.299)" fill="#9f3759"/>
        <path id="路径_10501" data-name="路径 10501" d="M894.406,366.578l-33-19.053c-1.353-.782-2.449-.318-2.449,1.034v1.627a5.075,5.075,0,0,0,2.449,3.862l33,19.053c1.352.78,2.448.317,2.448-1.035V370.44A5.077,5.077,0,0,0,894.406,366.578Z" transform="translate(-851.687 -292.866)" fill="#4b7cd6"/>
        <path id="路径_10502" data-name="路径 10502" d="M894.406,376.081l-33-19.053c-1.353-.78-2.449-.318-2.449,1.035v1.626a5.075,5.075,0,0,0,2.449,3.862l33,19.053c1.352.78,2.448.318,2.448-1.035v-1.626A5.077,5.077,0,0,0,894.406,376.081Z" transform="translate(-851.687 -290.836)" fill="#4b7cd6"/>
      </g>
    </g>
    <g id="组_5234" data-name="组 5234" transform="translate(3183.866 1733.196)">
      <g id="组_5228" data-name="组 5228" transform="translate(0 0)">
        <path id="路径_10503" data-name="路径 10503" d="M834.045,358.021V372.9l-5.094,2.942V360.963Z" transform="translate(-662.353 -293.389)" fill="#a68efe"/>
        <path id="路径_10504" data-name="路径 10504" d="M811.114,361.426c18.775-1.211,19.568-1.234,23.586-1.265l-24.085-13.905,5.095-2.942,30.916,17.848-5.093,2.943-54.178,3.3-5.655.239,5.655,3.263,17.834,10.3,4.074,2.352-5.093,2.942-34.127-19.7,5.3-3.058C791.695,362.683,803.06,361.944,811.114,361.426Z" transform="translate(-674.935 -296.53)" fill="#bfb5f4"/>
        <path id="路径_10505" data-name="路径 10505" d="M838.486,360.446v14.883l-36.344,2.212-17.834-10.3v-3.5Z" transform="translate(-671.888 -292.871)" fill="#a68efe"/>
        <path id="路径_10506" data-name="路径 10506" d="M803.475,345.738l24.085,13.905c-4.018.03-4.811.053-23.586,1.265l-.5-.286Z" transform="translate(-667.794 -296.013)" fill="#a68efe"/>
        <path id="路径_10507" data-name="路径 10507" d="M803.257,376.47v14.886l-5.094,2.939V379.412Z" transform="translate(-668.929 -289.449)" fill="#a68efe"/>
        <path id="路径_10508" data-name="路径 10508" d="M804.169,382.362v14.883l-34.127-19.7V362.659Z" transform="translate(-674.935 -292.399)" fill="#a68efe"/>
        <path id="路径_10509" data-name="路径 10509" d="M785.3,363.162v3.5l-5.655-3.264Z" transform="translate(-672.883 -292.291)" fill="#a68efe"/>
        <path id="路径_10510" data-name="路径 10510" d="M769.693,344.517V359.4l-5.329,3.076V347.6Z" transform="translate(-676.148 -296.273)" fill="#a68efe"/>
        <path id="路径_10511" data-name="路径 10511" d="M772.558,346.171l-5.33,3.079-16.281-9.4,5.327-3.076Z" transform="translate(-679.013 -297.927)" fill="#bfb5f4"/>
        <path id="路径_10512" data-name="路径 10512" d="M767.229,348.709v14.883l-16.281-9.4V339.308Z" transform="translate(-679.013 -297.386)" fill="#a68efe"/>
        <path id="路径_10513" data-name="路径 10513" d="M750.459,307.692v14.883l-25.5,35.122V342.814Z" transform="translate(-684.563 -304.139)" fill="#d2448d"/>
        <path id="路径_10514" data-name="路径 10514" d="M744.516,308.321c-3.118,3.257-5.75,6.757-13.339,16.439l-14.636-8.448q8.727-2.254,17.4-4.573A104.06,104.06,0,0,0,744.516,308.321Z" transform="translate(-686.361 -304.004)" fill="#d2448d"/>
        <path id="路径_10515" data-name="路径 10515" d="M729.4,326.756l-7.926,10.308-10.126-5.845V316.335Z" transform="translate(-687.47 -302.293)" fill="#d2448d"/>
        <path id="路径_10516" data-name="路径 10516" d="M726.107,337.295v14.883l-6.507-3.759V333.536Z" transform="translate(-685.708 -298.619)" fill="#d2448d"/>
        <path id="路径_10517" data-name="路径 10517" d="M725.678,339.536l7.926-10.308-18.052-10.421-17.813,4.812-6.066-3.5,59.743-15.352,6.153,3.553-25.5,35.122-6.507-3.758Zm10.812-14.016c7.589-9.682,10.221-13.182,13.339-16.439a104.06,104.06,0,0,1-10.573,3.419q-8.674,2.321-17.4,4.573Z" transform="translate(-691.673 -304.764)" fill="#e288b9"/>
        <path id="路径_10518" data-name="路径 10518" d="M714.484,316.335v14.883l-17.813,4.811V321.146Z" transform="translate(-690.605 -302.293)" fill="#d2448d"/>
        <path id="路径_10519" data-name="路径 10519" d="M697.739,320.916V335.8l-6.066-3.5V317.414Z" transform="translate(-691.673 -302.062)" fill="#d2448d"/>
      </g>
      <path id="路径_10520" data-name="路径 10520" d="M844.575,358.021l-.022,8.848s6.707,3.922,10.228,5.979c-2.283,1.648-4.342,3.052-7.013,3.178-4.18.2-8.36.382-12.536.641-5.587.346-11.169.786-16.756,1.13-4.325.265-12.987.631-12.987.631l-2.353-.487L779.648,364.5s4.22-.153,5.655-.239c5.816-.348,11.374-.557,17.188-.934,5.442-.353,10.88-.754,16.322-1.085,5.593-.341,20.668-1.277,20.668-1.277Z" transform="translate(-672.883 -293.389)" fill="#b0a7c2" style="mix-blend-mode: multiply;isolation: isolate"/>
      <path id="路径_10521" data-name="路径 10521" d="M724.962,357.7V342.814l25.5-35.122.069,11.434s6.791,1.442,10.01,3.377c-.36.608-.646,1.188-1.019,1.7-7.682,10.573-15.393,21.124-23.033,31.727a3.325,3.325,0,0,1-3.118,1.669C730.69,357.5,724.962,357.7,724.962,357.7Z" transform="translate(-684.563 -304.139)" fill="#b0a7c2" style="mix-blend-mode: multiply;isolation: isolate"/>
      <path id="路径_10522" data-name="路径 10522" d="M717.488,332.86c-6.866,2.5-13.6,4.228-20.817,3.169v-14.9c5.67-1.533,11.762-3.153,17.813-4.79C715.613,321.968,716.393,327.392,717.488,332.86Z" transform="translate(-690.605 -302.293)" fill="#b0a7c2" style="mix-blend-mode: multiply;isolation: isolate"/>
      <path id="路径_10523" data-name="路径 10523" d="M731.178,324.76l-14.636-8.448c12.791-3.255,22.769-5.879,27.974-7.991C741.609,311.828,737.7,315.839,731.178,324.76Z" transform="translate(-686.361 -304.004)" fill="#b0a7c2" style="mix-blend-mode: multiply;isolation: isolate"/>
      <path id="路径_10524" data-name="路径 10524" d="M764.392,362.463V347.644l5.295-3.127-.029,8.961,2.993,1.715c2.319,1.328,4.619,2.689,7.158,4.171-2.785,1.791-8.536,3.148-8.536,3.148Z" transform="translate(-676.141 -296.273)" fill="#b0a7c2" style="mix-blend-mode: multiply;isolation: isolate"/>
      <path id="路径_10525" data-name="路径 10525" d="M813.395,391.329c-2.472,1.763-7.711,3-7.711,3s-5.029-.039-7.521-.039c0-5.062.289-14.892.289-14.892l4.8-2.933.023,8.639s.3.633,1.881,1.458C807.867,387.977,810.455,389.612,813.395,391.329Z" transform="translate(-668.929 -289.449)" fill="#b0a7c2" style="mix-blend-mode: multiply;isolation: isolate"/>
    </g>
  </g>
</svg>
