<svg xmlns="http://www.w3.org/2000/svg" width="22.065" height="19.166" viewBox="0 0 22.065 19.166">
  <g id="mail_email_e-mail_letter" data-name="mail email e-mail letter" transform="translate(0 0)">
    <path id="联合_6" data-name="联合 6" d="M864.713,15.666a2.391,2.391,0,0,1-1.8-.855,3.144,3.144,0,0,1-.747-2.061V3.306a.857.857,0,1,1,1.7,0V12.75a.917.917,0,0,0,.849.972h16.973a.917.917,0,0,0,.849-.972V3.306a.857.857,0,1,1,1.7,0V12.75a3.144,3.144,0,0,1-.747,2.061,2.391,2.391,0,0,1-1.8.855Zm7.979-7.694-10-8.614a1.066,1.066,0,0,1-.255-1.2,3.015,3.015,0,0,1,.5-.806,2.386,2.386,0,0,1,1.795-.856h16.936a2.388,2.388,0,0,1,1.8.856,3.013,3.013,0,0,1,.5.806,1.067,1.067,0,0,1-.254,1.2l-10,8.614a.761.761,0,0,1-1.016,0Zm-8.2-9.527,8.7,7.535L881.9-1.555a.659.659,0,0,0-.238,0H864.731a.654.654,0,0,0-.118-.011A.654.654,0,0,0,864.494-1.555Z" transform="translate(-862.167 3.5)" fill="#707070"/>
  </g>
</svg>
