<svg xmlns="http://www.w3.org/2000/svg" width="22.042" height="19.833" viewBox="0 0 22.042 19.833">
  <g id="map" transform="translate(-16.8 -20.967)">
    <path id="路径_167" data-name="路径 167" d="M40.6,22.584c0,2.8,4.732,7.768,4.929,7.965l.355.355.355-.355c.2-.2,4.929-5.165,4.929-7.965a5.284,5.284,0,0,0-10.567,0Zm7.019-.118a1.735,1.735,0,1,1-1.735-1.735A1.75,1.75,0,0,1,47.619,22.465Z" transform="translate(-14.416 3.667)" fill="#000" />
    <path id="路径_168" data-name="路径 168" d="M35.924,40.9h0a.67.67,0,1,0,0,1.341H36.2l.71,3.746-1.893,1.38L22.912,42.241h3.706a.67.67,0,1,0,0-1.341H18.377L16.8,51.428H36.2a2.642,2.642,0,0,0,2.642-2.642l-1.5-7.886Zm-2.169,7.373-2.563,1.853h-10.8l4.732-5.481ZM19.521,42.241h0l4.337,1.814-5.2,6.072h-.315ZM36.2,50.127H33.479l3.746-2.721.276,1.459A1.332,1.332,0,0,1,36.2,50.127Z" transform="translate(0 -10.628)" fill="#000" />
  </g>
</svg>
