<svg xmlns="http://www.w3.org/2000/svg" width="36" height="36.194" viewBox="0 0 36 36.194">
  <g id="member_search" transform="translate(-223.584 -221.769)">
    <path id="路径_1" data-name="路径 1" d="M316.6,301.148a10.027,10.027,0,1,0,10.028,10.027A10.028,10.028,0,0,0,316.6,301.148Zm-4.75,13.733a.678.678,0,0,1-.531-1.1l7-8.811a.678.678,0,0,1,1.061.843l-7,8.811A.675.675,0,0,1,311.854,314.881Zm10.472-6.13-7.005,8.811a.678.678,0,1,1-1.061-.843l7-8.811a.678.678,0,1,1,1.061.843Z" transform="translate(-78.565 -75.144)" fill="none"/>
    <path id="路径_2" data-name="路径 2" d="M807.775,805.963l-.151-.152-3.66,3.66.089.088.971.969c.622.623,1.945.308,2.957-.7s1.325-2.335.7-2.957l-.907-.907Z" transform="translate(-549.419 -552.885)" fill="#616e7d"/>
    <path id="路径_3" data-name="路径 3" d="M790.836,789.313l-3.66,3.657.9.883,3.66-3.66-.1-.1,0,0Z" transform="translate(-533.526 -537.268)" fill="#aad4c8"/>
    <path id="路径_4" data-name="路径 4" d="M237.844,221.769a14.261,14.261,0,1,0,7.892,26.138l7.914,7.8,3.66-3.657-7.862-7.744a14.246,14.246,0,0,0-11.6-22.533Zm.2,24.29a10.027,10.027,0,1,1,10.028-10.027A10.028,10.028,0,0,1,238.039,246.059Z" transform="translate(0)" fill="#616e7d"/>
    <path id="路径_5" data-name="路径 5" d="M399.956,368.277l-7,8.811a.678.678,0,0,0,1.062.844l7-8.811a.678.678,0,0,0-1.061-.843Z" transform="translate(-160.193 -138.451)" fill="#82bfab"/>
    <path id="路径_6" data-name="路径 6" d="M455.006,423.323l-7,8.811a.678.678,0,0,0,1.061.843l7.005-8.811a.678.678,0,1,0-1.061-.843Z" transform="translate(-212.306 -190.56)" fill="#82bfab"/>
  </g>
</svg>
