<svg xmlns="http://www.w3.org/2000/svg" xmlns:xlink="http://www.w3.org/1999/xlink" width="129.733" height="104.863" viewBox="0 0 129.733 104.863">
  <defs>
    <clipPath id="clip-path">
      <path id="矩形_1800" data-name="矩形 1800" d="M0,0H15.612a0,0,0,0,1,0,0V5.624a2.867,2.867,0,0,1-2.867,2.867H2.867A2.867,2.867,0,0,1,0,5.624V0A0,0,0,0,1,0,0Z" transform="matrix(0.74, 0.672, -0.672, 0.74, 53.452, 405.682)" fill="none"/>
    </clipPath>
  </defs>
  <g id="modification" transform="translate(-2737 500.66)">
    <g id="组_3051" data-name="组 3051" transform="translate(2697.279 -500.66)">
      <g id="组_2872" data-name="组 2872" transform="translate(77.096)">
        <rect id="矩形_1664" data-name="矩形 1664" width="49.869" height="69.344" transform="translate(13.149)" fill="#fff"/>
        <rect id="矩形_1665" data-name="矩形 1665" width="53.116" height="69.639" transform="translate(11.452 1.107)" fill="#d1e6e8"/>
        <rect id="矩形_1666" data-name="矩形 1666" width="54.737" height="69.344" transform="translate(8.944 2.582)" fill="#fff"/>
        <rect id="矩形_1667" data-name="矩形 1667" width="54" height="69.344" transform="translate(9.092 3.32)" fill="#d1e6e8"/>
        <rect id="矩形_1668" data-name="矩形 1668" width="53.41" height="69.344" transform="translate(6.878 4.057)" fill="#fff"/>
        <rect id="矩形_1669" data-name="矩形 1669" width="53.115" height="69.638" transform="translate(5.92 4.87)" fill="#d1e6e8"/>
        <rect id="矩形_1670" data-name="矩形 1670" width="54.737" height="69.343" transform="translate(3.411 6.345)" fill="#fff"/>
        <rect id="矩形_1671" data-name="矩形 1671" width="53.999" height="69.345" transform="translate(3.56 7.082)" fill="#d1e6e8"/>
        <g id="组_2871" data-name="组 2871" transform="translate(0 8.722)">
          <g id="组_2870" data-name="组 2870">
            <path id="路径_5389" data-name="路径 5389" d="M701.43,477.711a.554.554,0,0,1-.549.56h-54.81a.553.553,0,0,1-.549-.56V407.527a.553.553,0,0,1,.549-.558h54.81a.554.554,0,0,1,.549.558Z" transform="translate(-645.523 -406.969)" fill="#fff"/>
            <g id="组_2869" data-name="组 2869" transform="translate(6.388 12.116)">
              <g id="组_2853" data-name="组 2853">
                <rect id="矩形_1672" data-name="矩形 1672" width="27.905" height="1.433" fill="#adadad"/>
                <rect id="矩形_1673" data-name="矩形 1673" width="27.905" height="1.434" transform="translate(0 2.405)" fill="#adadad"/>
                <rect id="矩形_1674" data-name="矩形 1674" width="27.905" height="1.434" transform="translate(0 4.851)" fill="#adadad"/>
                <rect id="矩形_1675" data-name="矩形 1675" width="27.905" height="1.434" transform="translate(0 7.296)" fill="#adadad"/>
                <rect id="矩形_1676" data-name="矩形 1676" width="27.905" height="1.434" transform="translate(0 9.79)" fill="#adadad"/>
              </g>
              <g id="组_2854" data-name="组 2854" transform="translate(0 16.838)">
                <rect id="矩形_1677" data-name="矩形 1677" width="27.905" height="1.435" fill="#adadad"/>
                <rect id="矩形_1678" data-name="矩形 1678" width="27.905" height="1.433" transform="translate(0 2.408)" fill="#adadad"/>
                <rect id="矩形_1679" data-name="矩形 1679" width="27.905" height="1.434" transform="translate(0 4.853)" fill="#adadad"/>
                <rect id="矩形_1680" data-name="矩形 1680" width="27.905" height="1.433" transform="translate(0 7.297)" fill="#adadad"/>
                <rect id="矩形_1681" data-name="矩形 1681" width="27.905" height="1.433" transform="translate(0 9.791)" fill="#adadad"/>
              </g>
              <g id="组_2855" data-name="组 2855" transform="translate(32.044 36.601)">
                <rect id="矩形_1682" data-name="矩形 1682" width="12.079" height="1.435" fill="#adadad"/>
                <rect id="矩形_1683" data-name="矩形 1683" width="12.079" height="1.433" transform="translate(0 2.407)" fill="#adadad"/>
                <rect id="矩形_1684" data-name="矩形 1684" width="12.079" height="1.432" transform="translate(0 4.853)" fill="#adadad"/>
                <rect id="矩形_1685" data-name="矩形 1685" width="12.079" height="1.434" transform="translate(0 7.297)" fill="#adadad"/>
                <rect id="矩形_1686" data-name="矩形 1686" width="12.079" height="1.433" transform="translate(0 9.791)" fill="#adadad"/>
                <rect id="矩形_1687" data-name="矩形 1687" width="12.079" height="1.433" transform="translate(0 12.625)" fill="#adadad"/>
              </g>
              <g id="组_2865" data-name="组 2865" transform="translate(32.013 16.931)">
                <path id="路径_5390" data-name="路径 5390" d="M666.609,432.391v-9.908h-.574v10.481h10.487v-.573Z" transform="translate(-666.035 -422.484)" fill="#adadad"/>
                <g id="组_2864" data-name="组 2864" transform="translate(1.393 0.602)">
                  <path id="路径_5391" data-name="路径 5391" d="M674.6,424.408l-1.322.134.34.371L671,427.16l-1.373-.651-2.845,2.36v.848l2.964-2.46,1.388.656,2.894-2.551.36.4Z" transform="translate(-666.779 -421.408)" fill="#e24000"/>
                  <g id="组_2857" data-name="组 2857" transform="translate(0.008)">
                    <g id="组_2856" data-name="组 2856">
                      <path id="路径_5392" data-name="路径 5392" d="M666.783,429.249l1.807-3.632a.122.122,0,0,1,.154-.06h0l1.99.749.822-.29.751-3.117a.122.122,0,0,1,.092-.09h0a.119.119,0,0,1,.122.045h0l1.134,1.445,1.608-.563.081.23-1.691.593a.127.127,0,0,1-.139-.039h0l-1.028-1.316-.706,2.934a.118.118,0,0,1-.079.086h0l-.929.33a.16.16,0,0,1-.084,0h0l-1.93-.726-1.97,3.954Z" transform="translate(-666.783 -422.805)" fill="#006e99"/>
                      <path id="路径_5393" data-name="路径 5393" d="M671.631,423.921l.279-.633a.061.061,0,0,0,0-.026.029.029,0,0,0-.023-.011l-.646-.077a.041.041,0,0,0-.034.013.039.039,0,0,0,0,.032l.367.708a.031.031,0,0,0,.056-.006Z" transform="translate(-662.927 -422.484)" fill="#006e99"/>
                    </g>
                  </g>
                  <g id="组_2863" data-name="组 2863" transform="translate(0.455 5.316)">
                    <g id="组_2862" data-name="组 2862">
                      <g id="组_2859" data-name="组 2859" transform="translate(0 0.826)">
                        <g id="组_2858" data-name="组 2858">
                          <path id="路径_5394" data-name="路径 5394" d="M667.022,428.4h0l.648-.2h0l.066.215-.161.05-.273.084h0l-.215.069-.068-.215Zm.871-.271h0l.646-.2h0l.068.213-.215.069h0l-.221.067h0l-.214.066-.068-.213Zm.871-.272h0l.646-.2h0l.065.215-.214.067h0l-.222.069h0l-.214.066-.065-.215Zm4.778-.047h0l-.264-.084-.168-.052.065-.215,0,0v0l.168.054.045.013h0l.436.137h0l0,0-.068.211-.219-.066Zm-3.909-.223h0l.112-.036.1-.03h0l.272-.086.163-.049.068.213-.214.065h0l-.221.067h0l-.215.069-.067-.215Zm3.258.017h0l-.65-.2h0l0,0,.068-.213.217.067h0l.219.069h0l.215.067-.065.215Zm.895-.127.09-.172.189-.35.041-.081.2.107h0l-.215.4h0l-.1.2-.2-.1Zm-3.284-.161h0l.648-.2h0l.067.213-.213.065h0l-.223.069h0l-.215.067-.067-.215Zm1.52.013h0l-.4-.125-.088.028-.094.03h0l-.068-.213.217-.071v0l.034-.011.251.081h0l.217.067-.066.213Zm2.194-.655,0,0h0l.314-.586.195.109-.206.388h0l-.047.086-.06.11h0l0,0-.2-.1Z" transform="translate(-667.022 -426.086)" fill="#f46300"/>
                        </g>
                      </g>
                      <g id="组_2861" data-name="组 2861" transform="translate(6.802)">
                        <g id="组_2860" data-name="组 2860">
                          <path id="路径_5395" data-name="路径 5395" d="M670.839,426.347l-.183-.079,1.267-.623.167,1.247-1.251-.545Zm1.02.236-.088-.653-.665.328.753.326Z" transform="translate(-670.655 -425.645)" fill="#f46300"/>
                        </g>
                      </g>
                    </g>
                  </g>
                </g>
              </g>
              <g id="组_2867" data-name="组 2867" transform="translate(32.013)">
                <path id="路径_5396" data-name="路径 5396" d="M666.585,422.947V413.44h-.55v10.054H676.1v-.548Z" transform="translate(-666.035 -413.44)" fill="#adadad"/>
                <g id="组_2866" data-name="组 2866" transform="translate(1.342 3.242)">
                  <rect id="矩形_1688" data-name="矩形 1688" width="1.651" height="2.01" transform="translate(0 3.58)" fill="#006e99"/>
                  <rect id="矩形_1689" data-name="矩形 1689" width="1.649" height="3.593" transform="translate(2.198 1.997)" fill="#f46300"/>
                  <rect id="矩形_1690" data-name="矩形 1690" width="1.647" height="3.026" transform="translate(4.377 2.564)" fill="#6b8ea5"/>
                  <rect id="矩形_1691" data-name="矩形 1691" width="1.651" height="5.59" transform="translate(6.553)" fill="#e24000"/>
                </g>
                <path id="路径_5397" data-name="路径 5397" d="M675.206,413.535l-1.433.144.368.4-2.829,2.43-1.484-.7-3.079,2.551v.916l3.207-2.659,1.5.711,3.13-2.759.389.428Z" transform="translate(-665.412 -413.358)" fill="#adadad"/>
              </g>
              <g id="组_2868" data-name="组 2868" transform="translate(0 37.067)">
                <path id="路径_5398" data-name="路径 5398" d="M648.935,446.779l2.982-5.764,1.064,1.743,1.066-3.085.958,3.353,2.77-7.107,1.916,7.107,1.6-2.414,5.854,2.95,2.13-3.218,2.556-1.073,3.194-5.227,1.7-.8v13.539Z" transform="translate(-648.935 -433.239)" fill="#8eafc1"/>
              </g>
            </g>
          </g>
        </g>
      </g>
    </g>
    <g id="组_3052" data-name="组 3052" transform="translate(2712.902 -855.489)">
      <rect id="矩形_1798" data-name="矩形 1798" width="6.042" height="55.838" rx="2.325" transform="translate(28.543 448.673) rotate(-137.358)"/>
      <g id="组_3049" data-name="组 3049">
        <g id="组_3048" data-name="组 3048" clip-path="url(#clip-path)">
          <g id="组_3047" data-name="组 3047">
            <rect id="矩形_1799" data-name="矩形 1799" width="12.642" height="8.491" transform="translate(54.551 406.68) rotate(42.251)"/>
          </g>
        </g>
      </g>
      <circle id="椭圆_28" data-name="椭圆 28" cx="23.403" cy="23.403" r="23.403" transform="translate(46.836 416.728) rotate(-84.692)"/>
      <circle id="椭圆_29" data-name="椭圆 29" cx="18.959" cy="18.959" r="18.959" transform="translate(45.76 399.371) rotate(-53.106)" fill="#9dd1c9"/>
      <path id="路径_5489" data-name="路径 5489" d="M76.08,409.291A14.229,14.229,0,0,1,58.6,399.367l.494-.136A13.715,13.715,0,0,0,75.944,408.8Z"/>
    </g>
    <g id="组_3075" data-name="组 3075" transform="translate(2652.368 -711.705)">
      <g id="组_3060" data-name="组 3060">
        <path id="路径_5490" data-name="路径 5490" d="M152.2,312.029l-20.572-11.877L187.1,268.124,207.677,280Z" opacity="0.5"/>
        <path id="路径_5491" data-name="路径 5491" d="M195.456,287.058l-16.163-9.332V261.542l19.1,6.89Z" fill="#535359"/>
        <path id="路径_5492" data-name="路径 5492" d="M194.076,244.929,138.6,276.956l-6.972-4.025L187.1,240.9Z" fill="#f1f2f2"/>
        <path id="路径_5493" data-name="路径 5493" d="M145.673,279.508l-6.2-3.579-.869,1.027-6.972-4.025v27.222L152.2,312.029V288.809Z" fill="#d1d3d4"/>
        <path id="路径_5494" data-name="路径 5494" d="M152.2,288.809v23.221l12.221-7.056V287.741l31.032-17.916v17.232L207.677,280V256.781Z" fill="#bcbec0"/>
        <path id="路径_5495" data-name="路径 5495" d="M205.148,261.957l-50.416,29.108v2.092l50.416-29.107Z" fill="#3576ab"/>
        <path id="路径_5496" data-name="路径 5496" d="M159.259,290l-3.707,2.141v-.959l3.707-2.14Z" fill="#e31b25"/>
        <path id="路径_5497" data-name="路径 5497" d="M201.146,247.481l-55.473,32.026-6.2-3.579L194.946,243.9Z" fill="#fff"/>
        <path id="路径_5498" data-name="路径 5498" d="M207.677,256.781,152.2,288.809l-6.531-9.3,55.473-32.026Z" fill="#e6e7e8"/>
        <g id="组_3058" data-name="组 3058">
          <g id="组_3053" data-name="组 3053">
            <path id="路径_5499" data-name="路径 5499" d="M156.376,283.87l-4.257-6.063h0l-4.286,2.475,4.257,6.063,4.286-2.475Z" fill="#535359"/>
          </g>
          <g id="组_3054" data-name="组 3054">
            <path id="路径_5500" data-name="路径 5500" d="M150.794,283.141l.377.539.751-.434-.378-.538Z" fill="#303033"/>
            <path id="路径_5501" data-name="路径 5501" d="M151.9,282.5l.377.539.752-.434-.378-.539Z" fill="#303033"/>
            <path id="路径_5502" data-name="路径 5502" d="M153.765,281.426l-.75.433.377.539.751-.434Z" fill="#303033"/>
          </g>
          <g id="组_3055" data-name="组 3055">
            <path id="路径_5503" data-name="路径 5503" d="M151.513,284.164l.378.538.75-.434-.377-.538Z" fill="#303033"/>
            <path id="路径_5504" data-name="路径 5504" d="M152.623,283.523l.378.538.751-.434-.379-.539Z" fill="#303033"/>
            <path id="路径_5505" data-name="路径 5505" d="M154.483,282.448l-.751.434.378.538.751-.434Z" fill="#303033"/>
          </g>
          <g id="组_3056" data-name="组 3056">
            <path id="路径_5506" data-name="路径 5506" d="M152.192,285.136l.378.539.751-.435-.378-.538Z" fill="#303033"/>
            <path id="路径_5507" data-name="路径 5507" d="M153.3,284.5l.378.538.751-.434-.378-.538Z" fill="#303033"/>
            <path id="路径_5508" data-name="路径 5508" d="M155.163,283.42l-.752.435.378.538.751-.434Z" fill="#e31b25"/>
          </g>
          <g id="组_3057" data-name="组 3057">
            <path id="路径_5509" data-name="路径 5509" d="M152.073,278.265l-1.852,1.069-1.906,1.1,1.893,2.7,3.757-2.171Z" fill="#24d2c1"/>
          </g>
        </g>
        <g id="组_3059" data-name="组 3059">
          <path id="路径_5510" data-name="路径 5510" d="M194.572,251.276l-7.538,8.445-19.363,11.915-15.425,4.076-6.2-3.579L188.373,247.7Z" fill="#535359"/>
          <path id="路径_5511" data-name="路径 5511" d="M201.1,260.576l-42.326,24.436-6.531-9.3,42.326-24.436Z" fill="#303033"/>
        </g>
      </g>
      <g id="组_3074" data-name="组 3074">
        <g id="组_3065" data-name="组 3065">
          <path id="路径_5512" data-name="路径 5512" d="M183.333,315.908l-18.852-10.885,31.033-17.916,18.851,10.884Z" opacity="0.3"/>
          <g id="组_3064" data-name="组 3064">
            <g id="组_3061" data-name="组 3061">
              <path id="路径_5513" data-name="路径 5513" d="M181.59,313.142l-.517.3.82,1.421.517-.3h0a.41.41,0,0,0,.17-.377,1.274,1.274,0,0,0-.58-1A.405.405,0,0,0,181.59,313.142Z" fill="#121214"/>
              <path id="路径_5514" data-name="路径 5514" d="M181.483,313.48a1.288,1.288,0,0,1,.58,1c0,.37-.259.521-.58.335a1.279,1.279,0,0,1-.58-1.005C180.9,313.446,181.163,313.3,181.483,313.48Z" fill="#303033"/>
              <path id="路径_5515" data-name="路径 5515" d="M181.483,313.843a.591.591,0,0,1,.266.462c0,.169-.119.238-.266.153a.586.586,0,0,1-.266-.461C181.217,313.827,181.336,313.758,181.483,313.843Z" fill="#bcbec0"/>
            </g>
            <g id="组_3062" data-name="组 3062">
              <path id="路径_5516" data-name="路径 5516" d="M173.908,308.707l-.517.3.82,1.42.517-.3h0a.406.406,0,0,0,.171-.376,1.281,1.281,0,0,0-.58-1A.411.411,0,0,0,173.908,308.707Z" fill="#121214"/>
              <path id="路径_5517" data-name="路径 5517" d="M173.8,309.046a1.282,1.282,0,0,1,.579,1c0,.37-.259.519-.58.336a1.284,1.284,0,0,1-.58-1C173.221,309.011,173.481,308.861,173.8,309.046Z" fill="#303033"/>
              <path id="路径_5518" data-name="路径 5518" d="M173.8,309.408a.59.59,0,0,1,.266.462c0,.169-.119.238-.267.153a.587.587,0,0,1-.266-.462C173.535,309.393,173.654,309.323,173.8,309.408Z" fill="#bcbec0"/>
            </g>
            <g id="组_3063" data-name="组 3063">
              <path id="路径_5519" data-name="路径 5519" d="M166.227,304.272l-.518.3.821,1.421.517-.3h0a.409.409,0,0,0,.17-.376,1.277,1.277,0,0,0-.58-1A.408.408,0,0,0,166.227,304.272Z" fill="#121214"/>
              <path id="路径_5520" data-name="路径 5520" d="M166.12,304.61a1.288,1.288,0,0,1,.579,1.005c0,.37-.259.521-.579.335a1.28,1.28,0,0,1-.581-1.005C165.539,304.576,165.8,304.427,166.12,304.61Z" fill="#303033"/>
              <path id="路径_5521" data-name="路径 5521" d="M166.12,304.974a.588.588,0,0,1,.266.461c0,.168-.119.238-.266.153a.589.589,0,0,1-.267-.461C165.853,304.957,165.973,304.888,166.12,304.974Z" fill="#bcbec0"/>
            </g>
          </g>
          <path id="路径_5522" data-name="路径 5522" d="M214.365,296.633l-31.032,17.916v-5.5l31.032-17.916Z" fill="#bcbec0"/>
          <path id="路径_5523" data-name="路径 5523" d="M164.481,303.665l18.852,10.884v-5.5L164.481,298.16Z" fill="#d1d3d4"/>
          <path id="路径_5524" data-name="路径 5524" d="M183.333,309.044,164.481,298.16l31.033-17.916,18.851,10.884Z" fill="#a7a9ac"/>
        </g>
        <g id="组_3070" data-name="组 3070">
          <g id="组_3066" data-name="组 3066">
            <path id="路径_5525" data-name="路径 5525" d="M197.945,280.777l-.273.157-2.145-3.627.272-.157.747.431,1.4,2.3Z" fill="#303033"/>
            <path id="路径_5526" data-name="路径 5526" d="M197.672,280.935l-2.145-1.238v-2.389l.746.431,1.4,2.3Z" fill="#535359"/>
          </g>
          <g id="组_3067" data-name="组 3067">
            <path id="路径_5527" data-name="路径 5527" d="M214.365,290.588,183.333,308.5v-.792L214.365,289.8Z" fill="#bcbec0"/>
            <path id="路径_5528" data-name="路径 5528" d="M164.481,297.621,183.333,308.5v-.792L164.481,296.83Z" fill="#d1d3d4"/>
            <path id="路径_5529" data-name="路径 5529" d="M183.333,307.713,164.481,296.83l31.033-17.918L214.365,289.8Z" fill="#e6e7e8"/>
            <path id="路径_5530" data-name="路径 5530" d="M172.814,292.019l14.367-8.3,18.852,10.886L191.665,302.9Z" opacity="0.3"/>
          </g>
          <g id="组_3068" data-name="组 3068">
            <path id="路径_5531" data-name="路径 5531" d="M195.514,270.65l-31.033,17.917.247.143,31.032-17.916Z" fill="#e6e7e8"/>
            <path id="路径_5532" data-name="路径 5532" d="M164.481,296.83v-8.263l.247.143v8.262Z" fill="#d1d3d4"/>
            <path id="路径_5533" data-name="路径 5533" d="M173.061,286.462l14.368-8.295v5.7l8.333-4.811v-8.262L164.729,288.71v8.262l8.332-4.81Z" fill="#bcbec0"/>
          </g>
          <g id="组_3069" data-name="组 3069">
            <path id="路径_5534" data-name="路径 5534" d="M166.627,298.859l-.273.157-2.145-3.627.273-.157.746.431,1.4,2.3Z" fill="#303033"/>
            <path id="路径_5535" data-name="路径 5535" d="M166.354,299.017l-2.145-1.238V295.39l.746.431,1.4,2.3Z" fill="#535359"/>
          </g>
        </g>
        <g id="组_3073" data-name="组 3073">
          <g id="组_3071" data-name="组 3071">
            <path id="路径_5536" data-name="路径 5536" d="M191.387,302.742l.279.16,14.367-13.672-.278-.161-14.368,8.3Z" fill="#303033"/>
            <path id="路径_5537" data-name="路径 5537" d="M191.666,302.9l14.367-8.294V289.23l-14.367,8.295Z" fill="#121214"/>
          </g>
          <g id="组_3072" data-name="组 3072">
            <path id="路径_5538" data-name="路径 5538" d="M173.061,286.784v-.322l32.973,2.446v.322l-14.368,8.295Z" fill="#121214"/>
            <path id="路径_5539" data-name="路径 5539" d="M173.061,286.462l14.368-8.295,18.6,10.741L191.665,297.2Z" fill="#808285"/>
          </g>
          <path id="路径_5540" data-name="路径 5540" d="M191.665,302.9l-.278-.16v-5.377l-18.327-10.581v-.322l18.6,10.741Z" fill="#303033"/>
        </g>
      </g>
    </g>
  </g>
</svg>
