<svg xmlns="http://www.w3.org/2000/svg" width="165.481" height="201.385" viewBox="0 0 165.481 201.385">
  <g id="peo" transform="translate(-485.556 -451.219)">
    <circle id="椭圆_4" data-name="椭圆 4" cx="46.916" cy="46.916" r="46.916" transform="translate(501.947 517.569) rotate(-45)" fill="#31859c"/>
    <path id="路径_77" data-name="路径 77" d="M568.3,569.144a82.744,82.744,0,0,0-82.741,82.75c0,.241,0,.471.011.71h165.46c.01-.239.01-.469.01-.71A82.743,82.743,0,0,0,568.3,569.144Zm-1.7,72.448-11.573-15.381a2.13,2.13,0,0,1-.341-1.885l10.9-36.8a2.132,2.132,0,0,0-.323-1.863l-5.557-7.59a2.13,2.13,0,0,1,1.719-3.388h13.762a2.129,2.129,0,0,1,1.718,3.388l-5.556,7.59a2.132,2.132,0,0,0-.324,1.863l10.9,36.8a2.126,2.126,0,0,1-.34,1.885L570,641.592A2.129,2.129,0,0,1,566.595,641.592Z" fill="#31859c"/>
  </g>
</svg>
