<svg xmlns="http://www.w3.org/2000/svg" width="13.554" height="16.281" viewBox="0 0 13.554 16.281">
  <g id="qa_black" transform="translate(-739.177 -418.774)">
    <path id="路径_76" data-name="路径 76" d="M802.068,461.144a.268.268,0,0,1-.422.023,4.541,4.541,0,0,0-2.858-1.612c-.121-.017-.245-.029-.369-.036a.074.074,0,0,0-.055.127,13.953,13.953,0,0,1,3.2,4.769.074.074,0,0,0,.061.046h.008a.074.074,0,0,0,.061-.033,39.733,39.733,0,0,1,6.346-7.748.074.074,0,0,0-.077-.124A14.353,14.353,0,0,0,802.068,461.144Z" transform="translate(-56.67 -36.183)"/>
    <path id="路径_77" data-name="路径 77" d="M954.508,677.179l-3.124-4.354a.074.074,0,0,0-.109-.012l-.057.05-.059.052-.038.034-.084.074c-.157.134-.3.246-.432.342s-.263.179-.437.283l-.094.054-.041.023-.062.036-.052.03a.074.074,0,0,0-.023.107l3.12,4.35a.317.317,0,0,0,.23.112.683.683,0,0,0,.076,0h0a1.289,1.289,0,0,0,.685-.243l.033-.022C954.48,677.786,954.639,677.362,954.508,677.179Zm-1.186,1.113Z" transform="translate(-201.822 -243.311)"/>
    <path id="路径_78" data-name="路径 78" d="M749.508,428.888a5.991,5.991,0,0,0,.874-7.066.074.074,0,0,0-.115-.017c-.324.311-.658.661-.991,1.04a.074.074,0,0,0-.012.079,4.458,4.458,0,0,1-4.042,6.3h-.012a4.458,4.458,0,0,1-.019-8.915h.012a4.462,4.462,0,0,1,3.209,1.362.074.074,0,0,0,.094.01,11.462,11.462,0,0,1,1.2-.686.074.074,0,0,0,.024-.114,6,6,0,0,0-4.566-2.11h-.017a5.988,5.988,0,0,0-.664,11.936,6.011,6.011,0,0,0,.69.04h.016a5.989,5.989,0,0,0,3.464-1.116A6.025,6.025,0,0,0,749.508,428.888Z"/>
  </g>
</svg>
