<svg id="Recruit" xmlns="http://www.w3.org/2000/svg" width="101" height="101" viewBox="0 0 101 101">
  <path id="路径_75" data-name="路径 75" d="M62.533,0A38.436,38.436,0,0,0,33.341,63.475l-4.118,4.118a8.834,8.834,0,0,0-10.04,1.669L0,88.447,12.553,101,31.741,81.817a8.828,8.828,0,0,0,1.666-10.04l4.119-4.119A38.455,38.455,0,1,0,62.533,0ZM83.246,59.18H41.82V56.221A20.738,20.738,0,0,1,62.533,35.508,11.836,11.836,0,1,1,74.369,23.672,11.848,11.848,0,0,1,62.533,35.508,20.738,20.738,0,0,1,83.246,56.221Z" fill="#575757"/>
  <path id="路径_76" data-name="路径 76" d="M258.006,210a14.82,14.82,0,0,0-14.5,11.836H272.5A14.82,14.82,0,0,0,258.006,210Z" transform="translate(-195.473 -168.574)" fill="#575757"/>
  <ellipse id="椭圆_3" data-name="椭圆 3" cx="5.5" cy="6" rx="5.5" ry="6" transform="translate(57 18)" fill="#575757"/>
</svg>
