<svg xmlns="http://www.w3.org/2000/svg" width="50" height="49.945" viewBox="0 0 50 49.945">
  <path id="title" d="M2.094,34.878l-.183-.422H21.874c.806-1.187,6.8-10.014,6.79-10A.934.934,0,0,1,29.312,24a.766.766,0,0,1,.662.326l8.181,9.959,9.646-.121,0,.3h0l.279.116a24.984,24.984,0,0,1-45.989.3ZM38.247,34.4Zm10.362-1.59H42.572l-.091-.109L29.24,16.821s-.021-.024-.022-.028l-.015-.029a.264.264,0,0,0-.1-.11c-.01,0-.113.036-.277.31-.541.9-9.755,15.1-10.147,15.7l-.089.138H1.338l-.071-.2L.885,31.512l-.14-.4h16.5L28.232,14.542a1.088,1.088,0,0,1,.777-.417,1.223,1.223,0,0,1,.959.488c.718.807,12.5,15.433,13.151,16.234l.318.317H49.4l-.14.4L48.894,32.6l-.07.2ZM48.973,31.768ZM43.525,31.252Zm-.4-.392Zm-30.075-.687H.371L.33,29.921.058,28.288,0,27.936H12.077L22.109,13.2a19.4,19.4,0,0,0-2.082-2.145c-.271-.225-.509-.325-.671-.28-.2.055-.3.325-.3.326l-.013.037-.022.033-9.8,14.874-.089.136H.078l-.01-.292c-.01-.3-.016-.607-.016-.916a24.974,24.974,0,1,1,49.574,4.314l-.042.241-.244.01-2.443.091-.132.005-.093-.093-.016-.016-.012-.018C46.485,29.292,30.77,8.1,29.792,7.036c-.158-.171-.393-.37-.619-.339-.255.034-.463.338-.521.451l-.008.017-.011.016L13.305,30.04l-.09.133ZM22.252,13.372Z" transform="translate(0)" fill="#31859c"/>
</svg>
